{"glyphs":{"0":{"ha":697,"x_min":54,"x_max":643,"o":"m 643 432 q 563 90 643 196 q 350 -15 483 -15 q 135 91 217 -15 q 54 432 54 197 q 135 772 54 665 q 350 878 217 878 q 563 773 483 878 q 643 432 643 668 m 350 94 q 494 172 435 94 q 554 439 554 249 q 495 698 554 625 q 350 771 436 771 q 202 696 261 771 q 143 428 143 621 q 202 167 143 240 q 350 94 261 94 z "},"1":{"ha":697,"x_min":94,"x_max":639,"o":"m 639 46 l 639 0 l 94 0 l 94 46 l 321 83 l 321 751 l 101 751 l 101 803 l 439 853 l 439 83 l 639 46 z "},"2":{"ha":697,"x_min":44,"x_max":649,"o":"m 44 69 l 331 350 q 446 492 411 429 q 481 636 481 556 q 438 748 481 706 q 318 790 394 790 q 103 740 207 790 l 78 800 q 199 851 132 831 q 335 871 267 871 q 528 815 454 871 q 601 639 601 758 q 549 469 601 551 q 401 301 496 388 l 167 88 l 543 88 l 597 200 l 649 200 l 629 0 l 65 0 l 44 69 z "},"3":{"ha":697,"x_min":60,"x_max":611,"o":"m 343 871 q 505 824 442 871 q 568 686 568 776 q 390 467 568 538 q 551 394 492 454 q 611 239 611 333 q 533 50 611 113 q 304 -12 456 -12 q 172 -1 236 -12 q 60 31 108 10 l 75 99 q 261 64 171 64 q 424 108 364 64 q 485 239 485 151 q 415 385 485 350 q 228 419 344 419 l 224 481 q 446 667 446 503 q 407 757 446 724 q 292 790 368 790 q 111 740 211 790 l 85 797 q 206 850 138 829 q 343 871 275 871 z "},"4":{"ha":697,"x_min":1,"x_max":639,"o":"m 415 0 l 415 194 l 21 194 l 1 251 l 438 861 l 524 851 l 524 275 l 639 275 l 639 194 l 524 194 l 524 0 l 415 0 m 107 275 l 415 275 l 415 711 l 107 275 z "},"5":{"ha":697,"x_min":65,"x_max":621,"o":"m 575 756 l 213 756 l 194 536 q 465 494 371 536 q 590 391 560 453 q 621 251 621 329 q 541 58 621 129 q 314 -12 461 -12 q 65 33 182 -12 l 86 97 q 272 64 181 64 q 434 115 372 64 q 496 251 496 165 q 410 410 496 365 q 142 456 324 456 l 117 482 l 150 849 l 575 849 l 575 756 z "},"6":{"ha":697,"x_min":56,"x_max":653,"o":"m 179 426 q 283 497 224 472 q 413 522 343 522 q 596 453 539 522 q 653 281 653 385 q 584 76 653 168 q 331 -17 515 -17 q 116 78 176 -17 q 56 339 56 174 q 122 653 56 533 q 285 822 189 772 q 474 871 381 871 q 586 858 526 871 l 578 794 l 547 797 q 496 801 518 801 q 349 759 419 801 q 231 632 278 717 q 179 426 183 547 m 175 322 q 215 128 175 201 q 338 54 254 54 q 484 107 435 54 q 533 249 533 160 q 500 393 533 340 q 385 446 467 446 q 266 410 325 446 q 175 322 207 374 z "},"7":{"ha":697,"x_min":58,"x_max":638,"o":"m 69 657 l 58 849 l 617 849 l 638 778 l 314 -12 l 189 0 l 542 765 l 144 765 l 115 657 l 69 657 z "},"8":{"ha":697,"x_min":61,"x_max":614,"o":"m 328 -18 q 123 41 185 -18 q 61 189 61 100 q 108 328 61 263 q 249 436 156 394 q 129 533 171 482 q 88 658 88 585 q 156 811 88 751 q 351 871 224 871 q 540 820 475 871 q 606 689 606 769 q 564 569 606 625 q 411 468 522 513 q 563 363 511 415 q 614 228 614 311 q 538 49 614 117 q 328 -18 463 -18 m 354 497 q 463 574 429 536 q 497 667 497 611 q 460 766 497 728 q 351 804 422 804 q 239 772 283 804 q 194 675 194 739 q 235 579 194 621 q 354 497 275 538 m 322 50 q 454 87 403 50 q 506 194 506 124 q 490 268 506 239 q 441 323 475 297 q 340 385 407 349 l 299 407 q 167 204 167 321 q 209 88 167 126 q 322 50 251 50 z "},"9":{"ha":697,"x_min":57,"x_max":644,"o":"m 96 86 q 256 60 183 60 q 448 140 376 60 q 522 393 519 221 q 296 325 399 325 q 168 360 222 325 q 85 453 114 394 q 57 585 57 513 q 121 783 57 694 q 356 871 185 871 q 580 754 515 871 q 644 464 644 638 q 542 89 644 194 q 289 -17 439 -17 q 78 18 169 -17 l 96 86 m 525 482 q 487 721 525 644 q 350 797 449 797 q 225 744 272 797 q 178 606 178 690 q 222 453 178 503 q 335 404 265 404 q 431 425 381 404 q 525 482 481 446 z "},"\u0000":{"ha":0,"x_min":0,"x_max":0,"o":""},"\r":{"ha":282,"x_min":0,"x_max":0,"o":""}," ":{"ha":282,"x_min":0,"x_max":0,"o":""},"A":{"ha":825,"x_min":0,"x_max":814,"o":"m 182 72 l 282 46 l 282 0 l 0 0 l 0 46 l 100 72 l 360 849 l 440 867 l 714 72 l 814 46 l 814 0 l 513 0 l 513 46 l 596 69 l 546 211 l 228 211 l 182 72 m 383 683 l 247 275 l 525 275 l 383 683 z "},"Á":{"ha":825,"x_min":0,"x_max":814,"o":"m 297 903 l 275 929 l 489 1110 l 594 1071 l 594 1046 l 297 903 m 182 72 l 282 46 l 282 0 l 0 0 l 0 46 l 100 72 l 360 849 l 440 867 l 714 72 l 814 46 l 814 0 l 513 0 l 513 46 l 596 69 l 546 211 l 228 211 l 182 72 m 383 683 l 247 275 l 525 275 l 383 683 z "},"Ă":{"ha":825,"x_min":0,"x_max":814,"o":"m 410 924 q 283 967 321 924 q 246 1082 246 1011 l 293 1085 q 317 1022 293 1046 q 407 999 342 999 q 499 1022 474 999 q 525 1085 525 1046 l 571 1082 q 410 924 571 924 m 182 72 l 282 46 l 282 0 l 0 0 l 0 46 l 100 72 l 360 849 l 440 867 l 714 72 l 814 46 l 814 0 l 513 0 l 513 46 l 596 69 l 546 211 l 228 211 l 182 72 m 383 683 l 247 275 l 525 275 l 383 683 z "},"Ắ":{"ha":825,"x_min":0,"x_max":814,"o":"m 0 0 m 182 72 l 282 46 l 282 0 l 0 0 l 0 46 l 100 72 l 360 849 l 440 867 l 714 72 l 814 46 l 814 0 l 513 0 l 513 46 l 596 69 l 546 211 l 228 211 l 182 72 m 383 683 l 247 275 l 525 275 l 383 683 m 414 924 q 288 967 325 924 q 250 1082 250 1011 l 297 1085 q 322 1022 297 1046 q 411 999 346 999 q 503 1022 478 999 q 529 1085 529 1046 l 575 1082 q 414 924 575 924 m 351 1082 l 329 1108 l 543 1289 l 649 1250 l 649 1225 l 351 1082 z "},"Ặ":{"ha":825,"x_min":0,"x_max":814,"o":"m 0 0 m 182 72 l 282 46 l 282 0 l 0 0 l 0 46 l 100 72 l 360 849 l 440 867 l 714 72 l 814 46 l 814 0 l 513 0 l 513 46 l 596 69 l 546 211 l 228 211 l 182 72 m 383 683 l 247 275 l 525 275 l 383 683 m 496 -140 q 471 -197 496 -174 q 413 -219 446 -219 q 354 -197 379 -219 q 329 -140 329 -174 q 354 -81 329 -106 q 413 -57 379 -57 q 471 -82 446 -57 q 496 -140 496 -107 m 414 924 q 288 967 325 924 q 250 1082 250 1011 l 297 1085 q 322 1022 297 1046 q 411 999 346 999 q 503 1022 478 999 q 529 1085 529 1046 l 575 1082 q 414 924 575 924 z "},"Ằ":{"ha":825,"x_min":0,"x_max":814,"o":"m 0 0 m 182 72 l 282 46 l 282 0 l 0 0 l 0 46 l 100 72 l 360 849 l 440 867 l 714 72 l 814 46 l 814 0 l 513 0 l 513 46 l 596 69 l 546 211 l 228 211 l 182 72 m 383 683 l 247 275 l 525 275 l 383 683 m 414 924 q 288 967 325 924 q 250 1082 250 1011 l 297 1085 q 322 1022 297 1046 q 411 999 346 999 q 503 1022 478 999 q 529 1085 529 1046 l 575 1082 q 414 924 575 924 m 486 1082 l 186 1225 l 186 1250 l 293 1289 l 506 1108 l 486 1082 z "},"Ẳ":{"ha":825,"x_min":0,"x_max":814,"o":"m 0 0 m 182 72 l 282 46 l 282 0 l 0 0 l 0 46 l 100 72 l 360 849 l 440 867 l 714 72 l 814 46 l 814 0 l 513 0 l 513 46 l 596 69 l 546 211 l 228 211 l 182 72 m 383 683 l 247 275 l 525 275 l 383 683 m 414 924 q 288 967 325 924 q 250 1082 250 1011 l 297 1085 q 322 1022 297 1046 q 411 999 346 999 q 503 1022 478 999 q 529 1085 529 1046 l 575 1082 q 414 924 575 924 m 550 1224 q 464 1153 550 1167 l 456 1118 l 403 1118 l 397 1174 q 475 1218 475 1174 q 463 1246 475 1236 q 426 1256 450 1256 l 399 1254 l 388 1210 l 346 1210 l 338 1283 q 432 1292 389 1292 q 519 1274 488 1292 q 550 1224 550 1257 z "},"Ẵ":{"ha":825,"x_min":0,"x_max":814,"o":"m 0 0 m 182 72 l 282 46 l 282 0 l 0 0 l 0 46 l 100 72 l 360 849 l 440 867 l 714 72 l 814 46 l 814 0 l 513 0 l 513 46 l 596 69 l 546 211 l 228 211 l 182 72 m 383 683 l 247 275 l 525 275 l 383 683 m 414 924 q 288 967 325 924 q 250 1082 250 1011 l 297 1085 q 322 1022 297 1046 q 411 999 346 999 q 503 1022 478 999 q 529 1085 529 1046 l 575 1082 q 414 924 575 924 m 617 1238 q 568 1141 590 1174 q 515 1108 546 1108 q 415 1136 490 1108 q 318 1164 340 1164 q 290 1153 304 1164 q 267 1130 276 1142 q 256 1114 258 1118 l 214 1131 q 263 1228 240 1196 q 317 1261 286 1261 q 359 1253 332 1261 q 414 1233 386 1244 q 469 1214 442 1222 q 514 1206 497 1206 q 541 1217 528 1206 q 563 1239 554 1228 q 574 1254 572 1250 l 617 1238 z "},"Ǎ":{"ha":825,"x_min":0,"x_max":814,"o":"m 0 0 m 182 72 l 282 46 l 282 0 l 0 0 l 0 46 l 100 72 l 360 849 l 440 867 l 714 72 l 814 46 l 814 0 l 513 0 l 513 46 l 596 69 l 546 211 l 228 211 l 182 72 m 383 683 l 247 275 l 525 275 l 383 683 m 372 904 l 231 1086 l 254 1111 l 415 997 l 569 1111 l 594 1086 l 456 904 l 372 904 z "},"Â":{"ha":825,"x_min":0,"x_max":814,"o":"m 553 904 l 392 1018 l 238 904 l 214 929 l 353 1111 l 436 1111 l 578 929 l 553 904 m 182 72 l 282 46 l 282 0 l 0 0 l 0 46 l 100 72 l 360 849 l 440 867 l 714 72 l 814 46 l 814 0 l 513 0 l 513 46 l 596 69 l 546 211 l 228 211 l 182 72 m 383 683 l 247 275 l 525 275 l 383 683 z "},"Ấ":{"ha":825,"x_min":0,"x_max":814,"o":"m 574 968 l 546 986 l 683 1229 l 797 1229 l 806 1206 l 574 968 m 542 904 l 381 1018 l 226 904 l 203 929 l 342 1111 l 425 1111 l 567 929 l 542 904 m 182 72 l 282 46 l 282 0 l 0 0 l 0 46 l 100 72 l 360 849 l 440 867 l 714 72 l 814 46 l 814 0 l 513 0 l 513 46 l 596 69 l 546 211 l 228 211 l 182 72 m 383 683 l 247 275 l 525 275 l 383 683 z "},"Ậ":{"ha":825,"x_min":0,"x_max":814,"o":"m 0 0 m 182 72 l 282 46 l 282 0 l 0 0 l 0 46 l 100 72 l 360 849 l 440 867 l 714 72 l 814 46 l 814 0 l 513 0 l 513 46 l 596 69 l 546 211 l 228 211 l 182 72 m 383 683 l 247 275 l 525 275 l 383 683 m 496 -140 q 471 -197 496 -174 q 413 -219 446 -219 q 354 -197 379 -219 q 329 -140 329 -174 q 354 -81 329 -106 q 413 -57 379 -57 q 471 -82 446 -57 q 496 -140 496 -107 m 569 904 l 408 1018 l 254 904 l 231 929 l 369 1111 l 453 1111 l 594 929 l 569 904 z "},"Ầ":{"ha":825,"x_min":0,"x_max":814,"o":"m 629 968 l 397 1206 l 406 1229 l 519 1229 l 657 986 l 629 968 m 542 904 l 381 1018 l 226 904 l 203 929 l 342 1111 l 425 1111 l 567 929 l 542 904 m 182 72 l 282 46 l 282 0 l 0 0 l 0 46 l 100 72 l 360 849 l 440 867 l 714 72 l 814 46 l 814 0 l 513 0 l 513 46 l 596 69 l 546 211 l 228 211 l 182 72 m 383 683 l 247 275 l 525 275 l 383 683 z "},"Ẩ":{"ha":825,"x_min":0,"x_max":814,"o":"m 0 0 m 182 72 l 282 46 l 282 0 l 0 0 l 0 46 l 100 72 l 360 849 l 440 867 l 714 72 l 814 46 l 814 0 l 513 0 l 513 46 l 596 69 l 546 211 l 228 211 l 182 72 m 383 683 l 247 275 l 525 275 l 383 683 m 569 904 l 408 1018 l 254 904 l 231 929 l 369 1111 l 453 1111 l 594 929 l 569 904 m 686 1161 q 600 1090 686 1104 l 592 1056 l 539 1056 l 533 1111 q 611 1156 611 1111 q 599 1183 611 1174 q 563 1193 586 1193 l 535 1192 l 524 1147 l 482 1147 l 474 1221 q 568 1229 525 1229 q 655 1212 624 1229 q 686 1161 686 1194 z "},"Ẫ":{"ha":825,"x_min":0,"x_max":814,"o":"m 0 0 m 182 72 l 282 46 l 282 0 l 0 0 l 0 46 l 100 72 l 360 849 l 440 867 l 714 72 l 814 46 l 814 0 l 513 0 l 513 46 l 596 69 l 546 211 l 228 211 l 182 72 m 383 683 l 247 275 l 525 275 l 383 683 m 569 904 l 408 1018 l 254 904 l 231 929 l 369 1111 l 453 1111 l 594 929 l 569 904 m 617 1251 q 568 1155 590 1188 q 515 1122 546 1122 q 415 1150 490 1122 q 318 1178 340 1178 q 290 1167 304 1178 q 267 1144 276 1156 q 256 1128 258 1132 l 214 1144 q 263 1242 240 1210 q 317 1275 286 1275 q 359 1267 332 1275 q 414 1247 386 1258 q 469 1228 442 1236 q 514 1219 497 1219 q 541 1231 528 1219 q 563 1253 554 1242 q 574 1268 572 1264 l 617 1251 z "},"Ȁ":{"ha":825,"x_min":0,"x_max":814,"o":"m 0 0 m 182 72 l 282 46 l 282 0 l 0 0 l 0 46 l 100 72 l 360 849 l 440 867 l 714 72 l 814 46 l 814 0 l 513 0 l 513 46 l 596 69 l 546 211 l 228 211 l 182 72 m 383 683 l 247 275 l 525 275 l 383 683 m 303 906 l 126 1088 l 126 1111 l 231 1111 l 335 926 l 303 906 m 528 906 l 350 1088 l 350 1111 l 454 1111 l 558 926 l 528 906 z "},"Ä":{"ha":825,"x_min":0,"x_max":814,"o":"m 342 1003 q 318 949 342 972 q 263 926 294 926 q 207 949 231 926 q 183 1003 183 972 q 207 1060 183 1036 q 263 1083 231 1083 q 318 1060 294 1083 q 342 1003 342 1036 m 613 1003 q 588 949 613 972 q 532 926 564 926 q 476 949 500 926 q 453 1003 453 972 q 476 1060 453 1036 q 532 1083 500 1083 q 588 1060 564 1083 q 613 1003 613 1036 m 182 72 l 282 46 l 282 0 l 0 0 l 0 46 l 100 72 l 360 849 l 440 867 l 714 72 l 814 46 l 814 0 l 513 0 l 513 46 l 596 69 l 546 211 l 228 211 l 182 72 m 383 683 l 247 275 l 525 275 l 383 683 z "},"Ạ":{"ha":825,"x_min":0,"x_max":814,"o":"m 0 0 m 182 72 l 282 46 l 282 0 l 0 0 l 0 46 l 100 72 l 360 849 l 440 867 l 714 72 l 814 46 l 814 0 l 513 0 l 513 46 l 596 69 l 546 211 l 228 211 l 182 72 m 383 683 l 247 275 l 525 275 l 383 683 m 496 -140 q 471 -197 496 -174 q 413 -219 446 -219 q 354 -197 379 -219 q 329 -140 329 -174 q 354 -81 329 -106 q 413 -57 379 -57 q 471 -82 446 -57 q 496 -140 496 -107 z "},"À":{"ha":825,"x_min":0,"x_max":814,"o":"m 503 900 l 203 1043 l 203 1068 l 310 1107 l 522 926 l 503 900 m 182 72 l 282 46 l 282 0 l 0 0 l 0 46 l 100 72 l 360 849 l 440 867 l 714 72 l 814 46 l 814 0 l 513 0 l 513 46 l 596 69 l 546 211 l 228 211 l 182 72 m 383 683 l 247 275 l 525 275 l 383 683 z "},"Ả":{"ha":825,"x_min":0,"x_max":814,"o":"m 0 0 m 182 72 l 282 46 l 282 0 l 0 0 l 0 46 l 100 72 l 360 849 l 440 867 l 714 72 l 814 46 l 814 0 l 513 0 l 513 46 l 596 69 l 546 211 l 228 211 l 182 72 m 383 683 l 247 275 l 525 275 l 383 683 m 547 1044 q 461 974 547 988 l 453 939 l 400 939 l 394 994 q 472 1039 472 994 q 460 1067 472 1057 q 424 1076 447 1076 l 396 1075 l 385 1031 l 343 1031 l 335 1104 q 429 1113 386 1113 q 516 1095 485 1113 q 547 1044 547 1078 z "},"Ȃ":{"ha":825,"x_min":0,"x_max":814,"o":"m 0 0 m 182 72 l 282 46 l 282 0 l 0 0 l 0 46 l 100 72 l 360 849 l 440 867 l 714 72 l 814 46 l 814 0 l 513 0 l 513 46 l 596 69 l 546 211 l 228 211 l 182 72 m 383 683 l 247 275 l 525 275 l 383 683 m 411 1092 q 538 1048 500 1092 q 575 933 575 1004 l 528 931 q 503 993 528 969 q 414 1017 479 1017 q 322 993 347 1017 q 296 931 296 969 l 250 933 q 411 1092 250 1092 z "},"Ā":{"ha":825,"x_min":0,"x_max":814,"o":"m 253 1040 l 554 1040 l 554 968 l 253 968 l 253 1040 m 182 72 l 282 46 l 282 0 l 0 0 l 0 46 l 100 72 l 360 849 l 440 867 l 714 72 l 814 46 l 814 0 l 513 0 l 513 46 l 596 69 l 546 211 l 228 211 l 182 72 m 383 683 l 247 275 l 525 275 l 383 683 z "},"Ą":{"ha":825,"x_min":0,"x_max":825,"o":"m 0 46 l 100 74 l 360 849 l 444 867 l 725 72 l 825 46 l 825 0 l 650 0 q 573 -28 607 0 q 521 -97 539 -57 q 503 -174 503 -137 q 524 -244 503 -219 q 579 -268 546 -268 q 649 -236 618 -268 l 671 -258 q 654 -279 671 -261 q 608 -312 638 -297 q 540 -328 579 -328 q 444 -292 476 -328 q 413 -210 413 -257 q 444 -99 413 -146 q 532 0 476 -53 q 575 45 561 28 q 589 78 589 63 q 585 100 589 86 l 546 211 l 233 211 l 189 74 l 288 46 l 288 0 l 0 0 l 0 46 m 386 678 l 253 275 l 525 275 l 386 678 z "},"Å":{"ha":825,"x_min":0,"x_max":814,"o":"m 400 879 q 297 916 333 879 q 260 1011 260 953 q 297 1105 260 1068 q 400 1142 333 1142 q 503 1105 467 1142 q 539 1011 539 1068 q 503 916 539 953 q 400 879 467 879 m 400 928 q 457 949 443 928 q 471 1011 471 969 q 457 1073 471 1051 q 400 1094 443 1094 q 344 1073 358 1094 q 329 1011 329 1051 q 344 949 329 969 q 400 928 358 928 m 0 0 l 0 46 l 100 72 l 360 849 l 440 867 l 714 72 l 814 46 l 814 0 l 513 0 l 513 46 l 596 69 l 546 211 l 228 211 l 182 72 l 282 46 l 282 0 l 0 0 m 247 275 l 525 275 l 383 683 l 247 275 z "},"Ǻ":{"ha":825,"x_min":0,"x_max":814,"o":"m 0 0 m 182 72 l 282 46 l 282 0 l 0 0 l 0 46 l 100 72 l 360 849 l 440 867 l 714 72 l 814 46 l 814 0 l 513 0 l 513 46 l 596 69 l 546 211 l 228 211 l 182 72 m 383 683 l 247 275 l 525 275 l 383 683 m 413 879 q 309 916 346 879 q 272 1011 272 953 q 309 1105 272 1068 q 413 1142 346 1142 q 515 1105 479 1142 q 551 1011 551 1068 q 515 916 551 953 q 413 879 479 879 m 413 928 q 469 949 456 928 q 483 1011 483 969 q 469 1073 483 1051 q 413 1094 456 1094 q 356 1073 371 1094 q 342 1011 342 1051 q 356 949 342 969 q 413 928 371 928 m 351 1154 l 329 1181 l 543 1361 l 649 1322 l 649 1297 l 351 1154 z "},"Ã":{"ha":825,"x_min":0,"x_max":814,"o":"m 606 1058 q 557 962 579 994 q 504 929 535 929 q 404 957 479 929 q 307 985 329 985 q 279 974 293 985 q 256 951 265 963 q 244 935 247 939 l 203 951 q 252 1049 229 1017 q 306 1082 275 1082 q 348 1074 321 1082 q 403 1054 375 1065 q 458 1035 431 1043 q 503 1026 486 1026 q 530 1038 517 1026 q 552 1060 543 1049 q 563 1075 561 1071 l 606 1058 m 182 72 l 282 46 l 282 0 l 0 0 l 0 46 l 100 72 l 360 849 l 440 867 l 714 72 l 814 46 l 814 0 l 513 0 l 513 46 l 596 69 l 546 211 l 228 211 l 182 72 m 383 683 l 247 275 l 525 275 l 383 683 z "},"Æ":{"ha":1022,"x_min":-19,"x_max":968,"o":"m -19 0 l -19 46 l 81 74 l 454 783 l 361 803 l 361 849 l 917 849 l 917 665 l 863 665 l 833 776 l 607 776 l 631 431 l 776 431 l 806 522 l 857 522 l 857 269 l 806 269 l 774 365 l 635 365 l 654 78 l 878 78 l 914 204 l 968 204 l 968 0 l 413 0 l 413 46 l 542 74 l 522 365 l 318 365 l 168 74 l 264 47 l 264 0 l -19 0 m 351 431 l 518 431 l 499 715 l 351 431 z "},"Ǽ":{"ha":1022,"x_min":-19,"x_max":968,"o":"m 0 0 m -19 0 l -19 46 l 81 74 l 454 783 l 361 803 l 361 849 l 917 849 l 917 665 l 863 665 l 833 776 l 607 776 l 631 431 l 776 431 l 806 522 l 857 522 l 857 269 l 806 269 l 774 365 l 635 365 l 654 78 l 878 78 l 914 204 l 968 204 l 968 0 l 413 0 l 413 46 l 542 74 l 522 365 l 318 365 l 168 74 l 264 47 l 264 0 l -19 0 m 351 431 l 518 431 l 499 715 l 351 431 m 447 903 l 425 929 l 639 1110 l 744 1071 l 744 1046 l 447 903 z "},"B":{"ha":775,"x_min":53,"x_max":699,"o":"m 486 449 q 699 235 699 406 q 617 65 699 129 q 393 0 535 0 l 53 0 l 53 46 l 178 74 l 178 775 l 53 803 l 53 849 l 385 849 q 601 794 532 849 q 669 647 669 739 q 623 515 669 565 q 486 449 576 465 m 358 472 q 499 513 449 472 q 550 635 550 553 q 502 750 550 711 q 379 789 454 789 q 293 776 346 789 l 293 472 l 358 472 m 293 68 q 376 57 331 57 q 519 101 464 57 q 575 242 575 146 q 517 372 575 328 q 350 415 460 415 l 293 415 l 293 68 z "},"C":{"ha":767,"x_min":57,"x_max":697,"o":"m 697 32 q 581 -1 638 10 q 450 -12 525 -12 q 153 110 250 -12 q 57 429 57 233 q 153 749 57 626 q 450 871 249 871 q 581 860 528 871 q 697 829 633 850 l 685 653 l 635 653 l 600 788 q 472 803 526 803 q 182 429 182 803 q 249 163 182 272 q 468 54 317 54 q 600 75 533 54 l 635 192 l 686 192 l 697 32 z "},"Ć":{"ha":731,"x_min":57,"x_max":697,"o":"m 315 903 l 293 929 l 507 1110 l 613 1071 l 613 1046 l 315 903 m 697 32 q 581 -1 638 10 q 450 -12 525 -12 q 153 110 250 -12 q 57 429 57 233 q 153 749 57 626 q 450 871 249 871 q 581 860 528 871 q 697 829 633 850 l 685 653 l 635 653 l 600 788 q 472 803 526 803 q 182 429 182 803 q 249 163 182 272 q 468 54 317 54 q 600 75 533 54 l 635 192 l 686 192 l 697 32 z "},"Č":{"ha":731,"x_min":57,"x_max":697,"o":"m 394 904 l 253 1086 l 276 1111 l 438 997 l 592 1111 l 617 1086 l 478 904 l 394 904 m 450 -12 q 153 110 250 -12 q 57 429 57 233 q 153 749 57 626 q 450 871 249 871 q 581 860 528 871 q 697 829 633 850 l 685 653 l 635 653 l 600 788 q 472 803 526 803 q 182 429 182 803 q 249 163 182 272 q 468 54 317 54 q 600 75 533 54 l 635 192 l 686 192 l 697 32 q 581 -1 638 10 q 450 -12 525 -12 z "},"Ç":{"ha":731,"x_min":57,"x_max":697,"o":"m 440 -12 l 424 -64 q 534 -92 496 -64 q 572 -161 572 -119 q 547 -233 572 -200 q 478 -285 521 -265 q 385 -304 435 -304 q 313 -293 344 -304 l 324 -258 q 372 -267 351 -267 q 451 -239 421 -267 q 482 -172 482 -211 q 456 -124 482 -143 q 375 -106 431 -106 l 371 -93 l 399 -10 q 141 126 225 6 q 57 429 57 246 q 153 749 57 626 q 450 871 249 871 q 581 860 528 871 q 697 829 633 850 l 685 653 l 635 653 l 600 788 q 472 803 526 803 q 182 429 182 803 q 249 163 182 272 q 468 54 317 54 q 600 75 533 54 l 635 192 l 686 192 l 697 32 q 581 -1 638 10 q 450 -12 525 -12 l 440 -12 z "},"Ĉ":{"ha":767,"x_min":57,"x_max":697,"o":"m 57 0 m 697 32 q 581 -1 638 10 q 450 -12 525 -12 q 153 110 250 -12 q 57 429 57 233 q 153 749 57 626 q 450 871 249 871 q 581 860 528 871 q 697 829 633 850 l 685 653 l 635 653 l 600 788 q 472 803 526 803 q 182 429 182 803 q 249 163 182 272 q 468 54 317 54 q 600 75 533 54 l 635 192 l 686 192 l 697 32 m 610 904 l 449 1018 l 294 904 l 271 929 l 410 1111 l 493 1111 l 635 929 l 610 904 z "},"Ċ":{"ha":767,"x_min":57,"x_max":697,"o":"m 57 0 m 697 32 q 581 -1 638 10 q 450 -12 525 -12 q 153 110 250 -12 q 57 429 57 233 q 153 749 57 626 q 450 871 249 871 q 581 860 528 871 q 697 829 633 850 l 685 653 l 635 653 l 600 788 q 472 803 526 803 q 182 429 182 803 q 249 163 182 272 q 468 54 317 54 q 600 75 533 54 l 635 192 l 686 192 l 697 32 m 536 1007 q 511 951 536 974 q 453 928 486 928 q 394 951 419 928 q 369 1007 369 974 q 394 1066 369 1042 q 453 1090 419 1090 q 511 1065 486 1090 q 536 1007 536 1040 z "},"D":{"ha":888,"x_min":53,"x_max":831,"o":"m 417 849 q 731 741 632 849 q 831 442 831 633 q 735 122 831 244 q 440 0 640 0 l 53 0 l 53 46 l 178 74 l 178 775 l 53 803 l 53 849 l 417 849 m 403 783 q 293 775 340 783 l 293 81 q 367 64 319 71 q 456 57 415 57 q 651 173 597 57 q 706 442 706 289 q 626 691 706 599 q 403 783 547 783 z "},"Ǳ":{"ha":1579,"x_min":53,"x_max":1518,"o":"m 53 0 m 417 849 q 731 741 632 849 q 831 442 831 633 q 735 122 831 244 q 440 0 640 0 l 53 0 l 53 46 l 178 74 l 178 775 l 53 803 l 53 849 l 417 849 m 403 783 q 293 775 340 783 l 293 81 q 367 64 319 71 q 456 57 415 57 q 651 173 597 57 q 706 442 706 289 q 626 691 706 599 q 403 783 547 783 m 1518 204 l 1503 0 l 944 0 l 919 46 l 1374 775 l 1044 775 l 1014 665 l 961 665 l 949 849 l 1507 849 l 1514 804 l 1064 75 l 1413 75 l 1464 204 l 1518 204 z "},"Ǆ":{"ha":1579,"x_min":53,"x_max":1518,"o":"m 53 0 m 417 849 q 731 741 632 849 q 831 442 831 633 q 735 122 831 244 q 440 0 640 0 l 53 0 l 53 46 l 178 74 l 178 775 l 53 803 l 53 849 l 417 849 m 403 783 q 293 775 340 783 l 293 81 q 367 64 319 71 q 456 57 415 57 q 651 173 597 57 q 706 442 706 289 q 626 691 706 599 q 403 783 547 783 m 1518 204 l 1503 0 l 944 0 l 919 46 l 1374 775 l 1044 775 l 1014 665 l 961 665 l 949 849 l 1507 849 l 1514 804 l 1064 75 l 1413 75 l 1464 204 l 1518 204 m 1179 904 l 1038 1086 l 1061 1111 l 1222 997 l 1376 1111 l 1401 1086 l 1263 904 l 1179 904 z "},"Ð":{"ha":888,"x_min":53,"x_max":831,"o":"m 53 46 l 178 74 l 178 385 l 57 385 l 57 449 l 178 449 l 178 775 l 53 803 l 53 849 l 417 849 q 731 741 632 849 q 831 442 831 633 q 735 122 831 244 q 440 0 640 0 l 53 0 l 53 46 m 456 57 q 651 173 597 57 q 706 442 706 289 q 626 691 706 599 q 403 783 547 783 q 293 775 340 783 l 293 449 l 449 449 l 449 385 l 293 385 l 293 81 q 367 64 319 71 q 456 57 415 57 z "},"Ď":{"ha":875,"x_min":53,"x_max":831,"o":"m 394 904 l 253 1086 l 276 1111 l 438 997 l 592 1111 l 617 1086 l 478 904 l 394 904 m 53 46 l 178 74 l 178 775 l 53 803 l 53 849 l 417 849 q 731 741 632 849 q 831 442 831 633 q 735 122 831 244 q 440 0 640 0 l 53 0 l 53 46 m 456 57 q 651 173 597 57 q 706 442 706 289 q 626 691 706 599 q 403 783 547 783 q 293 775 340 783 l 293 81 q 367 64 319 71 q 456 57 415 57 z "},"Đ":{"ha":888,"x_min":53,"x_max":831,"o":"m 53 0 m 53 46 l 178 74 l 178 385 l 57 385 l 57 449 l 178 449 l 178 775 l 53 803 l 53 849 l 417 849 q 731 741 632 849 q 831 442 831 633 q 735 122 831 244 q 440 0 640 0 l 53 0 l 53 46 m 456 57 q 651 173 597 57 q 706 442 706 289 q 626 691 706 599 q 403 783 547 783 q 293 775 340 783 l 293 449 l 449 449 l 449 385 l 293 385 l 293 81 q 367 64 319 71 q 456 57 415 57 z "},"Ḍ":{"ha":888,"x_min":53,"x_max":831,"o":"m 53 0 m 417 849 q 731 741 632 849 q 831 442 831 633 q 735 122 831 244 q 440 0 640 0 l 53 0 l 53 46 l 178 74 l 178 775 l 53 803 l 53 849 l 417 849 m 403 783 q 293 775 340 783 l 293 81 q 367 64 319 71 q 456 57 415 57 q 651 173 597 57 q 706 442 706 289 q 626 691 706 599 q 403 783 547 783 m 528 -140 q 503 -197 528 -174 q 444 -219 478 -219 q 386 -197 411 -219 q 361 -140 361 -174 q 386 -81 361 -106 q 444 -57 411 -57 q 503 -82 478 -57 q 528 -140 528 -107 z "},"ǲ":{"ha":1526,"x_min":53,"x_max":1474,"o":"m 53 0 m 417 849 q 731 741 632 849 q 831 442 831 633 q 735 122 831 244 q 440 0 640 0 l 53 0 l 53 46 l 178 74 l 178 775 l 53 803 l 53 849 l 417 849 m 403 783 q 293 775 340 783 l 293 81 q 367 64 319 71 q 456 57 415 57 q 651 173 597 57 q 706 442 706 289 q 626 691 706 599 q 403 783 547 783 m 1322 608 l 1046 608 l 1024 503 l 972 503 l 954 682 l 1450 682 l 1474 636 l 1082 71 l 1372 71 l 1415 181 l 1464 181 l 1451 0 l 960 0 l 938 47 l 1322 608 z "},"ǅ":{"ha":1526,"x_min":53,"x_max":1474,"o":"m 53 0 m 417 849 q 731 741 632 849 q 831 442 831 633 q 735 122 831 244 q 440 0 640 0 l 53 0 l 53 46 l 178 74 l 178 775 l 53 803 l 53 849 l 417 849 m 403 783 q 293 775 340 783 l 293 81 q 367 64 319 71 q 456 57 415 57 q 651 173 597 57 q 706 442 706 289 q 626 691 706 599 q 403 783 547 783 m 1322 608 l 1046 608 l 1024 503 l 972 503 l 954 682 l 1450 682 l 1474 636 l 1082 71 l 1372 71 l 1415 181 l 1464 181 l 1451 0 l 960 0 l 938 47 l 1322 608 m 1058 993 l 1208 868 l 1357 993 l 1386 968 l 1250 775 l 1167 775 l 1028 968 l 1058 993 z "},"E":{"ha":756,"x_min":54,"x_max":692,"o":"m 532 540 l 582 540 l 582 289 l 532 289 l 499 385 l 301 385 l 301 78 l 601 78 l 638 204 l 692 204 l 692 0 l 54 0 l 54 46 l 186 74 l 186 775 l 54 803 l 54 849 l 657 849 l 657 665 l 603 665 l 574 776 l 301 776 l 301 449 l 503 449 l 532 540 z "},"É":{"ha":756,"x_min":54,"x_max":692,"o":"m 290 903 l 268 929 l 482 1110 l 588 1071 l 588 1046 l 290 903 m 54 0 l 54 46 l 186 74 l 186 775 l 54 803 l 54 849 l 657 849 l 657 665 l 603 665 l 574 776 l 301 776 l 301 449 l 503 449 l 532 540 l 582 540 l 582 289 l 532 289 l 499 385 l 301 385 l 301 78 l 601 78 l 638 204 l 692 204 l 692 0 l 54 0 z "},"Ĕ":{"ha":756,"x_min":54,"x_max":692,"o":"m 54 0 m 532 540 l 582 540 l 582 289 l 532 289 l 499 385 l 301 385 l 301 78 l 601 78 l 638 204 l 692 204 l 692 0 l 54 0 l 54 46 l 186 74 l 186 775 l 54 803 l 54 849 l 657 849 l 657 665 l 603 665 l 574 776 l 301 776 l 301 449 l 503 449 l 532 540 m 379 924 q 253 967 290 924 q 215 1082 215 1011 l 263 1085 q 287 1022 263 1046 q 376 999 311 999 q 469 1022 443 999 q 494 1085 494 1046 l 540 1082 q 379 924 540 924 z "},"Ě":{"ha":756,"x_min":54,"x_max":692,"o":"m 357 904 l 215 1086 l 239 1111 l 400 997 l 554 1111 l 579 1086 l 440 904 l 357 904 m 54 0 l 54 46 l 186 74 l 186 775 l 54 803 l 54 849 l 657 849 l 657 665 l 603 665 l 574 776 l 301 776 l 301 449 l 503 449 l 532 540 l 582 540 l 582 289 l 532 289 l 499 385 l 301 385 l 301 78 l 601 78 l 638 204 l 692 204 l 692 0 l 54 0 z "},"Ê":{"ha":756,"x_min":54,"x_max":692,"o":"m 546 904 l 385 1018 l 231 904 l 207 929 l 346 1111 l 429 1111 l 571 929 l 546 904 m 532 540 l 582 540 l 582 289 l 532 289 l 499 385 l 301 385 l 301 78 l 601 78 l 638 204 l 692 204 l 692 0 l 54 0 l 54 46 l 186 74 l 186 775 l 54 803 l 54 849 l 657 849 l 657 665 l 603 665 l 574 776 l 301 776 l 301 449 l 503 449 l 532 540 z "},"Ế":{"ha":756,"x_min":54,"x_max":771,"o":"m 539 968 l 511 986 l 649 1229 l 763 1229 l 771 1206 l 539 968 m 507 904 l 346 1018 l 192 904 l 168 929 l 307 1111 l 390 1111 l 532 929 l 507 904 m 532 540 l 582 540 l 582 289 l 532 289 l 499 385 l 301 385 l 301 78 l 601 78 l 638 204 l 692 204 l 692 0 l 54 0 l 54 46 l 186 74 l 186 775 l 54 803 l 54 849 l 657 849 l 657 665 l 603 665 l 574 776 l 301 776 l 301 449 l 503 449 l 532 540 z "},"Ệ":{"ha":756,"x_min":54,"x_max":692,"o":"m 54 0 m 532 540 l 582 540 l 582 289 l 532 289 l 499 385 l 301 385 l 301 78 l 601 78 l 638 204 l 692 204 l 692 0 l 54 0 l 54 46 l 186 74 l 186 775 l 54 803 l 54 849 l 657 849 l 657 665 l 603 665 l 574 776 l 301 776 l 301 449 l 503 449 l 532 540 m 461 -140 q 436 -197 461 -174 q 378 -219 411 -219 q 319 -197 344 -219 q 294 -140 294 -174 q 319 -81 294 -106 q 378 -57 344 -57 q 436 -82 411 -57 q 461 -140 461 -107 m 535 904 l 374 1018 l 219 904 l 196 929 l 335 1111 l 418 1111 l 560 929 l 535 904 z "},"Ề":{"ha":756,"x_min":54,"x_max":692,"o":"m 594 968 l 363 1206 l 371 1229 l 485 1229 l 622 986 l 594 968 m 507 904 l 346 1018 l 192 904 l 168 929 l 307 1111 l 390 1111 l 532 929 l 507 904 m 532 540 l 582 540 l 582 289 l 532 289 l 499 385 l 301 385 l 301 78 l 601 78 l 638 204 l 692 204 l 692 0 l 54 0 l 54 46 l 186 74 l 186 775 l 54 803 l 54 849 l 657 849 l 657 665 l 603 665 l 574 776 l 301 776 l 301 449 l 503 449 l 532 540 z "},"Ể":{"ha":756,"x_min":54,"x_max":692,"o":"m 54 0 m 532 540 l 582 540 l 582 289 l 532 289 l 499 385 l 301 385 l 301 78 l 601 78 l 638 204 l 692 204 l 692 0 l 54 0 l 54 46 l 186 74 l 186 775 l 54 803 l 54 849 l 657 849 l 657 665 l 603 665 l 574 776 l 301 776 l 301 449 l 503 449 l 532 540 m 535 904 l 374 1018 l 219 904 l 196 929 l 335 1111 l 418 1111 l 560 929 l 535 904 m 651 1161 q 565 1090 651 1104 l 557 1056 l 504 1056 l 499 1111 q 576 1156 576 1111 q 564 1183 576 1174 q 528 1193 551 1193 l 500 1192 l 489 1147 l 447 1147 l 439 1221 q 533 1229 490 1229 q 620 1212 589 1229 q 651 1161 651 1194 z "},"Ễ":{"ha":756,"x_min":54,"x_max":692,"o":"m 54 0 m 532 540 l 582 540 l 582 289 l 532 289 l 499 385 l 301 385 l 301 78 l 601 78 l 638 204 l 692 204 l 692 0 l 54 0 l 54 46 l 186 74 l 186 775 l 54 803 l 54 849 l 657 849 l 657 665 l 603 665 l 574 776 l 301 776 l 301 449 l 503 449 l 532 540 m 535 904 l 374 1018 l 219 904 l 196 929 l 335 1111 l 418 1111 l 560 929 l 535 904 m 582 1251 q 533 1155 556 1188 q 481 1122 511 1122 q 381 1150 456 1122 q 283 1178 306 1178 q 256 1167 269 1178 q 233 1144 242 1156 q 221 1128 224 1132 l 179 1144 q 228 1242 206 1210 q 282 1275 251 1275 q 324 1267 297 1275 q 379 1247 351 1258 q 435 1228 407 1236 q 479 1219 463 1219 q 506 1231 493 1219 q 528 1253 519 1242 q 539 1268 538 1264 l 582 1251 z "},"Ȅ":{"ha":756,"x_min":54,"x_max":692,"o":"m 54 0 m 532 540 l 582 540 l 582 289 l 532 289 l 499 385 l 301 385 l 301 78 l 601 78 l 638 204 l 692 204 l 692 0 l 54 0 l 54 46 l 186 74 l 186 775 l 54 803 l 54 849 l 657 849 l 657 665 l 603 665 l 574 776 l 301 776 l 301 449 l 503 449 l 532 540 m 268 906 l 92 1088 l 92 1111 l 196 1111 l 300 926 l 268 906 m 493 906 l 315 1088 l 315 1111 l 419 1111 l 524 926 l 493 906 z "},"Ë":{"ha":756,"x_min":54,"x_max":692,"o":"m 339 1003 q 315 949 339 972 q 260 926 292 926 q 204 949 228 926 q 181 1003 181 972 q 204 1060 181 1036 q 260 1083 228 1083 q 315 1060 292 1083 q 339 1003 339 1036 m 610 1003 q 585 949 610 972 q 529 926 561 926 q 474 949 497 926 q 450 1003 450 972 q 474 1060 450 1036 q 529 1083 497 1083 q 585 1060 561 1083 q 610 1003 610 1036 m 532 540 l 582 540 l 582 289 l 532 289 l 499 385 l 301 385 l 301 78 l 601 78 l 638 204 l 692 204 l 692 0 l 54 0 l 54 46 l 186 74 l 186 775 l 54 803 l 54 849 l 657 849 l 657 665 l 603 665 l 574 776 l 301 776 l 301 449 l 503 449 l 532 540 z "},"Ė":{"ha":756,"x_min":54,"x_max":692,"o":"m 494 1007 q 469 951 494 974 q 411 928 444 928 q 353 951 378 928 q 328 1007 328 974 q 353 1066 328 1042 q 411 1090 378 1090 q 469 1065 444 1090 q 494 1007 494 1040 m 532 540 l 582 540 l 582 289 l 532 289 l 499 385 l 301 385 l 301 78 l 601 78 l 638 204 l 692 204 l 692 0 l 54 0 l 54 46 l 186 74 l 186 775 l 54 803 l 54 849 l 657 849 l 657 665 l 603 665 l 574 776 l 301 776 l 301 449 l 503 449 l 532 540 z "},"Ẹ":{"ha":756,"x_min":54,"x_max":692,"o":"m 54 0 m 532 540 l 582 540 l 582 289 l 532 289 l 499 385 l 301 385 l 301 78 l 601 78 l 638 204 l 692 204 l 692 0 l 54 0 l 54 46 l 186 74 l 186 775 l 54 803 l 54 849 l 657 849 l 657 665 l 603 665 l 574 776 l 301 776 l 301 449 l 503 449 l 532 540 m 461 -140 q 436 -197 461 -174 q 378 -219 411 -219 q 319 -197 344 -219 q 294 -140 294 -174 q 319 -81 294 -106 q 378 -57 344 -57 q 436 -82 411 -57 q 461 -140 461 -107 z "},"È":{"ha":756,"x_min":54,"x_max":692,"o":"m 538 903 l 238 1046 l 238 1071 l 344 1110 l 557 929 l 538 903 m 54 0 l 54 46 l 186 74 l 186 775 l 54 803 l 54 849 l 657 849 l 657 665 l 603 665 l 574 776 l 301 776 l 301 449 l 503 449 l 532 540 l 582 540 l 582 289 l 532 289 l 499 385 l 301 385 l 301 78 l 601 78 l 638 204 l 692 204 l 692 0 l 54 0 z "},"Ẻ":{"ha":756,"x_min":54,"x_max":692,"o":"m 54 0 m 532 540 l 582 540 l 582 289 l 532 289 l 499 385 l 301 385 l 301 78 l 601 78 l 638 204 l 692 204 l 692 0 l 54 0 l 54 46 l 186 74 l 186 775 l 54 803 l 54 849 l 657 849 l 657 665 l 603 665 l 574 776 l 301 776 l 301 449 l 503 449 l 532 540 m 513 1044 q 426 974 513 988 l 418 939 l 365 939 l 360 994 q 438 1039 438 994 q 425 1067 438 1057 q 389 1076 413 1076 l 361 1075 l 350 1031 l 308 1031 l 300 1104 q 394 1113 351 1113 q 481 1095 450 1113 q 513 1044 513 1078 z "},"Ȇ":{"ha":756,"x_min":54,"x_max":692,"o":"m 54 0 m 532 540 l 582 540 l 582 289 l 532 289 l 499 385 l 301 385 l 301 78 l 601 78 l 638 204 l 692 204 l 692 0 l 54 0 l 54 46 l 186 74 l 186 775 l 54 803 l 54 849 l 657 849 l 657 665 l 603 665 l 574 776 l 301 776 l 301 449 l 503 449 l 532 540 m 376 1092 q 503 1048 465 1092 q 540 933 540 1004 l 493 931 q 469 993 493 969 q 379 1017 444 1017 q 287 993 313 1017 q 261 931 261 969 l 215 933 q 376 1092 215 1092 z "},"Ē":{"ha":756,"x_min":54,"x_max":692,"o":"m 239 1040 l 540 1040 l 540 968 l 239 968 l 239 1040 m 532 540 l 582 540 l 582 289 l 532 289 l 499 385 l 301 385 l 301 78 l 601 78 l 638 204 l 692 204 l 692 0 l 54 0 l 54 46 l 186 74 l 186 775 l 54 803 l 54 849 l 657 849 l 657 665 l 603 665 l 574 776 l 301 776 l 301 449 l 503 449 l 532 540 z "},"Ę":{"ha":756,"x_min":54,"x_max":715,"o":"m 585 -328 q 487 -294 519 -328 q 454 -210 454 -260 q 486 -108 454 -162 q 585 0 518 -53 l 54 0 l 54 46 l 186 74 l 186 775 l 54 803 l 54 849 l 657 849 l 657 665 l 603 665 l 574 776 l 301 776 l 301 449 l 503 449 l 532 540 l 582 540 l 582 289 l 532 289 l 499 385 l 301 385 l 301 78 l 601 78 l 638 204 l 692 204 l 692 0 l 632 0 q 572 -86 597 -36 q 547 -185 547 -136 q 567 -245 547 -224 q 624 -267 588 -267 q 693 -236 663 -267 l 715 -258 q 699 -279 715 -261 q 653 -312 682 -297 q 585 -328 624 -328 z "},"Ẽ":{"ha":756,"x_min":54,"x_max":692,"o":"m 603 1100 q 554 1003 576 1036 q 501 971 532 971 q 401 999 476 971 q 304 1026 326 1026 q 276 1015 290 1026 q 253 992 263 1004 q 242 976 244 981 l 200 993 q 249 1091 226 1058 q 303 1124 272 1124 q 345 1115 318 1124 q 400 1096 372 1107 q 456 1076 428 1085 q 500 1068 483 1068 q 527 1079 514 1068 q 549 1101 540 1090 q 560 1117 558 1113 l 603 1100 m 532 540 l 582 540 l 582 289 l 532 289 l 499 385 l 301 385 l 301 78 l 601 78 l 638 204 l 692 204 l 692 0 l 54 0 l 54 46 l 186 74 l 186 775 l 54 803 l 54 849 l 657 849 l 657 665 l 603 665 l 574 776 l 301 776 l 301 449 l 503 449 l 532 540 z "},"F":{"ha":692,"x_min":53,"x_max":657,"o":"m 657 849 l 657 665 l 603 665 l 574 776 l 301 776 l 301 435 l 503 435 l 532 526 l 582 526 l 582 275 l 532 275 l 499 371 l 301 371 l 301 75 l 458 47 l 458 0 l 53 0 l 53 46 l 185 74 l 185 775 l 53 803 l 53 849 l 657 849 z "},"G":{"ha":833,"x_min":57,"x_max":819,"o":"m 622 788 q 481 803 558 803 q 248 692 314 803 q 182 429 182 581 q 248 165 182 279 q 476 51 314 51 q 606 78 553 51 l 606 325 l 482 353 l 482 400 l 819 400 l 819 353 l 721 325 l 721 43 q 471 -15 624 -15 q 156 108 254 -15 q 57 429 57 231 q 158 749 57 628 q 481 871 260 871 q 614 860 543 871 q 728 829 685 850 l 708 653 l 656 653 l 622 788 z "},"Ǵ":{"ha":833,"x_min":57,"x_max":819,"o":"m 57 0 m 622 788 q 481 803 558 803 q 248 692 314 803 q 182 429 182 581 q 248 165 182 279 q 476 51 314 51 q 606 78 553 51 l 606 325 l 482 353 l 482 400 l 819 400 l 819 353 l 721 325 l 721 43 q 471 -15 624 -15 q 156 108 254 -15 q 57 429 57 231 q 158 749 57 628 q 481 871 260 871 q 614 860 543 871 q 728 829 685 850 l 708 653 l 656 653 l 622 788 m 353 903 l 331 929 l 544 1110 l 650 1071 l 650 1046 l 353 903 z "},"Ğ":{"ha":807,"x_min":57,"x_max":819,"o":"m 446 924 q 319 967 357 924 q 282 1082 282 1011 l 329 1085 q 353 1022 329 1046 q 443 999 378 999 q 535 1022 510 999 q 561 1085 561 1046 l 607 1082 q 446 924 607 924 m 622 788 q 481 803 558 803 q 248 692 314 803 q 182 429 182 581 q 248 165 182 279 q 476 51 314 51 q 606 78 553 51 l 606 325 l 482 353 l 482 400 l 819 400 l 819 353 l 721 325 l 721 43 q 471 -15 624 -15 q 156 108 254 -15 q 57 429 57 231 q 158 749 57 628 q 481 871 260 871 q 614 860 543 871 q 728 829 685 850 l 708 653 l 656 653 l 622 788 z "},"Ǧ":{"ha":833,"x_min":57,"x_max":819,"o":"m 57 0 m 622 788 q 481 803 558 803 q 248 692 314 803 q 182 429 182 581 q 248 165 182 279 q 476 51 314 51 q 606 78 553 51 l 606 325 l 482 353 l 482 400 l 819 400 l 819 353 l 721 325 l 721 43 q 471 -15 624 -15 q 156 108 254 -15 q 57 429 57 231 q 158 749 57 628 q 481 871 260 871 q 614 860 543 871 q 728 829 685 850 l 708 653 l 656 653 l 622 788 m 376 904 l 235 1086 l 258 1111 l 419 997 l 574 1111 l 599 1086 l 460 904 l 376 904 z "},"Ĝ":{"ha":833,"x_min":57,"x_max":819,"o":"m 57 0 m 622 788 q 481 803 558 803 q 248 692 314 803 q 182 429 182 581 q 248 165 182 279 q 476 51 314 51 q 606 78 553 51 l 606 325 l 482 353 l 482 400 l 819 400 l 819 353 l 721 325 l 721 43 q 471 -15 624 -15 q 156 108 254 -15 q 57 429 57 231 q 158 749 57 628 q 481 871 260 871 q 614 860 543 871 q 728 829 685 850 l 708 653 l 656 653 l 622 788 m 574 904 l 413 1018 l 258 904 l 235 929 l 374 1111 l 457 1111 l 599 929 l 574 904 z "},"Ģ":{"ha":807,"x_min":57,"x_max":819,"o":"m 471 -15 q 156 108 254 -15 q 57 429 57 231 q 158 749 57 628 q 481 871 260 871 q 614 860 543 871 q 728 829 685 850 l 708 653 l 656 653 l 622 788 q 481 803 558 803 q 248 692 314 803 q 182 429 182 581 q 248 165 182 279 q 476 51 314 51 q 606 78 553 51 l 606 325 l 482 353 l 482 400 l 819 400 l 819 353 l 721 325 l 721 43 q 471 -15 624 -15 m 385 -307 l 404 -60 l 501 -39 l 519 -58 l 431 -307 l 385 -307 z "},"Ġ":{"ha":833,"x_min":57,"x_max":819,"o":"m 57 0 m 622 788 q 481 803 558 803 q 248 692 314 803 q 182 429 182 581 q 248 165 182 279 q 476 51 314 51 q 606 78 553 51 l 606 325 l 482 353 l 482 400 l 819 400 l 819 353 l 721 325 l 721 43 q 471 -15 624 -15 q 156 108 254 -15 q 57 429 57 231 q 158 749 57 628 q 481 871 260 871 q 614 860 543 871 q 728 829 685 850 l 708 653 l 656 653 l 622 788 m 500 1007 q 475 951 500 974 q 417 928 450 928 q 358 951 383 928 q 333 1007 333 974 q 358 1066 333 1042 q 417 1090 383 1090 q 475 1065 450 1090 q 500 1007 500 1040 z "},"H":{"ha":1004,"x_min":54,"x_max":953,"o":"m 54 0 l 54 46 l 178 74 l 178 776 l 54 803 l 54 849 l 417 849 l 417 803 l 293 776 l 293 457 l 713 457 l 713 776 l 589 803 l 589 849 l 951 849 l 951 803 l 828 776 l 828 74 l 953 46 l 953 0 l 589 0 l 589 46 l 713 74 l 713 389 l 293 389 l 293 74 l 417 46 l 417 0 l 54 0 z "},"Ħ":{"ha":1004,"x_min":54,"x_max":953,"o":"m 828 74 l 953 46 l 953 0 l 589 0 l 589 46 l 713 74 l 713 347 l 293 347 l 293 74 l 417 46 l 417 0 l 54 0 l 54 46 l 178 74 l 178 546 l 58 546 l 58 610 l 178 610 l 178 776 l 54 803 l 54 849 l 417 849 l 417 803 l 293 776 l 293 610 l 713 610 l 713 776 l 589 803 l 589 849 l 951 849 l 951 803 l 828 776 l 828 610 l 947 610 l 947 546 l 828 546 l 828 74 m 293 415 l 713 415 l 713 546 l 293 546 l 293 415 z "},"Ĥ":{"ha":1004,"x_min":54,"x_max":953,"o":"m 54 0 m 54 0 l 54 46 l 178 74 l 178 776 l 54 803 l 54 849 l 417 849 l 417 803 l 293 776 l 293 457 l 713 457 l 713 776 l 589 803 l 589 849 l 951 849 l 951 803 l 828 776 l 828 74 l 953 46 l 953 0 l 589 0 l 589 46 l 713 74 l 713 389 l 293 389 l 293 74 l 417 46 l 417 0 l 54 0 m 660 904 l 499 1018 l 344 904 l 321 929 l 460 1111 l 543 1111 l 685 929 l 660 904 z "},"Ḥ":{"ha":1004,"x_min":54,"x_max":953,"o":"m 54 0 m 54 0 l 54 46 l 178 74 l 178 776 l 54 803 l 54 849 l 417 849 l 417 803 l 293 776 l 293 457 l 713 457 l 713 776 l 589 803 l 589 849 l 951 849 l 951 803 l 828 776 l 828 74 l 953 46 l 953 0 l 589 0 l 589 46 l 713 74 l 713 389 l 293 389 l 293 74 l 417 46 l 417 0 l 54 0 m 586 -140 q 561 -197 586 -174 q 503 -219 536 -219 q 444 -197 469 -219 q 419 -140 419 -174 q 444 -81 419 -106 q 503 -57 469 -57 q 561 -82 536 -57 q 586 -140 586 -107 z "},"I":{"ha":471,"x_min":53,"x_max":418,"o":"m 53 0 l 53 46 l 178 74 l 178 775 l 53 803 l 53 849 l 418 849 l 418 803 l 293 775 l 293 74 l 418 46 l 418 0 l 53 0 z "},"Ĳ":{"ha":864,"x_min":53,"x_max":846,"o":"m 53 0 m 53 0 l 53 46 l 178 74 l 178 775 l 53 803 l 53 849 l 418 849 l 418 803 l 293 775 l 293 74 l 418 46 l 418 0 l 53 0 m 535 -207 q 396 -169 453 -207 l 401 -131 l 504 -131 q 587 -87 565 -131 q 608 42 608 -43 l 608 775 l 485 803 l 485 849 l 846 849 l 846 803 l 724 775 l 724 88 q 678 -142 724 -78 q 535 -207 632 -207 z "},"Í":{"ha":471,"x_min":53,"x_max":418,"o":"m 101 903 l 79 929 l 293 1110 l 399 1071 l 399 1046 l 101 903 m 53 0 l 53 46 l 178 74 l 178 775 l 53 803 l 53 849 l 418 849 l 418 803 l 293 775 l 293 74 l 418 46 l 418 0 l 53 0 z "},"Ĭ":{"ha":471,"x_min":53,"x_max":418,"o":"m 53 0 m 53 0 l 53 46 l 178 74 l 178 775 l 53 803 l 53 849 l 418 849 l 418 803 l 293 775 l 293 74 l 418 46 l 418 0 l 53 0 m 238 924 q 111 967 149 924 q 74 1082 74 1011 l 121 1085 q 145 1022 121 1046 q 235 999 169 999 q 327 1022 301 999 q 353 1085 353 1046 l 399 1082 q 238 924 399 924 z "},"Ǐ":{"ha":471,"x_min":53,"x_max":418,"o":"m 53 0 m 53 0 l 53 46 l 178 74 l 178 775 l 53 803 l 53 849 l 418 849 l 418 803 l 293 775 l 293 74 l 418 46 l 418 0 l 53 0 m 196 904 l 54 1086 l 78 1111 l 239 997 l 393 1111 l 418 1086 l 279 904 l 196 904 z "},"Î":{"ha":471,"x_min":53,"x_max":418,"o":"m 76 904 l 53 929 l 192 1111 l 275 1111 l 417 929 l 392 904 l 231 1018 l 76 904 m 53 0 l 53 46 l 178 74 l 178 775 l 53 803 l 53 849 l 418 849 l 418 803 l 293 775 l 293 74 l 418 46 l 418 0 l 53 0 z "},"Ȉ":{"ha":471,"x_min":-50,"x_max":418,"o":"m 0 0 m 53 0 l 53 46 l 178 74 l 178 775 l 53 803 l 53 849 l 418 849 l 418 803 l 293 775 l 293 74 l 418 46 l 418 0 l 53 0 m 126 906 l -50 1088 l -50 1111 l 54 1111 l 158 926 l 126 906 m 351 906 l 174 1088 l 174 1111 l 278 1111 l 382 926 l 351 906 z "},"Ï":{"ha":471,"x_min":22,"x_max":451,"o":"m 101 926 q 46 949 69 926 q 22 1003 22 972 q 46 1060 22 1036 q 101 1083 69 1083 q 157 1060 133 1083 q 181 1003 181 1036 q 157 949 181 972 q 101 926 133 926 m 371 926 q 315 949 339 926 q 292 1003 292 972 q 315 1060 292 1036 q 371 1083 339 1083 q 427 1060 403 1083 q 451 1003 451 1036 q 427 949 451 972 q 371 926 403 926 m 53 0 l 53 46 l 178 74 l 178 775 l 53 803 l 53 849 l 418 849 l 418 803 l 293 775 l 293 74 l 418 46 l 418 0 l 53 0 z "},"İ":{"ha":471,"x_min":53,"x_max":418,"o":"m 235 928 q 176 951 201 928 q 151 1007 151 974 q 176 1066 151 1042 q 235 1090 201 1090 q 293 1065 268 1090 q 318 1007 318 1040 q 293 951 318 974 q 235 928 268 928 m 53 0 l 53 46 l 178 74 l 178 775 l 53 803 l 53 849 l 418 849 l 418 803 l 293 775 l 293 74 l 418 46 l 418 0 l 53 0 z "},"Ị":{"ha":471,"x_min":53,"x_max":418,"o":"m 53 0 m 53 0 l 53 46 l 178 74 l 178 775 l 53 803 l 53 849 l 418 849 l 418 803 l 293 775 l 293 74 l 418 46 l 418 0 l 53 0 m 319 -140 q 294 -197 319 -174 q 236 -219 269 -219 q 178 -197 203 -219 q 153 -140 153 -174 q 178 -81 153 -106 q 236 -57 203 -57 q 294 -82 269 -57 q 319 -140 319 -107 z "},"Ì":{"ha":471,"x_min":53,"x_max":418,"o":"m 374 903 l 74 1046 l 74 1071 l 181 1110 l 393 929 l 374 903 m 53 0 l 53 46 l 178 74 l 178 775 l 53 803 l 53 849 l 418 849 l 418 803 l 293 775 l 293 74 l 418 46 l 418 0 l 53 0 z "},"Ỉ":{"ha":471,"x_min":53,"x_max":418,"o":"m 53 0 m 53 0 l 53 46 l 178 74 l 178 775 l 53 803 l 53 849 l 418 849 l 418 803 l 293 775 l 293 74 l 418 46 l 418 0 l 53 0 m 371 1044 q 285 974 371 988 l 276 939 l 224 939 l 218 994 q 296 1039 296 994 q 283 1067 296 1057 q 247 1076 271 1076 l 219 1075 l 208 1031 l 167 1031 l 158 1104 q 253 1113 210 1113 q 340 1095 308 1113 q 371 1044 371 1078 z "},"Ȋ":{"ha":471,"x_min":53,"x_max":418,"o":"m 53 0 m 53 0 l 53 46 l 178 74 l 178 775 l 53 803 l 53 849 l 418 849 l 418 803 l 293 775 l 293 74 l 418 46 l 418 0 l 53 0 m 235 1092 q 361 1048 324 1092 q 399 933 399 1004 l 351 931 q 327 993 351 969 q 238 1017 303 1017 q 145 993 171 1017 q 119 931 119 969 l 74 933 q 235 1092 74 1092 z "},"Ī":{"ha":471,"x_min":53,"x_max":418,"o":"m 85 968 l 85 1040 l 386 1040 l 386 968 l 85 968 m 53 0 l 53 46 l 178 74 l 178 775 l 53 803 l 53 849 l 418 849 l 418 803 l 293 775 l 293 74 l 418 46 l 418 0 l 53 0 z "},"Į":{"ha":471,"x_min":53,"x_max":418,"o":"m 288 -328 q 189 -294 222 -328 q 156 -210 156 -260 q 197 -94 156 -151 q 310 0 239 -37 l 53 0 l 53 46 l 178 74 l 178 775 l 53 803 l 53 849 l 418 849 l 418 803 l 293 775 l 293 74 l 418 46 l 418 0 q 290 -74 329 -24 q 250 -185 250 -124 q 270 -245 250 -224 q 325 -267 290 -267 q 394 -236 365 -267 l 418 -258 q 401 -279 418 -261 q 356 -312 385 -297 q 288 -328 326 -328 z "},"Ĩ":{"ha":471,"x_min":35,"x_max":438,"o":"m 336 971 q 236 999 311 971 q 139 1026 161 1026 q 111 1015 125 1026 q 88 992 97 1004 q 76 976 79 981 l 35 993 q 84 1091 61 1058 q 138 1124 107 1124 q 180 1115 153 1124 q 235 1096 207 1107 q 290 1076 263 1085 q 335 1068 318 1068 q 362 1079 349 1068 q 384 1101 375 1090 q 394 1117 393 1113 l 438 1100 q 389 1003 411 1036 q 336 971 367 971 m 53 0 l 53 46 l 178 74 l 178 775 l 53 803 l 53 849 l 418 849 l 418 803 l 293 775 l 293 74 l 418 46 l 418 0 l 53 0 z "},"J":{"ha":406,"x_min":-62,"x_max":388,"o":"m 76 -207 q -62 -169 -6 -207 l -57 -131 l 46 -131 q 128 -87 107 -131 q 150 42 150 -43 l 150 775 l 26 803 l 26 849 l 388 849 l 388 803 l 265 775 l 265 88 q 219 -142 265 -78 q 76 -207 174 -207 z "},"Ĵ":{"ha":406,"x_min":-62,"x_max":388,"o":"m 0 0 m 76 -207 q -62 -169 -6 -207 l -57 -131 l 46 -131 q 128 -87 107 -131 q 150 42 150 -43 l 150 775 l 26 803 l 26 849 l 388 849 l 388 803 l 265 775 l 265 88 q 219 -142 265 -78 q 76 -207 174 -207 m 360 904 l 199 1018 l 44 904 l 21 929 l 160 1111 l 243 1111 l 385 929 l 360 904 z "},"K":{"ha":811,"x_min":53,"x_max":797,"o":"m 797 0 l 599 0 l 293 433 l 293 74 l 418 46 l 418 0 l 53 0 l 53 46 l 178 74 l 178 775 l 53 803 l 53 849 l 418 849 l 418 803 l 293 775 l 293 450 l 589 775 l 499 803 l 499 849 l 782 849 l 782 803 l 682 775 l 404 469 l 685 74 l 797 46 l 797 0 z "},"Ķ":{"ha":811,"x_min":53,"x_max":797,"o":"m 53 0 l 53 46 l 178 74 l 178 775 l 53 803 l 53 849 l 418 849 l 418 803 l 293 775 l 293 450 l 589 775 l 499 803 l 499 849 l 782 849 l 782 803 l 682 775 l 404 469 l 685 74 l 797 46 l 797 0 l 599 0 l 293 433 l 293 74 l 418 46 l 418 0 l 53 0 m 376 -307 l 397 -60 l 494 -39 l 513 -58 l 422 -307 l 376 -307 z "},"L":{"ha":664,"x_min":53,"x_max":647,"o":"m 647 0 l 53 0 l 53 46 l 178 74 l 178 775 l 53 803 l 53 849 l 418 849 l 418 803 l 293 775 l 293 78 l 560 78 l 594 204 l 647 204 l 647 0 z "},"Ǉ":{"ha":1069,"x_min":53,"x_max":1051,"o":"m 53 0 m 647 0 l 53 0 l 53 46 l 178 74 l 178 775 l 53 803 l 53 849 l 418 849 l 418 803 l 293 775 l 293 78 l 560 78 l 594 204 l 647 204 l 647 0 m 740 -207 q 601 -169 658 -207 l 607 -131 l 710 -131 q 792 -87 771 -131 q 814 42 814 -43 l 814 775 l 690 803 l 690 849 l 1051 849 l 1051 803 l 929 775 l 929 88 q 883 -142 929 -78 q 740 -207 838 -207 z "},"Ĺ":{"ha":664,"x_min":53,"x_max":647,"o":"m 153 903 l 131 929 l 344 1110 l 450 1071 l 450 1046 l 153 903 m 647 0 l 53 0 l 53 46 l 178 74 l 178 775 l 53 803 l 53 849 l 418 849 l 418 803 l 293 775 l 293 78 l 560 78 l 594 204 l 647 204 l 647 0 z "},"Ľ":{"ha":664,"x_min":44,"x_max":647,"o":"m 186 904 l 44 1086 l 68 1111 l 229 997 l 383 1111 l 408 1086 l 269 904 l 186 904 m 53 0 l 53 46 l 178 74 l 178 775 l 53 803 l 53 849 l 418 849 l 418 803 l 293 775 l 293 78 l 560 78 l 594 204 l 647 204 l 647 0 l 53 0 z "},"Ļ":{"ha":664,"x_min":53,"x_max":647,"o":"m 53 0 l 53 46 l 178 74 l 178 775 l 53 803 l 53 849 l 418 849 l 418 803 l 293 775 l 293 78 l 560 78 l 594 204 l 647 204 l 647 0 l 53 0 m 311 -307 l 332 -60 l 429 -39 l 447 -58 l 358 -307 l 311 -307 z "},"Ŀ":{"ha":664,"x_min":53,"x_max":647,"o":"m 53 0 m 647 0 l 53 0 l 53 46 l 178 74 l 178 775 l 53 803 l 53 849 l 418 849 l 418 803 l 293 775 l 293 78 l 560 78 l 594 204 l 647 204 l 647 0 m 640 603 q 617 546 640 569 q 560 522 594 522 q 505 546 528 522 q 482 603 482 569 q 504 660 482 638 q 560 682 526 682 q 618 660 596 682 q 640 603 640 638 z "},"ǈ":{"ha":1078,"x_min":53,"x_max":968,"o":"m 53 0 m 647 0 l 53 0 l 53 46 l 178 74 l 178 775 l 53 803 l 53 849 l 418 849 l 418 803 l 293 775 l 293 78 l 560 78 l 594 204 l 647 204 l 647 0 m 968 885 q 944 830 968 853 q 886 807 919 807 q 831 830 854 807 q 807 885 807 853 q 831 943 807 918 q 886 968 854 968 q 944 943 919 968 q 968 885 968 918 m 904 694 l 942 694 l 942 79 q 898 -160 942 -89 q 771 -232 854 -232 q 721 -224 751 -232 q 658 -200 690 -217 l 665 -157 l 729 -157 q 802 -117 779 -157 q 825 -28 825 -78 l 825 597 l 701 611 l 701 643 l 904 694 z "},"Ł":{"ha":664,"x_min":50,"x_max":647,"o":"m 53 0 l 53 46 l 178 74 l 178 357 l 81 303 l 50 354 l 178 428 l 178 775 l 53 803 l 53 849 l 418 849 l 418 803 l 293 775 l 293 493 l 431 572 l 464 518 l 293 422 l 293 78 l 560 78 l 594 204 l 647 204 l 647 0 l 53 0 z "},"M":{"ha":1103,"x_min":31,"x_max":1078,"o":"m 343 0 l 31 0 l 31 46 l 143 74 l 167 776 l 56 803 l 56 849 l 313 849 l 554 169 l 783 849 l 1049 849 l 1049 803 l 924 775 l 950 74 l 1078 46 l 1078 0 l 714 0 l 714 46 l 838 74 l 815 706 l 569 0 l 500 -14 l 240 710 l 219 74 l 343 46 l 343 0 z "},"N":{"ha":961,"x_min":50,"x_max":925,"o":"m 617 849 l 925 849 l 925 803 l 813 776 l 813 0 l 726 -14 l 242 678 l 242 74 l 361 46 l 361 0 l 50 0 l 50 46 l 161 74 l 161 776 l 50 803 l 50 849 l 256 849 l 735 181 l 735 776 l 617 803 l 617 849 z "},"Ǌ":{"ha":1367,"x_min":50,"x_max":1349,"o":"m 50 0 m 617 849 l 925 849 l 925 803 l 813 776 l 813 0 l 726 -14 l 242 678 l 242 74 l 361 46 l 361 0 l 50 0 l 50 46 l 161 74 l 161 776 l 50 803 l 50 849 l 256 849 l 735 181 l 735 776 l 617 803 l 617 849 m 1038 -207 q 899 -169 956 -207 l 904 -131 l 1007 -131 q 1090 -87 1068 -131 q 1111 42 1111 -43 l 1111 775 l 988 803 l 988 849 l 1349 849 l 1349 803 l 1226 775 l 1226 88 q 1181 -142 1226 -78 q 1038 -207 1135 -207 z "},"Ń":{"ha":964,"x_min":47,"x_max":922,"o":"m 369 903 l 347 929 l 561 1110 l 667 1071 l 667 1046 l 369 903 m 614 849 l 922 849 l 922 803 l 810 776 l 810 0 l 724 -14 l 239 678 l 239 74 l 358 46 l 358 0 l 47 0 l 47 46 l 158 74 l 158 776 l 47 803 l 47 849 l 253 849 l 732 181 l 732 776 l 614 803 l 614 849 z "},"Ň":{"ha":964,"x_min":47,"x_max":922,"o":"m 450 904 l 308 1086 l 332 1111 l 493 997 l 647 1111 l 672 1086 l 533 904 l 450 904 m 724 -14 l 239 678 l 239 74 l 358 46 l 358 0 l 47 0 l 47 46 l 158 74 l 158 776 l 47 803 l 47 849 l 253 849 l 732 181 l 732 776 l 614 803 l 614 849 l 922 849 l 922 803 l 810 776 l 810 0 l 724 -14 z "},"Ņ":{"ha":964,"x_min":47,"x_max":922,"o":"m 724 -14 l 239 678 l 239 74 l 358 46 l 358 0 l 47 0 l 47 46 l 158 74 l 158 776 l 47 803 l 47 849 l 253 849 l 732 181 l 732 776 l 614 803 l 614 849 l 922 849 l 922 803 l 810 776 l 810 0 l 724 -14 m 429 -307 l 449 -60 l 546 -39 l 565 -58 l 475 -307 l 429 -307 z "},"Ṅ":{"ha":961,"x_min":50,"x_max":925,"o":"m 50 0 m 617 849 l 925 849 l 925 803 l 813 776 l 813 0 l 726 -14 l 242 678 l 242 74 l 361 46 l 361 0 l 50 0 l 50 46 l 161 74 l 161 776 l 50 803 l 50 849 l 256 849 l 735 181 l 735 776 l 617 803 l 617 849 m 564 1007 q 539 951 564 974 q 481 928 514 928 q 422 951 447 928 q 397 1007 397 974 q 422 1066 397 1042 q 481 1090 447 1090 q 539 1065 514 1090 q 564 1007 564 1040 z "},"Ŋ":{"ha":961,"x_min":50,"x_max":925,"o":"m 642 -232 q 592 -224 622 -232 q 529 -200 561 -217 l 536 -157 l 600 -157 q 673 -117 650 -157 q 696 -28 696 -78 l 696 29 l 242 678 l 242 74 l 361 46 l 361 0 l 50 0 l 50 46 l 161 74 l 161 776 l 50 803 l 50 849 l 256 849 l 735 181 l 735 776 l 617 803 l 617 849 l 925 849 l 925 803 l 813 776 l 813 79 q 769 -160 813 -89 q 642 -232 725 -232 z "},"Ɲ":{"ha":961,"x_min":-6,"x_max":925,"o":"m 925 849 l 925 803 l 813 776 l 813 0 l 726 -14 l 242 678 l 242 10 q 206 -176 242 -119 q 111 -232 171 -232 q -6 -200 57 -232 l 1 -157 l 65 -157 q 138 -117 115 -157 q 161 -28 161 -78 l 161 776 l 50 803 l 50 849 l 256 849 l 735 181 l 735 776 l 617 803 l 617 849 l 925 849 z "},"ǋ":{"ha":1375,"x_min":50,"x_max":1265,"o":"m 50 0 m 617 849 l 925 849 l 925 803 l 813 776 l 813 0 l 726 -14 l 242 678 l 242 74 l 361 46 l 361 0 l 50 0 l 50 46 l 161 74 l 161 776 l 50 803 l 50 849 l 256 849 l 735 181 l 735 776 l 617 803 l 617 849 m 1265 885 q 1241 830 1265 853 q 1183 807 1217 807 q 1128 830 1151 807 q 1104 885 1104 853 q 1128 943 1104 918 q 1183 968 1151 968 q 1241 943 1217 968 q 1265 885 1265 918 m 1201 694 l 1239 694 l 1239 79 q 1195 -160 1239 -89 q 1068 -232 1151 -232 q 1018 -224 1049 -232 q 956 -200 988 -217 l 963 -157 l 1026 -157 q 1099 -117 1076 -157 q 1122 -28 1122 -78 l 1122 597 l 999 611 l 999 643 l 1201 694 z "},"Ñ":{"ha":964,"x_min":47,"x_max":922,"o":"m 696 1058 q 647 962 669 994 q 594 929 625 929 q 494 957 569 929 q 397 985 419 985 q 369 974 383 985 q 347 951 356 963 q 335 935 338 939 l 293 951 q 342 1049 319 1017 q 396 1082 365 1082 q 438 1074 411 1082 q 493 1054 465 1065 q 549 1035 521 1043 q 593 1026 576 1026 q 620 1038 607 1026 q 642 1060 633 1049 q 653 1075 651 1071 l 696 1058 m 614 849 l 922 849 l 922 803 l 810 776 l 810 0 l 724 -14 l 239 678 l 239 74 l 358 46 l 358 0 l 47 0 l 47 46 l 158 74 l 158 776 l 47 803 l 47 849 l 253 849 l 732 181 l 732 776 l 614 803 l 614 849 z "},"O":{"ha":914,"x_min":57,"x_max":857,"o":"m 458 869 q 760 747 663 869 q 857 428 857 625 q 759 110 857 232 q 458 -12 661 -12 q 156 110 256 -12 q 57 428 57 232 q 156 747 57 624 q 458 869 254 869 m 732 428 q 669 690 732 578 q 450 803 606 803 q 241 691 300 803 q 182 428 182 579 q 245 167 182 279 q 463 54 308 54 q 674 166 615 54 q 732 428 732 278 z "},"Ó":{"ha":914,"x_min":57,"x_max":857,"o":"m 57 0 m 458 869 q 760 747 663 869 q 857 428 857 625 q 759 110 857 232 q 458 -12 661 -12 q 156 110 256 -12 q 57 428 57 232 q 156 747 57 624 q 458 869 254 869 m 732 428 q 669 690 732 578 q 450 803 606 803 q 241 691 300 803 q 182 428 182 579 q 245 167 182 279 q 463 54 308 54 q 674 166 615 54 q 732 428 732 278 m 393 903 l 371 929 l 585 1110 l 690 1071 l 690 1046 l 393 903 z "},"Ŏ":{"ha":914,"x_min":57,"x_max":857,"o":"m 57 0 m 458 869 q 760 747 663 869 q 857 428 857 625 q 759 110 857 232 q 458 -12 661 -12 q 156 110 256 -12 q 57 428 57 232 q 156 747 57 624 q 458 869 254 869 m 732 428 q 669 690 732 578 q 450 803 606 803 q 241 691 300 803 q 182 428 182 579 q 245 167 182 279 q 463 54 308 54 q 674 166 615 54 q 732 428 732 278 m 458 924 q 332 967 369 924 q 294 1082 294 1011 l 342 1085 q 366 1022 342 1046 q 456 999 390 999 q 548 1022 522 999 q 574 1085 574 1046 l 619 1082 q 458 924 619 924 z "},"Ǒ":{"ha":914,"x_min":57,"x_max":857,"o":"m 57 0 m 458 869 q 760 747 663 869 q 857 428 857 625 q 759 110 857 232 q 458 -12 661 -12 q 156 110 256 -12 q 57 428 57 232 q 156 747 57 624 q 458 869 254 869 m 732 428 q 669 690 732 578 q 450 803 606 803 q 241 691 300 803 q 182 428 182 579 q 245 167 182 279 q 463 54 308 54 q 674 166 615 54 q 732 428 732 278 m 417 904 l 275 1086 l 299 1111 l 460 997 l 614 1111 l 639 1086 l 500 904 l 417 904 z "},"Ô":{"ha":914,"x_min":57,"x_max":857,"o":"m 615 904 l 454 1018 l 300 904 l 276 929 l 415 1111 l 499 1111 l 640 929 l 615 904 m 458 869 q 760 747 663 869 q 857 428 857 625 q 759 110 857 232 q 458 -12 661 -12 q 156 110 256 -12 q 57 428 57 232 q 156 747 57 624 q 458 869 254 869 m 732 428 q 669 690 732 578 q 450 803 606 803 q 241 691 300 803 q 182 428 182 579 q 245 167 182 279 q 463 54 308 54 q 674 166 615 54 q 732 428 732 278 z "},"Ố":{"ha":914,"x_min":57,"x_max":857,"o":"m 618 968 l 590 986 l 728 1229 l 842 1229 l 850 1206 l 618 968 m 586 904 l 425 1018 l 271 904 l 247 929 l 386 1111 l 469 1111 l 611 929 l 586 904 m 458 869 q 760 747 663 869 q 857 428 857 625 q 759 110 857 232 q 458 -12 661 -12 q 156 110 256 -12 q 57 428 57 232 q 156 747 57 624 q 458 869 254 869 m 732 428 q 669 690 732 578 q 450 803 606 803 q 241 691 300 803 q 182 428 182 579 q 245 167 182 279 q 463 54 308 54 q 674 166 615 54 q 732 428 732 278 z "},"Ộ":{"ha":914,"x_min":57,"x_max":857,"o":"m 57 0 m 458 869 q 760 747 663 869 q 857 428 857 625 q 759 110 857 232 q 458 -12 661 -12 q 156 110 256 -12 q 57 428 57 232 q 156 747 57 624 q 458 869 254 869 m 732 428 q 669 690 732 578 q 450 803 606 803 q 241 691 300 803 q 182 428 182 579 q 245 167 182 279 q 463 54 308 54 q 674 166 615 54 q 732 428 732 278 m 540 -140 q 515 -197 540 -174 q 457 -219 490 -219 q 399 -197 424 -219 q 374 -140 374 -174 q 399 -81 374 -106 q 457 -57 424 -57 q 515 -82 490 -57 q 540 -140 540 -107 m 614 904 l 453 1018 l 299 904 l 275 929 l 414 1111 l 497 1111 l 639 929 l 614 904 z "},"Ồ":{"ha":914,"x_min":57,"x_max":857,"o":"m 674 968 l 442 1206 l 450 1229 l 564 1229 l 701 986 l 674 968 m 586 904 l 425 1018 l 271 904 l 247 929 l 386 1111 l 469 1111 l 611 929 l 586 904 m 458 869 q 760 747 663 869 q 857 428 857 625 q 759 110 857 232 q 458 -12 661 -12 q 156 110 256 -12 q 57 428 57 232 q 156 747 57 624 q 458 869 254 869 m 732 428 q 669 690 732 578 q 450 803 606 803 q 241 691 300 803 q 182 428 182 579 q 245 167 182 279 q 463 54 308 54 q 674 166 615 54 q 732 428 732 278 z "},"Ổ":{"ha":914,"x_min":57,"x_max":857,"o":"m 57 0 m 458 869 q 760 747 663 869 q 857 428 857 625 q 759 110 857 232 q 458 -12 661 -12 q 156 110 256 -12 q 57 428 57 232 q 156 747 57 624 q 458 869 254 869 m 732 428 q 669 690 732 578 q 450 803 606 803 q 241 691 300 803 q 182 428 182 579 q 245 167 182 279 q 463 54 308 54 q 674 166 615 54 q 732 428 732 278 m 614 904 l 453 1018 l 299 904 l 275 929 l 414 1111 l 497 1111 l 639 929 l 614 904 m 731 1161 q 644 1090 731 1104 l 636 1056 l 583 1056 l 578 1111 q 656 1156 656 1111 q 643 1183 656 1174 q 607 1193 631 1193 l 579 1192 l 568 1147 l 526 1147 l 518 1221 q 613 1229 569 1229 q 699 1212 668 1229 q 731 1161 731 1194 z "},"Ỗ":{"ha":914,"x_min":57,"x_max":857,"o":"m 57 0 m 458 869 q 760 747 663 869 q 857 428 857 625 q 759 110 857 232 q 458 -12 661 -12 q 156 110 256 -12 q 57 428 57 232 q 156 747 57 624 q 458 869 254 869 m 732 428 q 669 690 732 578 q 450 803 606 803 q 241 691 300 803 q 182 428 182 579 q 245 167 182 279 q 463 54 308 54 q 674 166 615 54 q 732 428 732 278 m 614 904 l 453 1018 l 299 904 l 275 929 l 414 1111 l 497 1111 l 639 929 l 614 904 m 661 1251 q 613 1155 635 1188 q 560 1122 590 1122 q 460 1150 535 1122 q 363 1178 385 1178 q 335 1167 349 1178 q 312 1144 321 1156 q 300 1128 303 1132 l 258 1144 q 308 1242 285 1210 q 361 1275 331 1275 q 403 1267 376 1275 q 458 1247 431 1258 q 514 1228 486 1236 q 558 1219 542 1219 q 585 1231 572 1219 q 608 1253 599 1242 q 618 1268 617 1264 l 661 1251 z "},"Ȍ":{"ha":914,"x_min":57,"x_max":857,"o":"m 57 0 m 458 869 q 760 747 663 869 q 857 428 857 625 q 759 110 857 232 q 458 -12 661 -12 q 156 110 256 -12 q 57 428 57 232 q 156 747 57 624 q 458 869 254 869 m 732 428 q 669 690 732 578 q 450 803 606 803 q 241 691 300 803 q 182 428 182 579 q 245 167 182 279 q 463 54 308 54 q 674 166 615 54 q 732 428 732 278 m 347 906 l 171 1088 l 171 1111 l 275 1111 l 379 926 l 347 906 m 572 906 l 394 1088 l 394 1111 l 499 1111 l 603 926 l 572 906 z "},"Ö":{"ha":914,"x_min":57,"x_max":857,"o":"m 401 1004 q 378 951 401 974 q 322 928 354 928 q 267 951 290 928 q 243 1004 243 974 q 267 1061 243 1038 q 322 1085 290 1085 q 378 1061 354 1085 q 401 1004 401 1038 m 672 1004 q 648 951 672 974 q 592 928 624 928 q 536 951 560 928 q 513 1004 513 974 q 536 1061 513 1038 q 592 1085 560 1085 q 648 1061 624 1085 q 672 1004 672 1038 m 458 869 q 760 747 663 869 q 857 428 857 625 q 759 110 857 232 q 458 -12 661 -12 q 156 110 256 -12 q 57 428 57 232 q 156 747 57 624 q 458 869 254 869 m 732 428 q 669 690 732 578 q 450 803 606 803 q 241 691 300 803 q 182 428 182 579 q 245 167 182 279 q 463 54 308 54 q 674 166 615 54 q 732 428 732 278 z "},"Ọ":{"ha":914,"x_min":57,"x_max":857,"o":"m 57 0 m 458 869 q 760 747 663 869 q 857 428 857 625 q 759 110 857 232 q 458 -12 661 -12 q 156 110 256 -12 q 57 428 57 232 q 156 747 57 624 q 458 869 254 869 m 732 428 q 669 690 732 578 q 450 803 606 803 q 241 691 300 803 q 182 428 182 579 q 245 167 182 279 q 463 54 308 54 q 674 166 615 54 q 732 428 732 278 m 540 -140 q 515 -197 540 -174 q 457 -219 490 -219 q 399 -197 424 -219 q 374 -140 374 -174 q 399 -81 374 -106 q 457 -57 424 -57 q 515 -82 490 -57 q 540 -140 540 -107 z "},"Ò":{"ha":914,"x_min":57,"x_max":857,"o":"m 586 903 l 286 1046 l 286 1071 l 393 1110 l 606 929 l 586 903 m 458 869 q 760 747 663 869 q 857 428 857 625 q 759 110 857 232 q 458 -12 661 -12 q 156 110 256 -12 q 57 428 57 232 q 156 747 57 624 q 458 869 254 869 m 732 428 q 669 690 732 578 q 450 803 606 803 q 241 691 300 803 q 182 428 182 579 q 245 167 182 279 q 463 54 308 54 q 674 166 615 54 q 732 428 732 278 z "},"Ỏ":{"ha":914,"x_min":57,"x_max":857,"o":"m 57 0 m 458 869 q 760 747 663 869 q 857 428 857 625 q 759 110 857 232 q 458 -12 661 -12 q 156 110 256 -12 q 57 428 57 232 q 156 747 57 624 q 458 869 254 869 m 732 428 q 669 690 732 578 q 450 803 606 803 q 241 691 300 803 q 182 428 182 579 q 245 167 182 279 q 463 54 308 54 q 674 166 615 54 q 732 428 732 278 m 592 1044 q 506 974 592 988 l 497 939 l 444 939 l 439 994 q 517 1039 517 994 q 504 1067 517 1057 q 468 1076 492 1076 l 440 1075 l 429 1031 l 388 1031 l 379 1104 q 474 1113 431 1113 q 560 1095 529 1113 q 592 1044 592 1078 z "},"Ơ":{"ha":914,"x_min":57,"x_max":928,"o":"m 928 897 q 878 806 928 843 q 753 754 829 768 q 857 428 857 640 q 759 110 857 232 q 458 -12 661 -12 q 156 110 256 -12 q 57 428 57 232 q 156 747 57 624 q 458 869 254 869 q 690 808 599 869 l 722 808 q 791 824 768 808 q 814 882 814 839 q 807 939 814 908 l 815 957 l 910 976 q 923 936 918 958 q 928 897 928 914 m 463 54 q 674 166 615 54 q 732 428 732 278 q 669 690 732 578 q 450 803 606 803 q 241 691 300 803 q 182 428 182 579 q 245 167 182 279 q 463 54 308 54 z "},"Ớ":{"ha":914,"x_min":57,"x_max":928,"o":"m 57 0 m 928 897 q 878 806 928 843 q 753 754 829 768 q 857 428 857 640 q 759 110 857 232 q 458 -12 661 -12 q 156 110 256 -12 q 57 428 57 232 q 156 747 57 624 q 458 869 254 869 q 690 808 599 869 l 722 808 q 791 824 768 808 q 814 882 814 839 q 807 939 814 908 l 815 957 l 910 976 q 923 936 918 958 q 928 897 928 914 m 463 54 q 674 166 615 54 q 732 428 732 278 q 669 690 732 578 q 450 803 606 803 q 241 691 300 803 q 182 428 182 579 q 245 167 182 279 q 463 54 308 54 m 393 903 l 371 929 l 585 1110 l 690 1071 l 690 1046 l 393 903 z "},"Ợ":{"ha":914,"x_min":57,"x_max":928,"o":"m 57 0 m 928 897 q 878 806 928 843 q 753 754 829 768 q 857 428 857 640 q 759 110 857 232 q 458 -12 661 -12 q 156 110 256 -12 q 57 428 57 232 q 156 747 57 624 q 458 869 254 869 q 690 808 599 869 l 722 808 q 791 824 768 808 q 814 882 814 839 q 807 939 814 908 l 815 957 l 910 976 q 923 936 918 958 q 928 897 928 914 m 463 54 q 674 166 615 54 q 732 428 732 278 q 669 690 732 578 q 450 803 606 803 q 241 691 300 803 q 182 428 182 579 q 245 167 182 279 q 463 54 308 54 m 540 -140 q 515 -197 540 -174 q 457 -219 490 -219 q 399 -197 424 -219 q 374 -140 374 -174 q 399 -81 374 -106 q 457 -57 424 -57 q 515 -82 490 -57 q 540 -140 540 -107 z "},"Ờ":{"ha":914,"x_min":57,"x_max":928,"o":"m 57 0 m 928 897 q 878 806 928 843 q 753 754 829 768 q 857 428 857 640 q 759 110 857 232 q 458 -12 661 -12 q 156 110 256 -12 q 57 428 57 232 q 156 747 57 624 q 458 869 254 869 q 690 808 599 869 l 722 808 q 791 824 768 808 q 814 882 814 839 q 807 939 814 908 l 815 957 l 910 976 q 923 936 918 958 q 928 897 928 914 m 463 54 q 674 166 615 54 q 732 428 732 278 q 669 690 732 578 q 450 803 606 803 q 241 691 300 803 q 182 428 182 579 q 245 167 182 279 q 463 54 308 54 m 528 903 l 228 1046 l 228 1071 l 335 1110 l 547 929 l 528 903 z "},"Ở":{"ha":914,"x_min":57,"x_max":928,"o":"m 57 0 m 928 897 q 878 806 928 843 q 753 754 829 768 q 857 428 857 640 q 759 110 857 232 q 458 -12 661 -12 q 156 110 256 -12 q 57 428 57 232 q 156 747 57 624 q 458 869 254 869 q 690 808 599 869 l 722 808 q 791 824 768 808 q 814 882 814 839 q 807 939 814 908 l 815 957 l 910 976 q 923 936 918 958 q 928 897 928 914 m 463 54 q 674 166 615 54 q 732 428 732 278 q 669 690 732 578 q 450 803 606 803 q 241 691 300 803 q 182 428 182 579 q 245 167 182 279 q 463 54 308 54 m 592 1044 q 506 974 592 988 l 497 939 l 444 939 l 439 994 q 517 1039 517 994 q 504 1067 517 1057 q 468 1076 492 1076 l 440 1075 l 429 1031 l 388 1031 l 379 1104 q 474 1113 431 1113 q 560 1095 529 1113 q 592 1044 592 1078 z "},"Ỡ":{"ha":914,"x_min":57,"x_max":928,"o":"m 57 0 m 928 897 q 878 806 928 843 q 753 754 829 768 q 857 428 857 640 q 759 110 857 232 q 458 -12 661 -12 q 156 110 256 -12 q 57 428 57 232 q 156 747 57 624 q 458 869 254 869 q 690 808 599 869 l 722 808 q 791 824 768 808 q 814 882 814 839 q 807 939 814 908 l 815 957 l 910 976 q 923 936 918 958 q 928 897 928 914 m 463 54 q 674 166 615 54 q 732 428 732 278 q 669 690 732 578 q 450 803 606 803 q 241 691 300 803 q 182 428 182 579 q 245 167 182 279 q 463 54 308 54 m 658 1058 q 610 962 632 994 q 557 929 588 929 q 457 957 532 929 q 360 985 382 985 q 332 974 346 985 q 309 951 318 963 q 297 935 300 939 l 256 951 q 305 1049 282 1017 q 358 1082 328 1082 q 401 1074 374 1082 q 456 1054 428 1065 q 511 1035 483 1043 q 556 1026 539 1026 q 583 1038 569 1026 q 605 1060 596 1049 q 615 1075 614 1071 l 658 1058 z "},"Ő":{"ha":914,"x_min":57,"x_max":857,"o":"m 300 906 l 268 926 l 374 1111 l 476 1111 l 476 1088 l 300 906 m 524 906 l 492 926 l 597 1111 l 700 1111 l 700 1088 l 524 906 m 458 -12 q 156 110 256 -12 q 57 428 57 232 q 156 747 57 624 q 458 869 254 869 q 760 747 663 869 q 857 428 857 625 q 759 110 857 232 q 458 -12 661 -12 m 463 54 q 674 166 615 54 q 732 428 732 278 q 669 690 732 578 q 450 803 606 803 q 241 691 300 803 q 182 428 182 579 q 245 167 182 279 q 463 54 308 54 z "},"Ȏ":{"ha":914,"x_min":57,"x_max":857,"o":"m 57 0 m 458 869 q 760 747 663 869 q 857 428 857 625 q 759 110 857 232 q 458 -12 661 -12 q 156 110 256 -12 q 57 428 57 232 q 156 747 57 624 q 458 869 254 869 m 732 428 q 669 690 732 578 q 450 803 606 803 q 241 691 300 803 q 182 428 182 579 q 245 167 182 279 q 463 54 308 54 q 674 166 615 54 q 732 428 732 278 m 456 1092 q 582 1048 544 1092 q 619 933 619 1004 l 572 931 q 548 993 572 969 q 458 1017 524 1017 q 366 993 392 1017 q 340 931 340 969 l 294 933 q 456 1092 294 1092 z "},"Ō":{"ha":914,"x_min":57,"x_max":857,"o":"m 306 1040 l 607 1040 l 607 968 l 306 968 l 306 1040 m 458 869 q 760 747 663 869 q 857 428 857 625 q 759 110 857 232 q 458 -12 661 -12 q 156 110 256 -12 q 57 428 57 232 q 156 747 57 624 q 458 869 254 869 m 732 428 q 669 690 732 578 q 450 803 606 803 q 241 691 300 803 q 182 428 182 579 q 245 167 182 279 q 463 54 308 54 q 674 166 615 54 q 732 428 732 278 z "},"Ǫ":{"ha":914,"x_min":57,"x_max":857,"o":"m 696 -210 q 765 -179 735 -210 l 788 -201 q 771 -222 788 -204 q 725 -256 754 -240 q 657 -271 696 -271 q 559 -237 592 -271 q 526 -153 526 -203 q 545 -75 526 -117 q 603 8 564 -33 q 458 -12 540 -12 q 156 110 256 -12 q 57 428 57 232 q 156 747 57 624 q 458 869 254 869 q 760 747 663 869 q 857 428 857 625 q 820 213 857 308 q 708 61 783 118 q 643 -23 667 28 q 619 -128 619 -74 q 640 -188 619 -167 q 696 -210 660 -210 m 182 428 q 245 167 182 279 q 463 54 308 54 q 674 166 615 54 q 732 428 732 278 q 669 690 732 578 q 450 803 606 803 q 241 691 300 803 q 182 428 182 579 z "},"Ø":{"ha":914,"x_min":57,"x_max":857,"o":"m 276 22 q 111 178 165 71 q 57 428 57 285 q 156 747 57 624 q 458 869 254 869 q 549 863 503 869 l 588 983 l 672 983 l 626 842 q 801 686 744 796 q 857 428 857 576 q 759 110 857 232 q 458 -12 661 -12 q 353 -3 411 -12 l 311 -133 l 226 -133 l 276 22 m 526 794 q 450 803 490 803 q 241 691 300 803 q 182 428 182 579 q 210 242 182 331 q 303 104 238 154 l 526 794 m 463 54 q 674 166 615 54 q 732 428 732 278 q 702 622 732 531 q 600 761 672 713 l 375 67 q 463 54 414 54 z "},"Ǿ":{"ha":914,"x_min":57,"x_max":857,"o":"m 57 0 m 276 22 q 111 178 165 71 q 57 428 57 285 q 156 747 57 624 q 458 869 254 869 q 549 863 503 869 l 588 983 l 672 983 l 626 842 q 801 686 744 796 q 857 428 857 576 q 759 110 857 232 q 458 -12 661 -12 q 353 -3 411 -12 l 311 -133 l 226 -133 l 276 22 m 526 794 q 450 803 490 803 q 241 691 300 803 q 182 428 182 579 q 210 242 182 331 q 303 104 238 154 l 526 794 m 463 54 q 674 166 615 54 q 732 428 732 278 q 702 622 732 531 q 600 761 672 713 l 375 67 q 463 54 414 54 m 324 903 l 301 929 l 515 1110 l 621 1071 l 621 1046 l 324 903 z "},"Õ":{"ha":914,"x_min":57,"x_max":857,"o":"m 658 1058 q 610 962 632 994 q 557 929 588 929 q 457 957 532 929 q 360 985 382 985 q 332 974 346 985 q 309 951 318 963 q 297 935 300 939 l 256 951 q 305 1049 282 1017 q 358 1082 328 1082 q 401 1074 374 1082 q 456 1054 428 1065 q 511 1035 483 1043 q 556 1026 539 1026 q 583 1038 569 1026 q 605 1060 596 1049 q 615 1075 614 1071 l 658 1058 m 458 869 q 760 747 663 869 q 857 428 857 625 q 759 110 857 232 q 458 -12 661 -12 q 156 110 256 -12 q 57 428 57 232 q 156 747 57 624 q 458 869 254 869 m 732 428 q 669 690 732 578 q 450 803 606 803 q 241 691 300 803 q 182 428 182 579 q 245 167 182 279 q 463 54 308 54 q 674 166 615 54 q 732 428 732 278 z "},"Œ":{"ha":1138,"x_min":57,"x_max":1083,"o":"m 1047 665 l 994 665 l 964 776 l 696 776 l 696 449 l 893 449 l 922 540 l 974 540 l 974 289 l 922 289 l 890 385 l 696 385 l 696 78 l 992 78 l 1029 204 l 1083 204 l 1083 0 l 458 0 q 156 117 254 0 q 57 428 57 235 q 154 735 57 621 q 458 849 251 849 l 1047 849 l 1047 665 m 581 775 q 519 783 546 781 q 450 786 492 786 q 240 681 299 786 q 181 428 181 575 q 244 173 181 282 q 463 64 307 64 q 581 74 538 64 l 581 775 z "},"P":{"ha":724,"x_min":54,"x_max":689,"o":"m 372 849 q 603 789 518 849 q 689 613 689 729 q 651 467 689 526 q 550 376 614 407 q 408 346 486 346 q 296 360 351 346 l 296 74 l 440 47 l 440 0 l 54 0 l 54 46 l 181 74 l 181 769 l 54 800 l 54 849 l 372 849 m 296 413 q 378 401 326 401 q 510 449 460 401 q 561 601 561 496 q 513 744 561 697 q 385 790 464 790 q 296 776 340 790 l 296 413 z "},"Þ":{"ha":694,"x_min":53,"x_max":667,"o":"m 53 46 l 178 74 l 178 775 l 53 803 l 53 849 l 418 849 l 418 803 l 293 775 l 293 679 l 350 679 q 582 619 497 679 q 667 443 667 558 q 588 246 667 315 q 388 176 508 176 q 293 186 338 176 l 293 74 l 418 46 l 418 0 l 53 0 l 53 46 m 356 232 q 489 279 438 232 q 540 432 540 326 q 492 574 540 528 q 363 621 443 621 q 293 611 335 621 l 293 238 q 356 232 321 232 z "},"Q":{"ha":914,"x_min":57,"x_max":947,"o":"m 947 -175 q 878 -199 921 -187 q 801 -210 835 -210 q 724 -200 757 -210 q 626 -151 692 -190 l 376 0 q 141 149 225 32 q 57 428 57 267 q 156 747 57 624 q 458 869 254 869 q 761 747 664 869 q 858 428 858 625 q 769 133 858 247 q 513 -1 681 18 q 731 -102 653 -68 q 831 -136 808 -136 l 943 -136 l 947 -175 m 182 428 q 208 255 182 339 q 297 114 235 171 q 463 57 360 57 q 624 114 564 57 q 709 255 685 171 q 733 428 733 339 q 669 690 733 578 q 450 803 606 803 q 241 691 300 803 q 182 428 182 579 z "},"R":{"ha":775,"x_min":56,"x_max":815,"o":"m 531 172 q 453 330 475 292 q 414 378 432 368 q 353 388 396 388 l 300 388 l 300 74 l 429 46 l 429 0 l 56 0 l 56 46 l 185 74 l 185 775 l 56 803 l 56 849 l 393 849 q 617 788 543 849 q 690 635 690 726 q 644 494 690 558 q 489 406 599 431 q 543 380 524 396 q 577 338 563 364 q 622 249 592 313 q 707 75 664 157 l 815 46 l 815 0 l 613 0 l 531 172 m 385 443 q 518 493 472 443 q 564 626 564 543 q 519 747 564 703 q 388 790 475 790 q 300 776 349 790 l 300 443 l 385 443 z "},"Ŕ":{"ha":775,"x_min":56,"x_max":815,"o":"m 265 903 l 243 929 l 457 1110 l 563 1071 l 563 1046 l 265 903 m 531 172 q 453 330 475 292 q 414 378 432 368 q 353 388 396 388 l 300 388 l 300 74 l 429 46 l 429 0 l 56 0 l 56 46 l 185 74 l 185 775 l 56 803 l 56 849 l 393 849 q 617 788 543 849 q 690 635 690 726 q 644 494 690 558 q 489 406 599 431 q 543 380 524 396 q 577 338 563 364 q 622 249 592 313 q 707 75 664 157 l 815 46 l 815 0 l 613 0 l 531 172 m 385 443 q 518 493 472 443 q 564 626 564 543 q 519 747 564 703 q 388 790 475 790 q 300 776 349 790 l 300 443 l 385 443 z "},"Ř":{"ha":775,"x_min":56,"x_max":815,"o":"m 347 904 l 206 1086 l 229 1111 l 390 997 l 544 1111 l 569 1086 l 431 904 l 347 904 m 56 46 l 185 74 l 185 775 l 56 803 l 56 849 l 393 849 q 617 788 543 849 q 690 635 690 726 q 644 494 690 558 q 489 406 599 431 q 543 380 524 396 q 577 338 563 364 q 622 249 592 313 q 707 75 664 157 l 815 46 l 815 0 l 613 0 l 531 172 q 453 330 475 292 q 414 378 432 368 q 353 388 396 388 l 300 388 l 300 74 l 429 46 l 429 0 l 56 0 l 56 46 m 385 443 q 518 493 472 443 q 564 626 564 543 q 519 747 564 703 q 388 790 475 790 q 300 776 349 790 l 300 443 l 385 443 z "},"Ŗ":{"ha":775,"x_min":56,"x_max":815,"o":"m 56 46 l 185 74 l 185 775 l 56 803 l 56 849 l 393 849 q 617 788 543 849 q 690 635 690 726 q 644 494 690 558 q 489 406 599 431 q 543 380 524 396 q 577 338 563 364 q 622 249 592 313 q 707 75 664 157 l 815 46 l 815 0 l 613 0 l 531 172 q 453 330 475 292 q 414 378 432 368 q 353 388 396 388 l 300 388 l 300 74 l 429 46 l 429 0 l 56 0 l 56 46 m 385 443 q 518 493 472 443 q 564 626 564 543 q 519 747 564 703 q 388 790 475 790 q 300 776 349 790 l 300 443 l 385 443 m 383 -307 l 403 -60 l 500 -39 l 518 -58 l 429 -307 l 383 -307 z "},"Ȑ":{"ha":775,"x_min":56,"x_max":815,"o":"m 56 0 m 531 172 q 453 330 475 292 q 414 378 432 368 q 353 388 396 388 l 300 388 l 300 74 l 429 46 l 429 0 l 56 0 l 56 46 l 185 74 l 185 775 l 56 803 l 56 849 l 393 849 q 617 788 543 849 q 690 635 690 726 q 644 494 690 558 q 489 406 599 431 q 543 380 524 396 q 577 338 563 364 q 622 249 592 313 q 707 75 664 157 l 815 46 l 815 0 l 613 0 l 531 172 m 385 443 q 518 493 472 443 q 564 626 564 543 q 519 747 564 703 q 388 790 475 790 q 300 776 349 790 l 300 443 l 385 443 m 278 906 l 101 1088 l 101 1111 l 206 1111 l 310 926 l 278 906 m 503 906 l 325 1088 l 325 1111 l 429 1111 l 533 926 l 503 906 z "},"Ṛ":{"ha":775,"x_min":56,"x_max":815,"o":"m 56 0 m 531 172 q 453 330 475 292 q 414 378 432 368 q 353 388 396 388 l 300 388 l 300 74 l 429 46 l 429 0 l 56 0 l 56 46 l 185 74 l 185 775 l 56 803 l 56 849 l 393 849 q 617 788 543 849 q 690 635 690 726 q 644 494 690 558 q 489 406 599 431 q 543 380 524 396 q 577 338 563 364 q 622 249 592 313 q 707 75 664 157 l 815 46 l 815 0 l 613 0 l 531 172 m 385 443 q 518 493 472 443 q 564 626 564 543 q 519 747 564 703 q 388 790 475 790 q 300 776 349 790 l 300 443 l 385 443 m 471 -140 q 446 -197 471 -174 q 388 -219 421 -219 q 329 -197 354 -219 q 304 -140 304 -174 q 329 -81 304 -106 q 388 -57 354 -57 q 446 -82 421 -57 q 471 -140 471 -107 z "},"Ȓ":{"ha":775,"x_min":56,"x_max":815,"o":"m 56 0 m 531 172 q 453 330 475 292 q 414 378 432 368 q 353 388 396 388 l 300 388 l 300 74 l 429 46 l 429 0 l 56 0 l 56 46 l 185 74 l 185 775 l 56 803 l 56 849 l 393 849 q 617 788 543 849 q 690 635 690 726 q 644 494 690 558 q 489 406 599 431 q 543 380 524 396 q 577 338 563 364 q 622 249 592 313 q 707 75 664 157 l 815 46 l 815 0 l 613 0 l 531 172 m 385 443 q 518 493 472 443 q 564 626 564 543 q 519 747 564 703 q 388 790 475 790 q 300 776 349 790 l 300 443 l 385 443 m 386 1092 q 513 1048 475 1092 q 550 933 550 1004 l 503 931 q 478 993 503 969 q 389 1017 454 1017 q 297 993 322 1017 q 271 931 271 969 l 225 933 q 386 1092 225 1092 z "},"S":{"ha":636,"x_min":47,"x_max":593,"o":"m 63 633 q 135 808 63 746 q 339 871 207 871 q 564 833 449 871 l 550 653 l 499 653 l 468 788 q 413 797 450 793 q 347 801 375 801 q 218 765 265 801 q 171 658 171 728 q 201 566 171 600 q 299 506 232 532 l 449 444 q 558 365 522 417 q 593 226 593 314 q 515 49 593 113 q 286 -15 436 -15 q 164 -4 229 -15 q 47 28 99 7 l 67 192 l 118 192 l 144 72 q 294 53 219 53 q 431 92 381 53 q 481 196 481 132 q 453 292 481 253 q 358 358 425 332 l 204 418 q 63 633 63 472 z "},"Ś":{"ha":636,"x_min":53,"x_max":599,"o":"m 214 903 l 192 929 l 406 1110 l 511 1071 l 511 1046 l 214 903 m 68 633 q 140 808 68 746 q 344 871 213 871 q 569 833 454 871 l 556 653 l 504 653 l 474 788 q 418 797 456 793 q 353 801 381 801 q 224 765 271 801 q 176 658 176 728 q 207 566 176 600 q 304 506 238 532 l 454 444 q 563 365 528 417 q 599 226 599 314 q 520 49 599 113 q 292 -15 442 -15 q 169 -4 235 -15 q 53 28 104 7 l 72 192 l 124 192 l 150 72 q 300 53 225 53 q 436 92 386 53 q 486 196 486 132 q 458 293 486 254 q 364 358 431 332 l 210 418 q 68 633 68 472 z "},"Ꞌ":{"ha":147,"x_min":19,"x_max":160,"o":"m 64 390 l 19 399 l 40 849 l 140 849 l 160 826 l 64 390 z "},"Š":{"ha":636,"x_min":47,"x_max":593,"o":"m 286 904 l 144 1086 l 168 1111 l 329 997 l 483 1111 l 508 1086 l 369 904 l 286 904 m 286 -15 q 164 -4 229 -15 q 47 28 99 7 l 67 192 l 118 192 l 144 72 q 294 53 219 53 q 431 92 381 53 q 481 196 481 132 q 453 292 481 253 q 358 358 425 332 l 204 418 q 63 633 63 472 q 135 808 63 746 q 339 871 207 871 q 564 833 449 871 l 550 653 l 499 653 l 468 788 q 413 797 450 793 q 347 801 375 801 q 218 765 265 801 q 171 658 171 728 q 201 566 171 600 q 299 506 232 532 l 449 444 q 558 365 522 417 q 593 226 593 314 q 515 49 593 113 q 286 -15 436 -15 z "},"Ş":{"ha":636,"x_min":53,"x_max":599,"o":"m 264 -304 q 192 -293 224 -304 l 203 -258 q 251 -267 231 -267 q 331 -239 300 -267 q 361 -172 361 -211 q 335 -124 361 -143 q 254 -106 310 -106 l 250 -93 l 276 -15 q 160 -3 221 -14 q 53 28 100 8 l 72 192 l 124 192 l 150 72 q 300 53 225 53 q 436 92 386 53 q 486 196 486 132 q 458 293 486 254 q 364 358 431 332 l 210 418 q 68 633 68 472 q 140 808 68 746 q 344 871 213 871 q 569 833 454 871 l 556 653 l 504 653 l 474 788 q 418 797 456 793 q 353 801 381 801 q 224 765 271 801 q 176 658 176 728 q 207 566 176 600 q 304 506 238 532 l 454 444 q 563 365 528 417 q 599 226 599 314 q 527 54 599 118 q 318 -15 456 -10 l 303 -64 q 413 -92 375 -64 q 451 -161 451 -119 q 426 -233 451 -200 q 357 -285 400 -265 q 264 -304 314 -304 z "},"Ŝ":{"ha":636,"x_min":47,"x_max":593,"o":"m 47 0 m 63 633 q 135 808 63 746 q 339 871 207 871 q 564 833 449 871 l 550 653 l 499 653 l 468 788 q 413 797 450 793 q 347 801 375 801 q 218 765 265 801 q 171 658 171 728 q 201 566 171 600 q 299 506 232 532 l 449 444 q 558 365 522 417 q 593 226 593 314 q 515 49 593 113 q 286 -15 436 -15 q 164 -4 229 -15 q 47 28 99 7 l 67 192 l 118 192 l 144 72 q 294 53 219 53 q 431 92 381 53 q 481 196 481 132 q 453 292 481 253 q 358 358 425 332 l 204 418 q 63 633 63 472 m 475 904 l 314 1018 l 160 904 l 136 929 l 275 1111 l 358 1111 l 500 929 l 475 904 z "},"Ș":{"ha":636,"x_min":53,"x_max":599,"o":"m 292 -15 q 169 -4 235 -15 q 53 28 104 7 l 72 192 l 124 192 l 150 72 q 300 53 225 53 q 436 92 386 53 q 486 196 486 132 q 458 293 486 254 q 364 358 431 332 l 210 418 q 68 633 68 472 q 140 808 68 746 q 344 871 213 871 q 569 833 454 871 l 556 653 l 504 653 l 474 788 q 418 797 456 793 q 353 801 381 801 q 224 765 271 801 q 176 658 176 728 q 207 566 176 600 q 304 506 238 532 l 454 444 q 563 365 528 417 q 599 226 599 314 q 520 49 599 113 q 292 -15 442 -15 m 251 -307 l 272 -60 l 369 -39 l 388 -58 l 297 -307 l 251 -307 z "},"Ṣ":{"ha":636,"x_min":47,"x_max":593,"o":"m 47 0 m 63 633 q 135 808 63 746 q 339 871 207 871 q 564 833 449 871 l 550 653 l 499 653 l 468 788 q 413 797 450 793 q 347 801 375 801 q 218 765 265 801 q 171 658 171 728 q 201 566 171 600 q 299 506 232 532 l 449 444 q 558 365 522 417 q 593 226 593 314 q 515 49 593 113 q 286 -15 436 -15 q 164 -4 229 -15 q 47 28 99 7 l 67 192 l 118 192 l 144 72 q 294 53 219 53 q 431 92 381 53 q 481 196 481 132 q 453 292 481 253 q 358 358 425 332 l 204 418 q 63 633 63 472 m 401 -140 q 376 -197 401 -174 q 318 -219 351 -219 q 260 -197 285 -219 q 235 -140 235 -174 q 260 -81 235 -106 q 318 -57 285 -57 q 376 -82 351 -57 q 401 -140 401 -107 z "},"ẞ":{"ha":822,"x_min":13,"x_max":793,"o":"m 13 46 l 136 74 l 136 532 q 219 785 136 700 q 463 869 301 869 q 619 846 546 869 q 732 783 693 822 l 739 739 l 558 450 q 736 376 679 436 q 793 221 793 315 q 728 49 793 114 q 546 -15 663 -15 q 386 28 450 -15 l 406 192 l 457 192 l 483 69 q 547 53 506 53 q 644 92 607 53 q 681 200 681 131 q 628 327 681 275 q 442 379 576 379 l 417 425 l 629 756 q 567 789 608 776 q 474 801 525 801 q 306 746 360 801 q 251 572 251 690 l 251 74 l 351 51 l 351 0 l 13 0 l 13 46 z "},"Ə":{"ha":897,"x_min":57,"x_max":840,"o":"m 442 -12 q 154 97 251 -12 q 57 428 57 207 l 57 457 l 714 457 q 640 708 708 610 q 426 806 572 806 q 221 757 322 806 l 186 635 l 135 635 l 124 794 q 432 872 268 872 q 743 750 646 872 q 840 429 840 628 q 745 109 840 231 q 442 -12 650 -12 m 443 54 q 648 147 590 54 q 714 389 706 240 l 183 389 q 256 134 193 214 q 443 54 318 54 z "},"T":{"ha":713,"x_min":14,"x_max":700,"o":"m 14 849 l 700 849 l 692 654 l 638 654 l 611 776 l 415 776 l 415 74 l 563 46 l 563 0 l 151 0 l 151 46 l 300 74 l 300 776 l 103 776 l 75 654 l 25 654 l 14 849 z "},"Ŧ":{"ha":713,"x_min":14,"x_max":700,"o":"m 611 776 l 415 776 l 415 461 l 663 461 l 663 397 l 415 397 l 415 74 l 563 46 l 563 0 l 151 0 l 151 46 l 300 74 l 300 397 l 58 397 l 58 461 l 300 461 l 300 776 l 103 776 l 75 654 l 25 654 l 14 849 l 700 849 l 692 654 l 638 654 l 611 776 z "},"Ť":{"ha":713,"x_min":14,"x_max":700,"o":"m 313 904 l 171 1086 l 194 1111 l 356 997 l 510 1111 l 535 1086 l 396 904 l 313 904 m 151 0 l 151 46 l 300 74 l 300 776 l 103 776 l 75 654 l 25 654 l 14 849 l 700 849 l 692 654 l 638 654 l 611 776 l 415 776 l 415 74 l 563 46 l 563 0 l 151 0 z "},"Ţ":{"ha":713,"x_min":14,"x_max":700,"o":"m 311 -304 q 239 -293 271 -304 l 250 -258 q 299 -267 278 -267 q 378 -239 347 -267 q 408 -172 408 -211 q 383 -124 408 -143 q 301 -106 357 -106 l 297 -93 l 329 0 l 151 0 l 151 46 l 300 74 l 300 776 l 103 776 l 75 654 l 25 654 l 14 849 l 700 849 l 692 654 l 638 654 l 611 776 l 415 776 l 415 74 l 563 46 l 563 0 l 371 0 l 350 -64 q 460 -92 422 -64 q 499 -161 499 -119 q 473 -233 499 -200 q 404 -285 447 -265 q 311 -304 361 -304 z "},"Ț":{"ha":713,"x_min":14,"x_max":700,"o":"m 151 0 l 151 46 l 300 74 l 300 776 l 103 776 l 75 654 l 25 654 l 14 849 l 700 849 l 692 654 l 638 654 l 611 776 l 415 776 l 415 74 l 563 46 l 563 0 l 151 0 m 289 -307 l 307 -60 l 404 -39 l 422 -58 l 335 -307 l 289 -307 z "},"Ṭ":{"ha":713,"x_min":14,"x_max":700,"o":"m 14 0 m 14 849 l 700 849 l 692 654 l 638 654 l 611 776 l 415 776 l 415 74 l 563 46 l 563 0 l 151 0 l 151 46 l 300 74 l 300 776 l 103 776 l 75 654 l 25 654 l 14 849 m 440 -140 q 415 -197 440 -174 q 357 -219 390 -219 q 299 -197 324 -219 q 274 -140 274 -174 q 299 -81 274 -106 q 357 -57 324 -57 q 415 -82 390 -57 q 440 -140 440 -107 z "},"U":{"ha":904,"x_min":13,"x_max":883,"o":"m 772 328 q 706 91 772 196 q 457 -14 639 -14 q 256 37 326 -14 q 163 169 186 88 q 139 367 139 251 l 139 775 l 13 803 l 13 849 l 379 849 l 379 803 l 254 775 l 254 367 q 297 138 254 219 q 463 57 340 57 q 693 329 693 57 l 693 776 l 574 803 l 574 849 l 883 849 l 883 803 l 772 776 l 772 328 z "},"Ú":{"ha":904,"x_min":13,"x_max":883,"o":"m 343 903 l 321 929 l 535 1110 l 640 1071 l 640 1046 l 343 903 m 772 328 q 706 91 772 196 q 457 -14 639 -14 q 256 37 326 -14 q 163 169 186 88 q 139 367 139 251 l 139 775 l 13 803 l 13 849 l 379 849 l 379 803 l 254 775 l 254 367 q 297 138 254 219 q 463 57 340 57 q 693 329 693 57 l 693 776 l 574 803 l 574 849 l 883 849 l 883 803 l 772 776 l 772 328 z "},"Ŭ":{"ha":904,"x_min":13,"x_max":883,"o":"m 13 0 m 772 328 q 706 91 772 196 q 457 -14 639 -14 q 256 37 326 -14 q 163 169 186 88 q 139 367 139 251 l 139 775 l 13 803 l 13 849 l 379 849 l 379 803 l 254 775 l 254 367 q 297 138 254 219 q 463 57 340 57 q 693 329 693 57 l 693 776 l 574 803 l 574 849 l 883 849 l 883 803 l 772 776 l 772 328 m 454 924 q 328 967 365 924 q 290 1082 290 1011 l 338 1085 q 362 1022 338 1046 q 451 999 386 999 q 544 1022 518 999 q 569 1085 569 1046 l 615 1082 q 454 924 615 924 z "},"Ǔ":{"ha":904,"x_min":13,"x_max":883,"o":"m 13 0 m 772 328 q 706 91 772 196 q 457 -14 639 -14 q 256 37 326 -14 q 163 169 186 88 q 139 367 139 251 l 139 775 l 13 803 l 13 849 l 379 849 l 379 803 l 254 775 l 254 367 q 297 138 254 219 q 463 57 340 57 q 693 329 693 57 l 693 776 l 574 803 l 574 849 l 883 849 l 883 803 l 772 776 l 772 328 m 413 904 l 271 1086 l 294 1111 l 456 997 l 610 1111 l 635 1086 l 496 904 l 413 904 z "},"Û":{"ha":904,"x_min":13,"x_max":883,"o":"m 633 904 l 472 1018 l 318 904 l 294 929 l 433 1111 l 517 1111 l 658 929 l 633 904 m 772 328 q 706 91 772 196 q 457 -14 639 -14 q 256 37 326 -14 q 163 169 186 88 q 139 367 139 251 l 139 775 l 13 803 l 13 849 l 379 849 l 379 803 l 254 775 l 254 367 q 297 138 254 219 q 463 57 340 57 q 693 329 693 57 l 693 776 l 574 803 l 574 849 l 883 849 l 883 803 l 772 776 l 772 328 z "},"Ȕ":{"ha":904,"x_min":13,"x_max":883,"o":"m 13 0 m 772 328 q 706 91 772 196 q 457 -14 639 -14 q 256 37 326 -14 q 163 169 186 88 q 139 367 139 251 l 139 775 l 13 803 l 13 849 l 379 849 l 379 803 l 254 775 l 254 367 q 297 138 254 219 q 463 57 340 57 q 693 329 693 57 l 693 776 l 574 803 l 574 849 l 883 849 l 883 803 l 772 776 l 772 328 m 343 906 l 167 1088 l 167 1111 l 271 1111 l 375 926 l 343 906 m 568 906 l 390 1088 l 390 1111 l 494 1111 l 599 926 l 568 906 z "},"Ü":{"ha":904,"x_min":13,"x_max":883,"o":"m 419 1003 q 396 949 419 972 q 340 926 372 926 q 285 949 308 926 q 261 1003 261 972 q 285 1060 261 1036 q 340 1083 308 1083 q 396 1060 372 1083 q 419 1003 419 1036 m 690 1003 q 666 949 690 972 q 610 926 642 926 q 554 949 578 926 q 531 1003 531 972 q 554 1060 531 1036 q 610 1083 578 1083 q 666 1060 642 1083 q 690 1003 690 1036 m 772 328 q 706 91 772 196 q 457 -14 639 -14 q 256 37 326 -14 q 163 169 186 88 q 139 367 139 251 l 139 775 l 13 803 l 13 849 l 379 849 l 379 803 l 254 775 l 254 367 q 297 138 254 219 q 463 57 340 57 q 693 329 693 57 l 693 776 l 574 803 l 574 849 l 883 849 l 883 803 l 772 776 l 772 328 z "},"Ǘ":{"ha":904,"x_min":13,"x_max":883,"o":"m 13 0 m 772 328 q 706 91 772 196 q 457 -14 639 -14 q 256 37 326 -14 q 163 169 186 88 q 139 367 139 251 l 139 775 l 13 803 l 13 849 l 379 849 l 379 803 l 254 775 l 254 367 q 297 138 254 219 q 463 57 340 57 q 693 329 693 57 l 693 776 l 574 803 l 574 849 l 883 849 l 883 803 l 772 776 l 772 328 m 396 1003 q 372 949 396 972 q 317 926 349 926 q 261 949 285 926 q 238 1003 238 972 q 261 1060 238 1036 q 317 1083 285 1083 q 372 1060 349 1083 q 396 1003 396 1036 m 667 1003 q 642 949 667 972 q 586 926 618 926 q 531 949 554 926 q 507 1003 507 972 q 531 1060 507 1036 q 586 1083 554 1083 q 642 1060 618 1083 q 667 1003 667 1036 m 392 1138 l 369 1164 l 583 1344 l 689 1306 l 689 1281 l 392 1138 z "},"Ǚ":{"ha":904,"x_min":13,"x_max":883,"o":"m 13 0 m 772 328 q 706 91 772 196 q 457 -14 639 -14 q 256 37 326 -14 q 163 169 186 88 q 139 367 139 251 l 139 775 l 13 803 l 13 849 l 379 849 l 379 803 l 254 775 l 254 367 q 297 138 254 219 q 463 57 340 57 q 693 329 693 57 l 693 776 l 574 803 l 574 849 l 883 849 l 883 803 l 772 776 l 772 328 m 396 1003 q 372 949 396 972 q 317 926 349 926 q 261 949 285 926 q 238 1003 238 972 q 261 1060 238 1036 q 317 1083 285 1083 q 372 1060 349 1083 q 396 1003 396 1036 m 667 1003 q 642 949 667 972 q 586 926 618 926 q 531 949 554 926 q 507 1003 507 972 q 531 1060 507 1036 q 586 1083 554 1083 q 642 1060 618 1083 q 667 1003 667 1036 m 415 1139 l 274 1321 l 297 1346 l 458 1232 l 613 1346 l 638 1321 l 499 1139 l 415 1139 z "},"Ǜ":{"ha":904,"x_min":13,"x_max":883,"o":"m 13 0 m 772 328 q 706 91 772 196 q 457 -14 639 -14 q 256 37 326 -14 q 163 169 186 88 q 139 367 139 251 l 139 775 l 13 803 l 13 849 l 379 849 l 379 803 l 254 775 l 254 367 q 297 138 254 219 q 463 57 340 57 q 693 329 693 57 l 693 776 l 574 803 l 574 849 l 883 849 l 883 803 l 772 776 l 772 328 m 396 1003 q 372 949 396 972 q 317 926 349 926 q 261 949 285 926 q 238 1003 238 972 q 261 1060 238 1036 q 317 1083 285 1083 q 372 1060 349 1083 q 396 1003 396 1036 m 667 1003 q 642 949 667 972 q 586 926 618 926 q 531 949 554 926 q 507 1003 507 972 q 531 1060 507 1036 q 586 1083 554 1083 q 642 1060 618 1083 q 667 1003 667 1036 m 526 1138 l 226 1281 l 226 1306 l 333 1344 l 546 1164 l 526 1138 z "},"Ǖ":{"ha":904,"x_min":13,"x_max":883,"o":"m 13 0 m 772 328 q 706 91 772 196 q 457 -14 639 -14 q 256 37 326 -14 q 163 169 186 88 q 139 367 139 251 l 139 775 l 13 803 l 13 849 l 379 849 l 379 803 l 254 775 l 254 367 q 297 138 254 219 q 463 57 340 57 q 693 329 693 57 l 693 776 l 574 803 l 574 849 l 883 849 l 883 803 l 772 776 l 772 328 m 396 1003 q 372 949 396 972 q 317 926 349 926 q 261 949 285 926 q 238 1003 238 972 q 261 1060 238 1036 q 317 1083 285 1083 q 372 1060 349 1083 q 396 1003 396 1036 m 667 1003 q 642 949 667 972 q 586 926 618 926 q 531 949 554 926 q 507 1003 507 972 q 531 1060 507 1036 q 586 1083 554 1083 q 642 1060 618 1083 q 667 1003 667 1036 m 304 1275 l 606 1275 l 606 1203 l 304 1203 l 304 1275 z "},"Ụ":{"ha":904,"x_min":13,"x_max":883,"o":"m 13 0 m 772 328 q 706 91 772 196 q 457 -14 639 -14 q 256 37 326 -14 q 163 169 186 88 q 139 367 139 251 l 139 775 l 13 803 l 13 849 l 379 849 l 379 803 l 254 775 l 254 367 q 297 138 254 219 q 463 57 340 57 q 693 329 693 57 l 693 776 l 574 803 l 574 849 l 883 849 l 883 803 l 772 776 l 772 328 m 536 -140 q 511 -197 536 -174 q 453 -219 486 -219 q 394 -197 419 -219 q 369 -140 369 -174 q 394 -81 369 -106 q 453 -57 419 -57 q 511 -82 486 -57 q 536 -140 536 -107 z "},"Ù":{"ha":904,"x_min":13,"x_max":883,"o":"m 544 903 l 244 1046 l 244 1071 l 351 1110 l 564 929 l 544 903 m 772 328 q 706 91 772 196 q 457 -14 639 -14 q 256 37 326 -14 q 163 169 186 88 q 139 367 139 251 l 139 775 l 13 803 l 13 849 l 379 849 l 379 803 l 254 775 l 254 367 q 297 138 254 219 q 463 57 340 57 q 693 329 693 57 l 693 776 l 574 803 l 574 849 l 883 849 l 883 803 l 772 776 l 772 328 z "},"Ủ":{"ha":904,"x_min":13,"x_max":883,"o":"m 13 0 m 772 328 q 706 91 772 196 q 457 -14 639 -14 q 256 37 326 -14 q 163 169 186 88 q 139 367 139 251 l 139 775 l 13 803 l 13 849 l 379 849 l 379 803 l 254 775 l 254 367 q 297 138 254 219 q 463 57 340 57 q 693 329 693 57 l 693 776 l 574 803 l 574 849 l 883 849 l 883 803 l 772 776 l 772 328 m 588 1044 q 501 974 588 988 l 493 939 l 440 939 l 435 994 q 513 1039 513 994 q 500 1067 513 1057 q 464 1076 488 1076 l 436 1075 l 425 1031 l 383 1031 l 375 1104 q 469 1113 426 1113 q 556 1095 525 1113 q 588 1044 588 1078 z "},"Ư":{"ha":904,"x_min":13,"x_max":968,"o":"m 968 938 q 939 864 968 896 q 860 813 910 832 l 772 776 l 772 328 q 706 91 772 196 q 457 -14 639 -14 q 256 37 326 -14 q 163 169 186 88 q 139 367 139 251 l 139 775 l 13 803 l 13 849 l 379 849 l 379 803 l 254 775 l 254 367 q 297 138 254 219 q 463 57 340 57 q 693 329 693 57 l 693 776 l 574 803 l 574 849 l 763 849 q 831 864 808 849 q 854 922 854 879 q 847 979 854 949 l 856 997 l 950 1017 q 963 976 958 999 q 968 938 968 954 z "},"Ứ":{"ha":904,"x_min":13,"x_max":968,"o":"m 13 0 m 968 938 q 939 864 968 896 q 860 813 910 832 l 772 776 l 772 328 q 706 91 772 196 q 457 -14 639 -14 q 256 37 326 -14 q 163 169 186 88 q 139 367 139 251 l 139 775 l 13 803 l 13 849 l 379 849 l 379 803 l 254 775 l 254 367 q 297 138 254 219 q 463 57 340 57 q 693 329 693 57 l 693 776 l 574 803 l 574 849 l 763 849 q 831 864 808 849 q 854 922 854 879 q 847 979 854 949 l 856 997 l 950 1017 q 963 976 958 999 q 968 938 968 954 m 389 903 l 367 929 l 581 1110 l 686 1071 l 686 1046 l 389 903 z "},"Ự":{"ha":904,"x_min":13,"x_max":968,"o":"m 13 0 m 968 938 q 939 864 968 896 q 860 813 910 832 l 772 776 l 772 328 q 706 91 772 196 q 457 -14 639 -14 q 256 37 326 -14 q 163 169 186 88 q 139 367 139 251 l 139 775 l 13 803 l 13 849 l 379 849 l 379 803 l 254 775 l 254 367 q 297 138 254 219 q 463 57 340 57 q 693 329 693 57 l 693 776 l 574 803 l 574 849 l 763 849 q 831 864 808 849 q 854 922 854 879 q 847 979 854 949 l 856 997 l 950 1017 q 963 976 958 999 q 968 938 968 954 m 536 -140 q 511 -197 536 -174 q 453 -219 486 -219 q 394 -197 419 -219 q 369 -140 369 -174 q 394 -81 369 -106 q 453 -57 419 -57 q 511 -82 486 -57 q 536 -140 536 -107 z "},"Ừ":{"ha":904,"x_min":13,"x_max":968,"o":"m 13 0 m 968 938 q 939 864 968 896 q 860 813 910 832 l 772 776 l 772 328 q 706 91 772 196 q 457 -14 639 -14 q 256 37 326 -14 q 163 169 186 88 q 139 367 139 251 l 139 775 l 13 803 l 13 849 l 379 849 l 379 803 l 254 775 l 254 367 q 297 138 254 219 q 463 57 340 57 q 693 329 693 57 l 693 776 l 574 803 l 574 849 l 763 849 q 831 864 808 849 q 854 922 854 879 q 847 979 854 949 l 856 997 l 950 1017 q 963 976 958 999 q 968 938 968 954 m 524 903 l 224 1046 l 224 1071 l 331 1110 l 543 929 l 524 903 z "},"Ử":{"ha":904,"x_min":13,"x_max":968,"o":"m 13 0 m 968 938 q 939 864 968 896 q 860 813 910 832 l 772 776 l 772 328 q 706 91 772 196 q 457 -14 639 -14 q 256 37 326 -14 q 163 169 186 88 q 139 367 139 251 l 139 775 l 13 803 l 13 849 l 379 849 l 379 803 l 254 775 l 254 367 q 297 138 254 219 q 463 57 340 57 q 693 329 693 57 l 693 776 l 574 803 l 574 849 l 763 849 q 831 864 808 849 q 854 922 854 879 q 847 979 854 949 l 856 997 l 950 1017 q 963 976 958 999 q 968 938 968 954 m 588 1044 q 501 974 588 988 l 493 939 l 440 939 l 435 994 q 513 1039 513 994 q 500 1067 513 1057 q 464 1076 488 1076 l 436 1075 l 425 1031 l 383 1031 l 375 1104 q 469 1113 426 1113 q 556 1095 525 1113 q 588 1044 588 1078 z "},"Ữ":{"ha":904,"x_min":13,"x_max":968,"o":"m 13 0 m 968 938 q 939 864 968 896 q 860 813 910 832 l 772 776 l 772 328 q 706 91 772 196 q 457 -14 639 -14 q 256 37 326 -14 q 163 169 186 88 q 139 367 139 251 l 139 775 l 13 803 l 13 849 l 379 849 l 379 803 l 254 775 l 254 367 q 297 138 254 219 q 463 57 340 57 q 693 329 693 57 l 693 776 l 574 803 l 574 849 l 763 849 q 831 864 808 849 q 854 922 854 879 q 847 979 854 949 l 856 997 l 950 1017 q 963 976 958 999 q 968 938 968 954 m 654 1058 q 606 962 628 994 q 553 929 583 929 q 453 957 528 929 q 356 985 378 985 q 328 974 342 985 q 305 951 314 963 q 293 935 296 939 l 251 951 q 301 1049 278 1017 q 354 1082 324 1082 q 397 1074 369 1082 q 451 1054 424 1065 q 507 1035 479 1043 q 551 1026 535 1026 q 578 1038 565 1026 q 601 1060 592 1049 q 611 1075 610 1071 l 654 1058 z "},"Ű":{"ha":904,"x_min":13,"x_max":883,"o":"m 319 906 l 289 926 l 393 1111 l 497 1111 l 497 1088 l 319 906 m 544 906 l 513 926 l 617 1111 l 721 1111 l 721 1088 l 544 906 m 772 328 q 706 91 772 196 q 457 -14 639 -14 q 256 37 326 -14 q 163 169 186 88 q 139 367 139 251 l 139 775 l 13 803 l 13 849 l 379 849 l 379 803 l 254 775 l 254 367 q 297 138 254 219 q 463 57 340 57 q 693 329 693 57 l 693 776 l 574 803 l 574 849 l 883 849 l 883 803 l 772 776 l 772 328 z "},"Ȗ":{"ha":904,"x_min":13,"x_max":883,"o":"m 13 0 m 772 328 q 706 91 772 196 q 457 -14 639 -14 q 256 37 326 -14 q 163 169 186 88 q 139 367 139 251 l 139 775 l 13 803 l 13 849 l 379 849 l 379 803 l 254 775 l 254 367 q 297 138 254 219 q 463 57 340 57 q 693 329 693 57 l 693 776 l 574 803 l 574 849 l 883 849 l 883 803 l 772 776 l 772 328 m 451 1092 q 578 1048 540 1092 q 615 933 615 1004 l 568 931 q 544 993 568 969 q 454 1017 519 1017 q 362 993 388 1017 q 336 931 336 969 l 290 933 q 451 1092 290 1092 z "},"Ū":{"ha":904,"x_min":13,"x_max":883,"o":"m 321 1040 l 622 1040 l 622 968 l 321 968 l 321 1040 m 772 328 q 706 91 772 196 q 457 -14 639 -14 q 256 37 326 -14 q 163 169 186 88 q 139 367 139 251 l 139 775 l 13 803 l 13 849 l 379 849 l 379 803 l 254 775 l 254 367 q 297 138 254 219 q 463 57 340 57 q 693 329 693 57 l 693 776 l 574 803 l 574 849 l 883 849 l 883 803 l 772 776 l 772 328 z "},"Ų":{"ha":904,"x_min":13,"x_max":883,"o":"m 501 -328 q 403 -294 436 -328 q 369 -210 369 -260 q 395 -103 369 -154 q 471 -14 421 -53 l 457 -14 q 256 37 326 -14 q 163 169 186 88 q 139 367 139 251 l 139 775 l 13 803 l 13 849 l 379 849 l 379 803 l 254 775 l 254 367 q 297 138 254 219 q 463 57 340 57 q 693 329 693 57 l 693 776 l 574 803 l 574 849 l 883 849 l 883 803 l 772 776 l 772 328 q 728 128 772 222 q 568 0 685 35 q 487 -73 510 -19 q 464 -185 464 -126 q 484 -245 464 -224 q 539 -267 504 -267 q 608 -236 579 -267 l 632 -258 q 615 -279 632 -261 q 569 -312 599 -297 q 501 -328 540 -328 z "},"Ů":{"ha":904,"x_min":13,"x_max":883,"o":"m 479 879 q 376 916 413 879 q 339 1011 339 953 q 376 1105 339 1068 q 479 1142 413 1142 q 582 1105 546 1142 q 618 1011 618 1068 q 582 916 618 953 q 479 879 546 879 m 479 928 q 536 949 522 928 q 550 1011 550 969 q 536 1073 550 1051 q 479 1094 522 1094 q 423 1073 438 1094 q 408 1011 408 1051 q 423 949 408 969 q 479 928 438 928 m 457 -14 q 256 37 326 -14 q 163 169 186 88 q 139 367 139 251 l 139 775 l 13 803 l 13 849 l 379 849 l 379 803 l 254 775 l 254 367 q 297 138 254 219 q 463 57 340 57 q 693 329 693 57 l 693 776 l 574 803 l 574 849 l 883 849 l 883 803 l 772 776 l 772 328 q 706 91 772 196 q 457 -14 639 -14 z "},"Ũ":{"ha":904,"x_min":13,"x_max":883,"o":"m 681 1100 q 632 1003 654 1036 q 579 971 610 971 q 479 999 554 971 q 382 1026 404 1026 q 354 1015 368 1026 q 331 992 340 1004 q 319 976 322 981 l 278 993 q 327 1091 304 1058 q 381 1124 350 1124 q 423 1115 396 1124 q 478 1096 450 1107 q 533 1076 506 1085 q 578 1068 561 1068 q 605 1079 592 1068 q 627 1101 618 1090 q 638 1117 636 1113 l 681 1100 m 772 328 q 706 91 772 196 q 457 -14 639 -14 q 256 37 326 -14 q 163 169 186 88 q 139 367 139 251 l 139 775 l 13 803 l 13 849 l 379 849 l 379 803 l 254 775 l 254 367 q 297 138 254 219 q 463 57 340 57 q 693 329 693 57 l 693 776 l 574 803 l 574 849 l 883 849 l 883 803 l 772 776 l 772 328 z "},"V":{"ha":833,"x_min":7,"x_max":826,"o":"m 379 -14 l 107 775 l 7 803 l 7 849 l 308 849 l 308 803 l 226 775 l 433 175 l 442 140 l 450 175 l 643 775 l 543 803 l 543 849 l 826 849 l 826 803 l 726 775 l 467 3 l 379 -14 z "},"W":{"ha":1039,"x_min":-33,"x_max":1078,"o":"m 790 849 l 1078 849 l 1078 803 l 976 775 l 786 3 l 708 -12 l 521 581 l 353 3 l 276 -12 l 67 775 l -33 803 l -33 849 l 271 849 l 271 803 l 190 775 l 331 207 l 485 775 l 576 792 l 754 190 l 889 775 l 790 803 l 790 849 z "},"Ẃ":{"ha":1039,"x_min":-33,"x_max":1078,"o":"m 0 0 m 790 849 l 1078 849 l 1078 803 l 976 775 l 786 3 l 708 -12 l 521 581 l 353 3 l 276 -12 l 67 775 l -33 803 l -33 849 l 271 849 l 271 803 l 190 775 l 331 207 l 485 775 l 576 792 l 754 190 l 889 775 l 790 803 l 790 849 m 449 903 l 426 929 l 640 1110 l 746 1071 l 746 1046 l 449 903 z "},"Ŵ":{"ha":1039,"x_min":-33,"x_max":1078,"o":"m 0 0 m 790 849 l 1078 849 l 1078 803 l 976 775 l 786 3 l 708 -12 l 521 581 l 353 3 l 276 -12 l 67 775 l -33 803 l -33 849 l 271 849 l 271 803 l 190 775 l 331 207 l 485 775 l 576 792 l 754 190 l 889 775 l 790 803 l 790 849 m 669 904 l 508 1018 l 354 904 l 331 929 l 469 1111 l 553 1111 l 694 929 l 669 904 z "},"Ẅ":{"ha":1039,"x_min":-33,"x_max":1078,"o":"m 0 0 m 790 849 l 1078 849 l 1078 803 l 976 775 l 786 3 l 708 -12 l 521 581 l 353 3 l 276 -12 l 67 775 l -33 803 l -33 849 l 271 849 l 271 803 l 190 775 l 331 207 l 485 775 l 576 792 l 754 190 l 889 775 l 790 803 l 790 849 m 456 1003 q 432 949 456 972 q 376 926 408 926 q 321 949 344 926 q 297 1003 297 972 q 321 1060 297 1036 q 376 1083 344 1083 q 432 1060 408 1083 q 456 1003 456 1036 m 726 1003 q 702 949 726 972 q 646 926 678 926 q 590 949 614 926 q 567 1003 567 972 q 590 1060 567 1036 q 646 1083 614 1083 q 702 1060 678 1083 q 726 1003 726 1036 z "},"Ẁ":{"ha":1039,"x_min":-33,"x_max":1078,"o":"m 0 0 m 790 849 l 1078 849 l 1078 803 l 976 775 l 786 3 l 708 -12 l 521 581 l 353 3 l 276 -12 l 67 775 l -33 803 l -33 849 l 271 849 l 271 803 l 190 775 l 331 207 l 485 775 l 576 792 l 754 190 l 889 775 l 790 803 l 790 849 m 583 903 l 283 1046 l 283 1071 l 390 1110 l 603 929 l 583 903 z "},"X":{"ha":785,"x_min":1,"x_max":786,"o":"m 289 46 l 289 0 l 1 0 l 1 46 l 97 74 l 326 426 l 103 775 l 10 803 l 10 849 l 321 849 l 321 803 l 242 775 l 414 504 l 586 775 l 493 803 l 493 849 l 779 849 l 779 803 l 683 775 l 460 432 l 692 72 l 786 46 l 786 0 l 472 0 l 472 46 l 554 72 l 372 353 l 194 74 l 289 46 z "},"Y":{"ha":788,"x_min":17,"x_max":790,"o":"m 504 803 l 504 849 l 790 849 l 790 803 l 690 775 l 457 311 l 457 74 l 606 46 l 606 0 l 194 0 l 194 46 l 343 74 l 343 311 l 111 775 l 17 803 l 17 849 l 329 849 l 329 803 l 249 775 l 422 413 l 603 775 l 504 803 z "},"Ý":{"ha":788,"x_min":6,"x_max":779,"o":"m 283 903 l 261 929 l 475 1110 l 581 1071 l 581 1046 l 283 903 m 493 803 l 493 849 l 779 849 l 779 803 l 679 775 l 446 311 l 446 74 l 594 46 l 594 0 l 183 0 l 183 46 l 332 74 l 332 311 l 100 775 l 6 803 l 6 849 l 318 849 l 318 803 l 238 775 l 411 413 l 592 775 l 493 803 z "},"Ŷ":{"ha":788,"x_min":6,"x_max":779,"o":"m 565 904 l 404 1018 l 250 904 l 226 929 l 365 1111 l 449 1111 l 590 929 l 565 904 m 493 803 l 493 849 l 779 849 l 779 803 l 679 775 l 446 311 l 446 74 l 594 46 l 594 0 l 183 0 l 183 46 l 332 74 l 332 311 l 100 775 l 6 803 l 6 849 l 318 849 l 318 803 l 238 775 l 411 413 l 592 775 l 493 803 z "},"Ÿ":{"ha":788,"x_min":6,"x_max":781,"o":"m 272 928 q 215 951 239 928 q 192 1006 192 974 q 215 1061 192 1038 q 272 1085 239 1085 q 326 1061 301 1085 q 350 1006 350 1038 q 326 951 350 974 q 272 928 303 928 m 542 928 q 485 951 510 928 q 461 1006 461 974 q 485 1061 461 1038 q 542 1085 510 1085 q 597 1061 572 1085 q 621 1006 621 1038 q 597 951 621 974 q 542 928 572 928 m 183 0 l 183 46 l 332 74 l 332 311 l 100 775 l 6 803 l 6 849 l 319 849 l 319 803 l 238 775 l 413 413 l 593 775 l 494 803 l 494 849 l 781 849 l 781 803 l 681 775 l 446 311 l 446 74 l 594 46 l 594 0 l 183 0 z "},"Ỵ":{"ha":788,"x_min":17,"x_max":790,"o":"m 17 0 m 504 803 l 504 849 l 790 849 l 790 803 l 690 775 l 457 311 l 457 74 l 606 46 l 606 0 l 194 0 l 194 46 l 343 74 l 343 311 l 111 775 l 17 803 l 17 849 l 329 849 l 329 803 l 249 775 l 422 413 l 603 775 l 504 803 m 478 -140 q 453 -197 478 -174 q 394 -219 428 -219 q 336 -197 361 -219 q 311 -140 311 -174 q 336 -81 311 -106 q 394 -57 361 -57 q 453 -82 428 -57 q 478 -140 478 -107 z "},"Ỳ":{"ha":788,"x_min":6,"x_max":781,"o":"m 546 903 l 249 1046 l 249 1071 l 356 1110 l 567 929 l 546 903 m 183 0 l 183 46 l 332 74 l 332 311 l 100 775 l 6 803 l 6 849 l 319 849 l 319 803 l 238 775 l 413 413 l 593 775 l 494 803 l 494 849 l 781 849 l 781 803 l 681 775 l 446 311 l 446 74 l 594 46 l 594 0 l 183 0 z "},"Ỷ":{"ha":788,"x_min":17,"x_max":790,"o":"m 17 0 m 504 803 l 504 849 l 790 849 l 790 803 l 690 775 l 457 311 l 457 74 l 606 46 l 606 0 l 194 0 l 194 46 l 343 74 l 343 311 l 111 775 l 17 803 l 17 849 l 329 849 l 329 803 l 249 775 l 422 413 l 603 775 l 504 803 m 529 1044 q 443 974 529 988 l 435 939 l 382 939 l 376 994 q 454 1039 454 994 q 442 1067 454 1057 q 406 1076 429 1076 l 378 1075 l 367 1031 l 325 1031 l 317 1104 q 411 1113 368 1113 q 498 1095 467 1113 q 529 1044 529 1078 z "},"Ȳ":{"ha":788,"x_min":17,"x_max":790,"o":"m 17 0 m 504 803 l 504 849 l 790 849 l 790 803 l 690 775 l 457 311 l 457 74 l 606 46 l 606 0 l 194 0 l 194 46 l 343 74 l 343 311 l 111 775 l 17 803 l 17 849 l 329 849 l 329 803 l 249 775 l 422 413 l 603 775 l 504 803 m 243 1040 l 544 1040 l 544 968 l 243 968 l 243 1040 z "},"Ỹ":{"ha":788,"x_min":6,"x_max":779,"o":"m 621 1100 q 572 1003 594 1036 q 519 971 550 971 q 419 999 494 971 q 322 1026 344 1026 q 294 1015 308 1026 q 272 992 281 1004 q 260 976 263 981 l 218 993 q 267 1091 244 1058 q 321 1124 290 1124 q 363 1115 336 1124 q 418 1096 390 1107 q 474 1076 446 1085 q 518 1068 501 1068 q 545 1079 532 1068 q 567 1101 558 1090 q 578 1117 576 1113 l 621 1100 m 493 803 l 493 849 l 779 849 l 779 803 l 679 775 l 446 311 l 446 74 l 594 46 l 594 0 l 183 0 l 183 46 l 332 74 l 332 311 l 100 775 l 6 803 l 6 849 l 318 849 l 318 803 l 238 775 l 411 413 l 592 775 l 493 803 z "},"Z":{"ha":719,"x_min":60,"x_max":658,"o":"m 658 204 l 643 0 l 85 0 l 60 46 l 514 775 l 185 775 l 154 665 l 101 665 l 89 849 l 647 849 l 654 804 l 204 75 l 553 75 l 604 204 l 658 204 z "},"Ź":{"ha":719,"x_min":60,"x_max":658,"o":"m 250 903 l 228 929 l 442 1110 l 547 1071 l 547 1046 l 250 903 m 658 204 l 643 0 l 85 0 l 60 46 l 514 775 l 185 775 l 154 665 l 101 665 l 89 849 l 647 849 l 654 804 l 204 75 l 553 75 l 604 204 l 658 204 z "},"Ž":{"ha":719,"x_min":65,"x_max":664,"o":"m 347 904 l 206 1086 l 229 1111 l 390 997 l 544 1111 l 569 1086 l 431 904 l 347 904 m 90 0 l 65 46 l 519 775 l 190 775 l 160 665 l 107 665 l 94 849 l 653 849 l 660 804 l 210 75 l 558 75 l 610 204 l 664 204 l 649 0 l 90 0 z "},"Ż":{"ha":719,"x_min":60,"x_max":658,"o":"m 460 1007 q 435 951 460 974 q 376 928 410 928 q 318 951 343 928 q 293 1007 293 974 q 318 1066 293 1042 q 376 1090 343 1090 q 435 1065 410 1090 q 460 1007 460 1040 m 658 204 l 643 0 l 85 0 l 60 46 l 514 775 l 185 775 l 154 665 l 101 665 l 89 849 l 647 849 l 654 804 l 204 75 l 553 75 l 604 204 l 658 204 z "},"Ẓ":{"ha":719,"x_min":60,"x_max":658,"o":"m 60 0 m 658 204 l 643 0 l 85 0 l 60 46 l 514 775 l 185 775 l 154 665 l 101 665 l 89 849 l 647 849 l 654 804 l 204 75 l 553 75 l 604 204 l 658 204 m 443 -140 q 418 -197 443 -174 q 360 -219 393 -219 q 301 -197 326 -219 q 276 -140 276 -174 q 301 -81 276 -106 q 360 -57 326 -57 q 418 -82 393 -57 q 443 -140 443 -107 z "},"a":{"ha":707,"x_min":56,"x_max":682,"o":"m 321 619 q 183 600 250 619 l 150 481 l 108 481 l 85 643 q 346 694 222 694 q 503 660 449 694 q 557 543 557 625 l 557 81 l 682 56 l 682 17 q 536 -6 610 -6 q 476 14 501 -6 q 444 71 451 33 q 204 -15 326 -15 q 95 36 135 -15 q 56 156 56 88 q 232 349 56 317 l 442 386 l 442 503 q 415 590 442 561 q 321 619 389 619 m 297 301 q 204 257 232 290 q 176 176 176 224 q 278 71 176 71 q 358 86 314 71 q 442 122 401 101 l 442 325 l 297 301 z "},"á":{"ha":707,"x_min":56,"x_max":682,"o":"m 56 0 m 321 619 q 183 600 250 619 l 150 481 l 108 481 l 85 643 q 346 694 222 694 q 503 660 449 694 q 557 543 557 625 l 557 81 l 682 56 l 682 17 q 536 -6 610 -6 q 476 14 501 -6 q 444 71 451 33 q 204 -15 326 -15 q 95 36 135 -15 q 56 156 56 88 q 232 349 56 317 l 442 386 l 442 503 q 415 590 442 561 q 321 619 389 619 m 297 301 q 204 257 232 290 q 176 176 176 224 q 278 71 176 71 q 358 86 314 71 q 442 122 401 101 l 442 325 l 297 301 m 243 775 l 221 801 l 435 982 l 540 943 l 540 918 l 243 775 z "},"ă":{"ha":707,"x_min":56,"x_max":682,"o":"m 319 803 q 193 847 231 803 q 156 961 156 890 l 203 964 q 227 901 203 925 q 317 878 251 878 q 409 901 383 878 q 435 964 435 925 l 481 961 q 319 803 481 803 m 321 619 q 183 600 250 619 l 150 481 l 108 481 l 85 643 q 346 694 222 694 q 503 660 449 694 q 557 543 557 625 l 557 81 l 682 56 l 682 17 q 536 -6 610 -6 q 476 14 501 -6 q 444 71 451 33 q 204 -15 326 -15 q 95 36 135 -15 q 56 156 56 88 q 232 349 56 317 l 442 386 l 442 503 q 415 590 442 561 q 321 619 389 619 m 297 301 q 204 257 232 290 q 176 176 176 224 q 278 71 176 71 q 358 86 314 71 q 442 122 401 101 l 442 325 l 297 301 z "},"ắ":{"ha":707,"x_min":56,"x_max":682,"o":"m 56 0 m 321 619 q 183 600 250 619 l 150 481 l 108 481 l 85 643 q 346 694 222 694 q 503 660 449 694 q 557 543 557 625 l 557 81 l 682 56 l 682 17 q 536 -6 610 -6 q 476 14 501 -6 q 444 71 451 33 q 204 -15 326 -15 q 95 36 135 -15 q 56 156 56 88 q 232 349 56 317 l 442 386 l 442 503 q 415 590 442 561 q 321 619 389 619 m 297 301 q 204 257 232 290 q 176 176 176 224 q 278 71 176 71 q 358 86 314 71 q 442 122 401 101 l 442 325 l 297 301 m 347 757 q 221 801 258 757 q 183 915 183 844 l 231 918 q 255 856 231 879 q 344 832 279 832 q 437 856 411 832 q 463 918 463 879 l 508 915 q 347 757 508 757 m 285 915 l 263 942 l 476 1122 l 582 1083 l 582 1058 l 285 915 z "},"ặ":{"ha":707,"x_min":56,"x_max":682,"o":"m 56 0 m 321 619 q 183 600 250 619 l 150 481 l 108 481 l 85 643 q 346 694 222 694 q 503 660 449 694 q 557 543 557 625 l 557 81 l 682 56 l 682 17 q 536 -6 610 -6 q 476 14 501 -6 q 444 71 451 33 q 204 -15 326 -15 q 95 36 135 -15 q 56 156 56 88 q 232 349 56 317 l 442 386 l 442 503 q 415 590 442 561 q 321 619 389 619 m 297 301 q 204 257 232 290 q 176 176 176 224 q 278 71 176 71 q 358 86 314 71 q 442 122 401 101 l 442 325 l 297 301 m 429 -140 q 404 -197 429 -174 q 346 -219 379 -219 q 288 -197 313 -219 q 263 -140 263 -174 q 288 -81 263 -106 q 346 -57 313 -57 q 404 -82 379 -57 q 429 -140 429 -107 m 347 803 q 221 847 258 803 q 183 961 183 890 l 231 964 q 255 901 231 925 q 344 878 279 878 q 437 901 411 878 q 463 964 463 925 l 508 961 q 347 803 508 803 z "},"ằ":{"ha":707,"x_min":56,"x_max":682,"o":"m 56 0 m 321 619 q 183 600 250 619 l 150 481 l 108 481 l 85 643 q 346 694 222 694 q 503 660 449 694 q 557 543 557 625 l 557 81 l 682 56 l 682 17 q 536 -6 610 -6 q 476 14 501 -6 q 444 71 451 33 q 204 -15 326 -15 q 95 36 135 -15 q 56 156 56 88 q 232 349 56 317 l 442 386 l 442 503 q 415 590 442 561 q 321 619 389 619 m 297 301 q 204 257 232 290 q 176 176 176 224 q 278 71 176 71 q 358 86 314 71 q 442 122 401 101 l 442 325 l 297 301 m 347 757 q 221 801 258 757 q 183 915 183 844 l 231 918 q 255 856 231 879 q 344 832 279 832 q 437 856 411 832 q 463 918 463 879 l 508 915 q 347 757 508 757 m 419 915 l 119 1058 l 119 1083 l 226 1122 l 439 942 l 419 915 z "},"ẳ":{"ha":707,"x_min":56,"x_max":682,"o":"m 56 0 m 321 619 q 183 600 250 619 l 150 481 l 108 481 l 85 643 q 346 694 222 694 q 503 660 449 694 q 557 543 557 625 l 557 81 l 682 56 l 682 17 q 536 -6 610 -6 q 476 14 501 -6 q 444 71 451 33 q 204 -15 326 -15 q 95 36 135 -15 q 56 156 56 88 q 232 349 56 317 l 442 386 l 442 503 q 415 590 442 561 q 321 619 389 619 m 297 301 q 204 257 232 290 q 176 176 176 224 q 278 71 176 71 q 358 86 314 71 q 442 122 401 101 l 442 325 l 297 301 m 347 757 q 221 801 258 757 q 183 915 183 844 l 231 918 q 255 856 231 879 q 344 832 279 832 q 437 856 411 832 q 463 918 463 879 l 508 915 q 347 757 508 757 m 483 1057 q 397 986 483 1000 l 389 951 l 336 951 l 331 1007 q 408 1051 408 1007 q 396 1079 408 1069 q 360 1089 383 1089 l 332 1088 l 321 1043 l 279 1043 l 271 1117 q 365 1125 322 1125 q 452 1108 421 1125 q 483 1057 483 1090 z "},"ẵ":{"ha":707,"x_min":56,"x_max":682,"o":"m 56 0 m 321 619 q 183 600 250 619 l 150 481 l 108 481 l 85 643 q 346 694 222 694 q 503 660 449 694 q 557 543 557 625 l 557 81 l 682 56 l 682 17 q 536 -6 610 -6 q 476 14 501 -6 q 444 71 451 33 q 204 -15 326 -15 q 95 36 135 -15 q 56 156 56 88 q 232 349 56 317 l 442 386 l 442 503 q 415 590 442 561 q 321 619 389 619 m 297 301 q 204 257 232 290 q 176 176 176 224 q 278 71 176 71 q 358 86 314 71 q 442 122 401 101 l 442 325 l 297 301 m 347 757 q 221 801 258 757 q 183 915 183 844 l 231 918 q 255 856 231 879 q 344 832 279 832 q 437 856 411 832 q 463 918 463 879 l 508 915 q 347 757 508 757 m 550 1071 q 501 974 524 1007 q 449 942 479 942 q 349 969 424 942 q 251 997 274 997 q 224 986 238 997 q 201 963 210 975 q 189 947 192 951 l 147 964 q 197 1062 174 1029 q 250 1094 219 1094 q 292 1086 265 1094 q 347 1067 319 1078 q 403 1047 375 1056 q 447 1039 431 1039 q 474 1050 461 1039 q 497 1072 488 1061 q 507 1088 506 1083 l 550 1071 z "},"ǎ":{"ha":707,"x_min":56,"x_max":682,"o":"m 56 0 m 321 619 q 183 600 250 619 l 150 481 l 108 481 l 85 643 q 346 694 222 694 q 503 660 449 694 q 557 543 557 625 l 557 81 l 682 56 l 682 17 q 536 -6 610 -6 q 476 14 501 -6 q 444 71 451 33 q 204 -15 326 -15 q 95 36 135 -15 q 56 156 56 88 q 232 349 56 317 l 442 386 l 442 503 q 415 590 442 561 q 321 619 389 619 m 297 301 q 204 257 232 290 q 176 176 176 224 q 278 71 176 71 q 358 86 314 71 q 442 122 401 101 l 442 325 l 297 301 m 197 993 l 347 868 l 496 993 l 525 968 l 389 775 l 306 775 l 167 968 l 197 993 z "},"â":{"ha":707,"x_min":56,"x_max":682,"o":"m 467 767 l 318 892 l 168 767 l 139 792 l 275 985 l 358 985 l 497 792 l 467 767 m 321 619 q 183 600 250 619 l 150 481 l 108 481 l 85 643 q 346 694 222 694 q 503 660 449 694 q 557 543 557 625 l 557 81 l 682 56 l 682 17 q 536 -6 610 -6 q 476 14 501 -6 q 444 71 451 33 q 204 -15 326 -15 q 95 36 135 -15 q 56 156 56 88 q 232 349 56 317 l 442 386 l 442 503 q 415 590 442 561 q 321 619 389 619 m 297 301 q 204 257 232 290 q 176 176 176 224 q 278 71 176 71 q 358 86 314 71 q 442 122 401 101 l 442 325 l 297 301 z "},"ấ":{"ha":707,"x_min":56,"x_max":767,"o":"m 535 842 l 507 860 l 644 1103 l 758 1103 l 767 1079 l 535 842 m 494 767 l 346 892 l 196 767 l 167 792 l 303 985 l 386 985 l 525 792 l 494 767 m 321 619 q 183 600 250 619 l 150 481 l 108 481 l 85 643 q 346 694 222 694 q 503 660 449 694 q 557 543 557 625 l 557 81 l 682 56 l 682 17 q 536 -6 610 -6 q 476 14 501 -6 q 444 71 451 33 q 204 -15 326 -15 q 95 36 135 -15 q 56 156 56 88 q 232 349 56 317 l 442 386 l 442 503 q 415 590 442 561 q 321 619 389 619 m 297 301 q 204 257 232 290 q 176 176 176 224 q 278 71 176 71 q 358 86 314 71 q 442 122 401 101 l 442 325 l 297 301 z "},"ậ":{"ha":707,"x_min":56,"x_max":682,"o":"m 56 0 m 321 619 q 183 600 250 619 l 150 481 l 108 481 l 85 643 q 346 694 222 694 q 503 660 449 694 q 557 543 557 625 l 557 81 l 682 56 l 682 17 q 536 -6 610 -6 q 476 14 501 -6 q 444 71 451 33 q 204 -15 326 -15 q 95 36 135 -15 q 56 156 56 88 q 232 349 56 317 l 442 386 l 442 503 q 415 590 442 561 q 321 619 389 619 m 297 301 q 204 257 232 290 q 176 176 176 224 q 278 71 176 71 q 358 86 314 71 q 442 122 401 101 l 442 325 l 297 301 m 429 -140 q 404 -197 429 -174 q 346 -219 379 -219 q 288 -197 313 -219 q 263 -140 263 -174 q 288 -81 263 -106 q 346 -57 313 -57 q 404 -82 379 -57 q 429 -140 429 -107 m 494 767 l 346 892 l 196 767 l 167 792 l 303 985 l 386 985 l 525 792 l 494 767 z "},"ầ":{"ha":707,"x_min":56,"x_max":682,"o":"m 576 842 l 344 1079 l 353 1103 l 467 1103 l 604 860 l 576 842 m 481 767 l 332 892 l 182 767 l 153 792 l 289 985 l 372 985 l 511 792 l 481 767 m 321 619 q 183 600 250 619 l 150 481 l 108 481 l 85 643 q 346 694 222 694 q 503 660 449 694 q 557 543 557 625 l 557 81 l 682 56 l 682 17 q 536 -6 610 -6 q 476 14 501 -6 q 444 71 451 33 q 204 -15 326 -15 q 95 36 135 -15 q 56 156 56 88 q 232 349 56 317 l 442 386 l 442 503 q 415 590 442 561 q 321 619 389 619 m 297 301 q 204 257 232 290 q 176 176 176 224 q 278 71 176 71 q 358 86 314 71 q 442 122 401 101 l 442 325 l 297 301 z "},"ẩ":{"ha":707,"x_min":56,"x_max":682,"o":"m 56 0 m 321 619 q 183 600 250 619 l 150 481 l 108 481 l 85 643 q 346 694 222 694 q 503 660 449 694 q 557 543 557 625 l 557 81 l 682 56 l 682 17 q 536 -6 610 -6 q 476 14 501 -6 q 444 71 451 33 q 204 -15 326 -15 q 95 36 135 -15 q 56 156 56 88 q 232 349 56 317 l 442 386 l 442 503 q 415 590 442 561 q 321 619 389 619 m 297 301 q 204 257 232 290 q 176 176 176 224 q 278 71 176 71 q 358 86 314 71 q 442 122 401 101 l 442 325 l 297 301 m 494 767 l 346 892 l 196 767 l 167 792 l 303 985 l 386 985 l 525 792 l 494 767 m 617 1035 q 531 964 617 978 l 522 929 l 469 929 l 464 985 q 542 1029 542 985 q 529 1057 542 1047 q 493 1067 517 1067 l 465 1065 l 454 1021 l 413 1021 l 404 1094 q 499 1103 456 1103 q 585 1085 554 1103 q 617 1035 617 1068 z "},"ẫ":{"ha":707,"x_min":56,"x_max":682,"o":"m 56 0 m 321 619 q 183 600 250 619 l 150 481 l 108 481 l 85 643 q 346 694 222 694 q 503 660 449 694 q 557 543 557 625 l 557 81 l 682 56 l 682 17 q 536 -6 610 -6 q 476 14 501 -6 q 444 71 451 33 q 204 -15 326 -15 q 95 36 135 -15 q 56 156 56 88 q 232 349 56 317 l 442 386 l 442 503 q 415 590 442 561 q 321 619 389 619 m 297 301 q 204 257 232 290 q 176 176 176 224 q 278 71 176 71 q 358 86 314 71 q 442 122 401 101 l 442 325 l 297 301 m 503 738 l 342 851 l 188 738 l 164 763 l 303 944 l 386 944 l 528 763 l 503 738 m 550 1085 q 501 988 524 1021 q 449 956 479 956 q 349 983 424 956 q 251 1011 274 1011 q 224 1000 238 1011 q 201 977 210 989 q 189 961 192 965 l 147 978 q 197 1076 174 1043 q 250 1108 219 1108 q 292 1100 265 1108 q 347 1081 319 1092 q 403 1061 375 1069 q 447 1053 431 1053 q 474 1064 461 1053 q 497 1086 488 1075 q 507 1101 506 1097 l 550 1085 z "},"ȁ":{"ha":707,"x_min":56,"x_max":682,"o":"m 56 0 m 321 619 q 183 600 250 619 l 150 481 l 108 481 l 85 643 q 346 694 222 694 q 503 660 449 694 q 557 543 557 625 l 557 81 l 682 56 l 682 17 q 536 -6 610 -6 q 476 14 501 -6 q 444 71 451 33 q 204 -15 326 -15 q 95 36 135 -15 q 56 156 56 88 q 232 349 56 317 l 442 386 l 442 503 q 415 590 442 561 q 321 619 389 619 m 297 301 q 204 257 232 290 q 176 176 176 224 q 278 71 176 71 q 358 86 314 71 q 442 122 401 101 l 442 325 l 297 301 m 267 756 l 64 968 l 64 992 l 168 992 l 293 771 l 267 756 m 490 756 l 288 968 l 288 992 l 392 992 l 517 771 l 490 756 z "},"ä":{"ha":707,"x_min":56,"x_max":682,"o":"m 265 882 q 242 828 265 851 q 186 806 218 806 q 131 828 154 806 q 107 882 107 851 q 131 939 107 915 q 186 963 154 963 q 242 939 218 963 q 265 882 265 915 m 536 882 q 512 828 536 851 q 456 806 488 806 q 400 828 424 806 q 376 882 376 851 q 400 939 376 915 q 456 963 424 963 q 512 939 488 963 q 536 882 536 915 m 321 619 q 183 600 250 619 l 150 481 l 108 481 l 85 643 q 346 694 222 694 q 503 660 449 694 q 557 543 557 625 l 557 81 l 682 56 l 682 17 q 536 -6 610 -6 q 476 14 501 -6 q 444 71 451 33 q 204 -15 326 -15 q 95 36 135 -15 q 56 156 56 88 q 232 349 56 317 l 442 386 l 442 503 q 415 590 442 561 q 321 619 389 619 m 297 301 q 204 257 232 290 q 176 176 176 224 q 278 71 176 71 q 358 86 314 71 q 442 122 401 101 l 442 325 l 297 301 z "},"ạ":{"ha":707,"x_min":56,"x_max":682,"o":"m 56 0 m 321 619 q 183 600 250 619 l 150 481 l 108 481 l 85 643 q 346 694 222 694 q 503 660 449 694 q 557 543 557 625 l 557 81 l 682 56 l 682 17 q 536 -6 610 -6 q 476 14 501 -6 q 444 71 451 33 q 204 -15 326 -15 q 95 36 135 -15 q 56 156 56 88 q 232 349 56 317 l 442 386 l 442 503 q 415 590 442 561 q 321 619 389 619 m 297 301 q 204 257 232 290 q 176 176 176 224 q 278 71 176 71 q 358 86 314 71 q 442 122 401 101 l 442 325 l 297 301 m 429 -140 q 404 -197 429 -174 q 346 -219 379 -219 q 288 -197 313 -219 q 263 -140 263 -174 q 288 -81 263 -106 q 346 -57 313 -57 q 404 -82 379 -57 q 429 -140 429 -107 z "},"à":{"ha":707,"x_min":56,"x_max":682,"o":"m 446 775 l 146 918 l 146 943 l 253 982 l 465 801 l 446 775 m 321 619 q 183 600 250 619 l 150 481 l 108 481 l 85 643 q 346 694 222 694 q 503 660 449 694 q 557 543 557 625 l 557 81 l 682 56 l 682 17 q 536 -6 610 -6 q 476 14 501 -6 q 444 71 451 33 q 204 -15 326 -15 q 95 36 135 -15 q 56 156 56 88 q 232 349 56 317 l 442 386 l 442 503 q 415 590 442 561 q 321 619 389 619 m 297 301 q 204 257 232 290 q 176 176 176 224 q 278 71 176 71 q 358 86 314 71 q 442 122 401 101 l 442 325 l 297 301 z "},"ả":{"ha":707,"x_min":56,"x_max":682,"o":"m 56 0 m 321 619 q 183 600 250 619 l 150 481 l 108 481 l 85 643 q 346 694 222 694 q 503 660 449 694 q 557 543 557 625 l 557 81 l 682 56 l 682 17 q 536 -6 610 -6 q 476 14 501 -6 q 444 71 451 33 q 204 -15 326 -15 q 95 36 135 -15 q 56 156 56 88 q 232 349 56 317 l 442 386 l 442 503 q 415 590 442 561 q 321 619 389 619 m 297 301 q 204 257 232 290 q 176 176 176 224 q 278 71 176 71 q 358 86 314 71 q 442 122 401 101 l 442 325 l 297 301 m 481 878 q 394 807 481 821 l 386 772 l 333 772 l 328 828 q 406 872 406 828 q 393 900 406 890 q 357 910 381 910 l 329 908 l 318 864 l 276 864 l 268 938 q 363 946 319 946 q 449 928 418 946 q 481 878 481 911 z "},"ȃ":{"ha":707,"x_min":56,"x_max":682,"o":"m 56 0 m 321 619 q 183 600 250 619 l 150 481 l 108 481 l 85 643 q 346 694 222 694 q 503 660 449 694 q 557 543 557 625 l 557 81 l 682 56 l 682 17 q 536 -6 610 -6 q 476 14 501 -6 q 444 71 451 33 q 204 -15 326 -15 q 95 36 135 -15 q 56 156 56 88 q 232 349 56 317 l 442 386 l 442 503 q 415 590 442 561 q 321 619 389 619 m 297 301 q 204 257 232 290 q 176 176 176 224 q 278 71 176 71 q 358 86 314 71 q 442 122 401 101 l 442 325 l 297 301 m 344 978 q 471 934 433 978 q 508 819 508 890 l 461 817 q 437 879 461 856 q 347 903 413 903 q 255 879 281 903 q 229 817 229 856 l 183 819 q 344 978 183 978 z "},"ā":{"ha":707,"x_min":56,"x_max":682,"o":"m 163 918 l 464 918 l 464 846 l 163 846 l 163 918 m 321 619 q 183 600 250 619 l 150 481 l 108 481 l 85 643 q 346 694 222 694 q 503 660 449 694 q 557 543 557 625 l 557 81 l 682 56 l 682 17 q 536 -6 610 -6 q 476 14 501 -6 q 444 71 451 33 q 204 -15 326 -15 q 95 36 135 -15 q 56 156 56 88 q 232 349 56 317 l 442 386 l 442 503 q 415 590 442 561 q 321 619 389 619 m 297 301 q 204 257 232 290 q 176 176 176 224 q 278 71 176 71 q 358 86 314 71 q 442 122 401 101 l 442 325 l 297 301 z "},"ą":{"ha":707,"x_min":56,"x_max":682,"o":"m 682 17 q 514 -185 514 -37 q 534 -245 514 -224 q 589 -267 554 -267 q 658 -236 629 -267 l 682 -258 q 665 -279 682 -261 q 619 -312 649 -297 q 551 -328 590 -328 q 453 -294 486 -328 q 419 -210 419 -260 q 455 -103 419 -157 q 551 -6 490 -49 l 536 -6 q 476 14 501 -6 q 444 71 451 33 q 204 -15 326 -15 q 95 36 135 -15 q 56 156 56 88 q 232 349 56 317 l 442 386 l 442 503 q 415 590 442 561 q 321 619 389 619 q 183 600 250 619 l 150 481 l 108 481 l 85 643 q 346 694 222 694 q 503 660 449 694 q 557 543 557 625 l 557 81 l 682 56 l 682 17 m 442 325 l 297 301 q 204 257 232 290 q 176 176 176 224 q 278 71 176 71 q 358 86 314 71 q 442 122 401 101 l 442 325 z "},"å":{"ha":707,"x_min":56,"x_max":682,"o":"m 464 874 q 427 774 464 813 q 321 735 390 735 q 214 774 251 735 q 176 874 176 813 q 213 975 176 936 q 321 1014 250 1014 q 427 975 390 1014 q 464 874 464 936 m 321 965 q 266 942 281 965 q 251 874 251 918 q 266 807 251 831 q 321 783 281 783 q 374 807 360 783 q 389 874 389 831 q 374 942 389 918 q 321 965 360 965 m 321 619 q 183 600 250 619 l 150 481 l 108 481 l 85 643 q 346 694 222 694 q 503 660 449 694 q 557 543 557 625 l 557 81 l 682 56 l 682 17 q 536 -6 610 -6 q 476 14 501 -6 q 444 71 451 33 q 204 -15 326 -15 q 95 36 135 -15 q 56 156 56 88 q 232 349 56 317 l 442 386 l 442 503 q 415 590 442 561 q 321 619 389 619 m 297 301 q 204 257 232 290 q 176 176 176 224 q 278 71 176 71 q 358 86 314 71 q 442 122 401 101 l 442 325 l 297 301 z "},"ǻ":{"ha":707,"x_min":56,"x_max":682,"o":"m 56 0 m 321 619 q 183 600 250 619 l 150 481 l 108 481 l 85 643 q 346 694 222 694 q 503 660 449 694 q 557 543 557 625 l 557 81 l 682 56 l 682 17 q 536 -6 610 -6 q 476 14 501 -6 q 444 71 451 33 q 204 -15 326 -15 q 95 36 135 -15 q 56 156 56 88 q 232 349 56 317 l 442 386 l 442 503 q 415 590 442 561 q 321 619 389 619 m 297 301 q 204 257 232 290 q 176 176 176 224 q 278 71 176 71 q 358 86 314 71 q 442 122 401 101 l 442 325 l 297 301 m 346 713 q 242 749 279 713 q 206 844 206 786 q 242 938 206 901 q 346 975 279 975 q 449 938 413 975 q 485 844 485 901 q 449 749 485 786 q 346 713 413 713 m 346 761 q 403 782 389 761 q 417 844 417 803 q 403 906 417 885 q 346 928 389 928 q 290 906 304 928 q 275 844 275 885 q 290 782 275 803 q 346 761 304 761 m 285 988 l 263 1014 l 476 1194 l 582 1156 l 582 1131 l 285 988 z "},"ã":{"ha":707,"x_min":56,"x_max":682,"o":"m 529 938 q 481 841 503 874 q 428 808 458 808 q 328 836 403 808 q 231 864 253 864 q 203 853 217 864 q 180 830 189 842 q 168 814 171 818 l 126 831 q 176 928 153 896 q 229 961 199 961 q 272 953 244 961 q 326 933 299 944 q 382 914 354 922 q 426 906 410 906 q 453 917 440 906 q 476 939 467 928 q 486 954 485 950 l 529 938 m 321 619 q 183 600 250 619 l 150 481 l 108 481 l 85 643 q 346 694 222 694 q 503 660 449 694 q 557 543 557 625 l 557 81 l 682 56 l 682 17 q 536 -6 610 -6 q 476 14 501 -6 q 444 71 451 33 q 204 -15 326 -15 q 95 36 135 -15 q 56 156 56 88 q 232 349 56 317 l 442 386 l 442 503 q 415 590 442 561 q 321 619 389 619 m 297 301 q 204 257 232 290 q 176 176 176 224 q 278 71 176 71 q 358 86 314 71 q 442 122 401 101 l 442 325 l 297 301 z "},"æ":{"ha":939,"x_min":42,"x_max":911,"o":"m 194 -14 q 77 38 113 -14 q 42 165 42 90 q 83 263 42 221 q 219 325 124 306 l 399 361 l 399 504 q 375 591 399 563 q 285 619 351 619 q 167 600 232 619 l 136 482 l 93 482 l 69 643 q 189 681 135 668 q 308 694 243 694 q 426 676 381 694 q 496 615 472 658 q 668 694 565 694 q 842 635 774 694 q 911 443 911 576 q 908 393 911 413 l 506 321 q 547 123 506 186 q 678 60 588 60 q 876 89 776 60 l 886 46 q 776 -1 829 14 q 653 -15 724 -15 q 514 10 561 -15 q 424 88 467 36 q 349 31 376 50 q 283 -1 321 13 q 194 -14 244 -14 m 788 439 q 668 624 788 624 q 553 564 593 624 q 507 379 513 504 l 788 439 m 260 67 q 326 81 296 67 q 399 126 357 94 l 399 301 l 281 279 q 185 243 210 267 q 160 175 160 219 q 185 96 160 125 q 260 67 210 67 z "},"ǽ":{"ha":939,"x_min":42,"x_max":911,"o":"m 42 0 m 194 -14 q 77 38 113 -14 q 42 165 42 90 q 83 263 42 221 q 219 325 124 306 l 399 361 l 399 504 q 375 591 399 563 q 285 619 351 619 q 167 600 232 619 l 136 482 l 93 482 l 69 643 q 189 681 135 668 q 308 694 243 694 q 426 676 381 694 q 496 615 472 658 q 668 694 565 694 q 842 635 774 694 q 911 443 911 576 q 908 393 911 413 l 506 321 q 547 123 506 186 q 678 60 588 60 q 876 89 776 60 l 886 46 q 776 -1 829 14 q 653 -15 724 -15 q 514 10 561 -15 q 424 88 467 36 q 349 31 376 50 q 283 -1 321 13 q 194 -14 244 -14 m 788 439 q 668 624 788 624 q 553 564 593 624 q 507 379 513 504 l 788 439 m 260 67 q 326 81 296 67 q 399 126 357 94 l 399 301 l 281 279 q 185 243 210 267 q 160 175 160 219 q 185 96 160 125 q 260 67 210 67 m 367 775 l 344 801 l 558 982 l 664 943 l 664 918 l 367 775 z "},"b":{"ha":771,"x_min":-7,"x_max":714,"o":"m 232 658 q 308 684 265 674 q 385 694 350 694 q 628 608 543 694 q 714 346 714 522 q 639 88 714 190 q 381 -14 564 -14 q 241 -3 322 -14 q 115 25 160 8 l 115 911 l -7 925 l -7 957 l 197 1010 l 232 1010 l 232 658 m 232 72 q 291 55 254 63 q 369 47 328 47 q 539 119 492 47 q 586 343 586 190 q 540 558 586 489 q 375 628 494 628 q 301 619 333 628 q 232 596 268 611 l 232 72 z "},"c":{"ha":611,"x_min":57,"x_max":582,"o":"m 357 -14 q 131 83 204 -14 q 57 338 57 181 q 130 597 57 499 q 357 694 203 694 q 470 684 419 694 q 579 651 521 674 l 553 481 l 510 481 l 476 606 q 358 624 419 624 q 222 552 260 624 q 185 342 185 481 q 224 133 185 206 q 364 61 263 61 q 475 69 418 61 q 574 92 532 78 l 582 47 q 469 1 519 15 q 357 -14 418 -14 z "},"ć":{"ha":611,"x_min":54,"x_max":579,"o":"m 221 775 l 199 801 l 413 982 l 518 943 l 518 918 l 221 775 m 354 -14 q 128 83 201 -14 q 54 338 54 181 q 127 597 54 499 q 354 694 200 694 q 467 684 417 694 q 576 651 518 674 l 550 481 l 507 481 l 474 606 q 356 624 417 624 q 219 552 257 624 q 182 342 182 481 q 221 133 182 206 q 361 61 260 61 q 472 69 415 61 q 571 92 529 78 l 579 47 q 466 1 517 15 q 354 -14 415 -14 z "},"č":{"ha":611,"x_min":54,"x_max":579,"o":"m 203 993 l 353 868 l 501 993 l 531 968 l 394 775 l 311 775 l 172 968 l 203 993 m 354 -14 q 128 83 201 -14 q 54 338 54 181 q 127 597 54 499 q 354 694 200 694 q 467 684 417 694 q 576 651 518 674 l 550 481 l 507 481 l 474 606 q 356 624 417 624 q 219 552 257 624 q 182 342 182 481 q 221 133 182 206 q 361 61 260 61 q 472 69 415 61 q 571 92 529 78 l 579 47 q 466 1 517 15 q 354 -14 415 -14 z "},"ç":{"ha":611,"x_min":54,"x_max":579,"o":"m 299 -304 q 226 -293 258 -304 l 238 -258 q 286 -267 264 -267 q 365 -239 335 -267 q 396 -172 396 -211 q 370 -124 396 -143 q 289 -106 344 -106 l 285 -93 l 313 -11 q 117 98 181 3 q 54 338 54 193 q 127 597 54 499 q 354 694 200 694 q 467 684 417 694 q 576 651 518 674 l 550 481 l 507 481 l 474 606 q 356 624 417 624 q 219 552 257 624 q 182 342 182 481 q 221 133 182 206 q 361 61 260 61 q 472 69 415 61 q 571 92 529 78 l 579 47 q 466 1 517 15 q 354 -14 415 -14 l 338 -64 q 448 -92 410 -64 q 486 -161 486 -119 q 460 -233 486 -200 q 392 -285 435 -265 q 299 -304 349 -304 z "},"ĉ":{"ha":611,"x_min":57,"x_max":582,"o":"m 57 0 m 357 -14 q 131 83 204 -14 q 57 338 57 181 q 130 597 57 499 q 357 694 203 694 q 470 684 419 694 q 579 651 521 674 l 553 481 l 510 481 l 476 606 q 358 624 419 624 q 222 552 260 624 q 185 342 185 481 q 224 133 185 206 q 364 61 263 61 q 475 69 418 61 q 574 92 532 78 l 582 47 q 469 1 519 15 q 357 -14 418 -14 m 510 767 l 361 892 l 211 767 l 182 792 l 318 985 l 401 985 l 540 792 l 510 767 z "},"ċ":{"ha":611,"x_min":57,"x_max":582,"o":"m 57 0 m 357 -14 q 131 83 204 -14 q 57 338 57 181 q 130 597 57 499 q 357 694 203 694 q 470 684 419 694 q 579 651 521 674 l 553 481 l 510 481 l 476 606 q 358 624 419 624 q 222 552 260 624 q 185 342 185 481 q 224 133 185 206 q 364 61 263 61 q 475 69 418 61 q 574 92 532 78 l 582 47 q 469 1 519 15 q 357 -14 418 -14 m 444 885 q 419 828 444 851 q 361 806 394 806 q 303 828 328 806 q 278 885 278 851 q 303 944 278 919 q 361 968 328 968 q 419 943 394 968 q 444 885 444 918 z "},"d":{"ha":796,"x_min":57,"x_max":775,"o":"m 540 64 q 427 6 482 25 q 304 -14 372 -14 q 169 34 225 -14 q 85 162 113 82 q 57 338 57 242 q 140 599 57 504 q 374 694 224 694 q 448 688 411 694 q 510 674 485 682 q 536 664 536 665 l 536 911 l 411 925 l 411 957 l 614 1010 l 651 1010 l 651 81 l 775 56 l 775 17 q 628 -6 703 -6 q 572 13 599 -6 q 540 64 546 32 m 358 67 q 536 121 439 67 l 536 588 q 378 629 463 629 q 235 553 285 629 q 185 342 185 476 q 228 141 185 215 q 358 67 272 67 z "},"ð":{"ha":760,"x_min":57,"x_max":703,"o":"m 379 -14 q 136 83 215 -14 q 57 338 57 181 q 135 596 57 497 q 379 694 213 694 q 470 678 428 694 q 543 631 513 661 q 442 828 513 732 l 249 717 l 218 769 l 404 876 q 267 1014 346 943 l 296 1053 q 476 918 397 997 l 667 1028 l 699 975 l 518 871 q 660 607 618 749 q 703 350 703 465 q 624 85 703 183 q 379 -14 546 -14 m 383 53 q 535 131 494 53 q 575 343 575 208 q 532 551 575 474 q 375 629 489 629 q 227 550 268 629 q 186 343 186 471 q 383 53 186 53 z "},"ď":{"ha":828,"x_min":57,"x_max":849,"o":"m 304 -14 q 169 34 225 -14 q 85 162 113 82 q 57 338 57 242 q 140 599 57 504 q 374 694 224 694 q 448 688 411 694 q 510 674 485 682 q 536 664 536 665 l 536 911 l 411 925 l 411 957 l 614 1010 l 651 1010 l 651 81 l 775 56 l 775 17 q 628 -6 703 -6 q 572 13 599 -6 q 540 64 546 32 q 427 6 482 25 q 304 -14 372 -14 m 774 713 l 733 1008 l 772 1008 l 849 983 l 806 713 l 774 713 m 358 67 q 536 121 439 67 l 536 588 q 378 629 463 629 q 235 553 285 629 q 185 342 185 476 q 228 141 185 215 q 358 67 272 67 z "},"đ":{"ha":800,"x_min":57,"x_max":775,"o":"m 775 56 l 775 17 q 628 -6 703 -6 q 572 13 599 -6 q 540 64 546 32 q 427 6 482 25 q 304 -14 372 -14 q 169 34 225 -14 q 85 162 113 82 q 57 338 57 242 q 140 599 57 504 q 374 694 224 694 q 444 687 407 694 q 508 669 481 679 q 536 658 536 660 l 536 811 l 338 811 l 338 875 l 536 875 l 536 929 l 411 958 l 411 989 l 614 1010 l 651 1010 l 651 875 l 744 875 l 744 811 l 651 811 l 651 81 l 775 56 m 536 593 q 461 619 504 608 q 381 629 418 629 q 232 553 282 629 q 182 342 182 478 q 226 140 182 214 q 358 67 269 67 q 456 81 408 67 q 536 115 503 96 l 536 593 z "},"ḍ":{"ha":796,"x_min":57,"x_max":775,"o":"m 57 0 m 540 64 q 427 6 482 25 q 304 -14 372 -14 q 169 34 225 -14 q 85 162 113 82 q 57 338 57 242 q 140 599 57 504 q 374 694 224 694 q 448 688 411 694 q 510 674 485 682 q 536 664 536 665 l 536 911 l 411 925 l 411 957 l 614 1010 l 651 1010 l 651 81 l 775 56 l 775 17 q 628 -6 703 -6 q 572 13 599 -6 q 540 64 546 32 m 358 67 q 536 121 439 67 l 536 588 q 378 629 463 629 q 235 553 285 629 q 185 342 185 476 q 228 141 185 215 q 358 67 272 67 m 482 -140 q 457 -197 482 -174 q 399 -219 432 -219 q 340 -197 365 -219 q 315 -140 315 -174 q 340 -81 315 -106 q 399 -57 365 -57 q 457 -82 432 -57 q 482 -140 482 -107 z "},"ǳ":{"ha":1435,"x_min":57,"x_max":1382,"o":"m 57 0 m 540 64 q 427 6 482 25 q 304 -14 372 -14 q 169 34 225 -14 q 85 162 113 82 q 57 338 57 242 q 140 599 57 504 q 374 694 224 694 q 448 688 411 694 q 510 674 485 682 q 536 664 536 665 l 536 911 l 411 925 l 411 957 l 614 1010 l 651 1010 l 651 81 l 775 56 l 775 17 q 628 -6 703 -6 q 572 13 599 -6 q 540 64 546 32 m 358 67 q 536 121 439 67 l 536 588 q 378 629 463 629 q 235 553 285 629 q 185 342 185 476 q 228 141 185 215 q 358 67 272 67 m 1231 608 l 954 608 l 932 503 l 881 503 l 863 682 l 1358 682 l 1382 636 l 990 71 l 1281 71 l 1324 181 l 1372 181 l 1360 0 l 868 0 l 846 47 l 1231 608 z "},"ǆ":{"ha":1435,"x_min":57,"x_max":1382,"o":"m 57 0 m 540 64 q 427 6 482 25 q 304 -14 372 -14 q 169 34 225 -14 q 85 162 113 82 q 57 338 57 242 q 140 599 57 504 q 374 694 224 694 q 448 688 411 694 q 510 674 485 682 q 536 664 536 665 l 536 911 l 411 925 l 411 957 l 614 1010 l 651 1010 l 651 81 l 775 56 l 775 17 q 628 -6 703 -6 q 572 13 599 -6 q 540 64 546 32 m 358 67 q 536 121 439 67 l 536 588 q 378 629 463 629 q 235 553 285 629 q 185 342 185 476 q 228 141 185 215 q 358 67 272 67 m 1231 608 l 954 608 l 932 503 l 881 503 l 863 682 l 1358 682 l 1382 636 l 990 71 l 1281 71 l 1324 181 l 1372 181 l 1360 0 l 868 0 l 846 47 l 1231 608 m 967 993 l 1117 868 l 1265 993 l 1294 968 l 1158 775 l 1075 775 l 936 968 l 967 993 z "},"e":{"ha":654,"x_min":53,"x_max":611,"o":"m 365 -15 q 131 74 210 -15 q 53 338 53 164 q 129 603 53 511 q 350 694 206 694 q 547 631 483 694 q 611 433 611 568 q 608 364 611 417 l 181 364 l 181 319 q 235 128 181 197 q 385 58 289 58 q 486 67 431 58 q 593 89 542 75 l 601 46 q 489 -1 542 13 q 365 -15 436 -15 m 486 426 l 486 458 q 456 585 486 544 q 358 626 425 626 q 229 577 269 626 q 183 413 189 528 l 486 426 z "},"é":{"ha":654,"x_min":53,"x_max":611,"o":"m 236 775 l 214 801 l 428 982 l 533 943 l 533 918 l 236 775 m 365 -15 q 131 74 210 -15 q 53 338 53 164 q 129 603 53 511 q 350 694 206 694 q 547 631 483 694 q 611 433 611 568 q 608 364 611 417 l 181 364 l 181 319 q 235 128 181 197 q 385 58 289 58 q 486 67 431 58 q 593 89 542 75 l 601 46 q 489 -1 542 13 q 365 -15 436 -15 m 486 426 l 486 458 q 456 585 486 544 q 358 626 425 626 q 229 577 269 626 q 183 413 189 528 l 486 426 z "},"ĕ":{"ha":654,"x_min":53,"x_max":611,"o":"m 53 0 m 365 -15 q 131 74 210 -15 q 53 338 53 164 q 129 603 53 511 q 350 694 206 694 q 547 631 483 694 q 611 433 611 568 q 608 364 611 417 l 181 364 l 181 319 q 235 128 181 197 q 385 58 289 58 q 486 67 431 58 q 593 89 542 75 l 601 46 q 489 -1 542 13 q 365 -15 436 -15 m 486 426 l 486 458 q 456 585 486 544 q 358 626 425 626 q 229 577 269 626 q 183 413 189 528 l 486 426 m 329 803 q 203 847 240 803 q 165 961 165 890 l 213 964 q 237 901 213 925 q 326 878 261 878 q 419 901 393 878 q 444 964 444 925 l 490 961 q 329 803 490 803 z "},"ě":{"ha":654,"x_min":53,"x_max":611,"o":"m 308 775 l 169 968 l 200 993 l 350 868 l 499 993 l 528 968 l 392 775 l 308 775 m 365 -15 q 131 74 210 -15 q 53 338 53 164 q 129 603 53 511 q 350 694 206 694 q 547 631 483 694 q 611 433 611 568 q 608 364 611 417 l 181 364 l 181 319 q 235 128 181 197 q 385 58 289 58 q 486 67 431 58 q 593 89 542 75 l 601 46 q 489 -1 542 13 q 365 -15 436 -15 m 486 426 l 486 458 q 456 585 486 544 q 358 626 425 626 q 229 577 269 626 q 183 413 189 528 l 486 426 z "},"ê":{"ha":654,"x_min":53,"x_max":611,"o":"m 200 767 l 171 792 l 307 985 l 390 985 l 529 792 l 499 767 l 350 892 l 200 767 m 365 -15 q 131 74 210 -15 q 53 338 53 164 q 129 603 53 511 q 350 694 206 694 q 547 631 483 694 q 611 433 611 568 q 608 364 611 417 l 181 364 l 181 319 q 235 128 181 197 q 385 58 289 58 q 486 67 431 58 q 593 89 542 75 l 601 46 q 489 -1 542 13 q 365 -15 436 -15 m 486 426 l 486 458 q 456 585 486 544 q 358 626 425 626 q 229 577 269 626 q 183 413 189 528 l 486 426 z "},"ế":{"ha":654,"x_min":53,"x_max":749,"o":"m 517 842 l 489 860 l 626 1103 l 740 1103 l 749 1079 l 517 842 m 476 767 l 328 892 l 178 767 l 149 792 l 285 985 l 368 985 l 507 792 l 476 767 m 365 -15 q 131 74 210 -15 q 53 338 53 164 q 129 603 53 511 q 350 694 206 694 q 547 631 483 694 q 611 433 611 568 q 608 364 611 417 l 181 364 l 181 319 q 235 128 181 197 q 385 58 289 58 q 486 67 431 58 q 593 89 542 75 l 601 46 q 489 -1 542 13 q 365 -15 436 -15 m 486 426 l 486 458 q 456 585 486 544 q 358 626 425 626 q 229 577 269 626 q 183 413 189 528 l 486 426 z "},"ệ":{"ha":654,"x_min":53,"x_max":611,"o":"m 53 0 m 365 -15 q 131 74 210 -15 q 53 338 53 164 q 129 603 53 511 q 350 694 206 694 q 547 631 483 694 q 611 433 611 568 q 608 364 611 417 l 181 364 l 181 319 q 235 128 181 197 q 385 58 289 58 q 486 67 431 58 q 593 89 542 75 l 601 46 q 489 -1 542 13 q 365 -15 436 -15 m 486 426 l 486 458 q 456 585 486 544 q 358 626 425 626 q 229 577 269 626 q 183 413 189 528 l 486 426 m 411 -140 q 386 -197 411 -174 q 328 -219 361 -219 q 269 -197 294 -219 q 244 -140 244 -174 q 269 -81 244 -106 q 328 -57 294 -57 q 386 -82 361 -57 q 411 -140 411 -107 m 476 767 l 328 892 l 178 767 l 149 792 l 285 985 l 368 985 l 507 792 l 476 767 z "},"ề":{"ha":654,"x_min":53,"x_max":611,"o":"m 558 842 l 326 1079 l 335 1103 l 449 1103 l 586 860 l 558 842 m 463 767 l 314 892 l 164 767 l 135 792 l 271 985 l 354 985 l 493 792 l 463 767 m 365 -15 q 131 74 210 -15 q 53 338 53 164 q 129 603 53 511 q 350 694 206 694 q 547 631 483 694 q 611 433 611 568 q 608 364 611 417 l 181 364 l 181 319 q 235 128 181 197 q 385 58 289 58 q 486 67 431 58 q 593 89 542 75 l 601 46 q 489 -1 542 13 q 365 -15 436 -15 m 486 426 l 486 458 q 456 585 486 544 q 358 626 425 626 q 229 577 269 626 q 183 413 189 528 l 486 426 z "},"ể":{"ha":654,"x_min":53,"x_max":611,"o":"m 53 0 m 365 -15 q 131 74 210 -15 q 53 338 53 164 q 129 603 53 511 q 350 694 206 694 q 547 631 483 694 q 611 433 611 568 q 608 364 611 417 l 181 364 l 181 319 q 235 128 181 197 q 385 58 289 58 q 486 67 431 58 q 593 89 542 75 l 601 46 q 489 -1 542 13 q 365 -15 436 -15 m 486 426 l 486 458 q 456 585 486 544 q 358 626 425 626 q 229 577 269 626 q 183 413 189 528 l 486 426 m 476 767 l 328 892 l 178 767 l 149 792 l 285 985 l 368 985 l 507 792 l 476 767 m 599 1035 q 513 964 599 978 l 504 929 l 451 929 l 446 985 q 524 1029 524 985 q 511 1057 524 1047 q 475 1067 499 1067 l 447 1065 l 436 1021 l 394 1021 l 386 1094 q 481 1103 438 1103 q 567 1085 536 1103 q 599 1035 599 1068 z "},"ễ":{"ha":654,"x_min":53,"x_max":611,"o":"m 53 0 m 365 -15 q 131 74 210 -15 q 53 338 53 164 q 129 603 53 511 q 350 694 206 694 q 547 631 483 694 q 611 433 611 568 q 608 364 611 417 l 181 364 l 181 319 q 235 128 181 197 q 385 58 289 58 q 486 67 431 58 q 593 89 542 75 l 601 46 q 489 -1 542 13 q 365 -15 436 -15 m 486 426 l 486 458 q 456 585 486 544 q 358 626 425 626 q 229 577 269 626 q 183 413 189 528 l 486 426 m 485 738 l 324 851 l 169 738 l 146 763 l 285 944 l 368 944 l 510 763 l 485 738 m 532 1085 q 483 988 506 1021 q 431 956 461 956 q 331 983 406 956 q 233 1011 256 1011 q 206 1000 219 1011 q 183 977 192 989 q 171 961 174 965 l 129 978 q 178 1076 156 1043 q 232 1108 201 1108 q 274 1100 247 1108 q 329 1081 301 1092 q 385 1061 357 1069 q 429 1053 413 1053 q 456 1064 443 1053 q 478 1086 469 1075 q 489 1101 488 1097 l 532 1085 z "},"ȅ":{"ha":654,"x_min":46,"x_max":611,"o":"m 46 0 m 365 -15 q 131 74 210 -15 q 53 338 53 164 q 129 603 53 511 q 350 694 206 694 q 547 631 483 694 q 611 433 611 568 q 608 364 611 417 l 181 364 l 181 319 q 235 128 181 197 q 385 58 289 58 q 486 67 431 58 q 593 89 542 75 l 601 46 q 489 -1 542 13 q 365 -15 436 -15 m 486 426 l 486 458 q 456 585 486 544 q 358 626 425 626 q 229 577 269 626 q 183 413 189 528 l 486 426 m 249 756 l 46 968 l 46 992 l 150 992 l 275 771 l 249 756 m 472 756 l 269 968 l 269 992 l 374 992 l 499 771 l 472 756 z "},"ë":{"ha":654,"x_min":53,"x_max":611,"o":"m 214 806 q 158 828 182 806 q 135 882 135 851 q 158 939 135 915 q 214 963 182 963 q 269 939 246 963 q 293 882 293 915 q 269 828 293 851 q 214 806 246 806 m 483 806 q 428 828 451 806 q 404 882 404 851 q 428 939 404 915 q 483 963 451 963 q 540 939 515 963 q 564 882 564 915 q 540 828 564 851 q 483 806 515 806 m 365 -15 q 131 74 210 -15 q 53 338 53 164 q 129 603 53 511 q 350 694 206 694 q 547 631 483 694 q 611 433 611 568 q 608 364 611 417 l 181 364 l 181 319 q 235 128 181 197 q 385 58 289 58 q 486 67 431 58 q 593 89 542 75 l 601 46 q 489 -1 542 13 q 365 -15 436 -15 m 486 426 l 486 458 q 456 585 486 544 q 358 626 425 626 q 229 577 269 626 q 183 413 189 528 l 486 426 z "},"ė":{"ha":654,"x_min":53,"x_max":611,"o":"m 350 806 q 292 828 317 806 q 267 885 267 851 q 292 944 267 919 q 350 968 317 968 q 408 943 383 968 q 433 885 433 918 q 408 828 433 851 q 350 806 383 806 m 365 -15 q 131 74 210 -15 q 53 338 53 164 q 129 603 53 511 q 350 694 206 694 q 547 631 483 694 q 611 433 611 568 q 608 364 611 417 l 181 364 l 181 319 q 235 128 181 197 q 385 58 289 58 q 486 67 431 58 q 593 89 542 75 l 601 46 q 489 -1 542 13 q 365 -15 436 -15 m 486 426 l 486 458 q 456 585 486 544 q 358 626 425 626 q 229 577 269 626 q 183 413 189 528 l 486 426 z "},"ẹ":{"ha":654,"x_min":53,"x_max":611,"o":"m 53 0 m 365 -15 q 131 74 210 -15 q 53 338 53 164 q 129 603 53 511 q 350 694 206 694 q 547 631 483 694 q 611 433 611 568 q 608 364 611 417 l 181 364 l 181 319 q 235 128 181 197 q 385 58 289 58 q 486 67 431 58 q 593 89 542 75 l 601 46 q 489 -1 542 13 q 365 -15 436 -15 m 486 426 l 486 458 q 456 585 486 544 q 358 626 425 626 q 229 577 269 626 q 183 413 189 528 l 486 426 m 411 -140 q 386 -197 411 -174 q 328 -219 361 -219 q 269 -197 294 -219 q 244 -140 244 -174 q 269 -81 244 -106 q 328 -57 294 -57 q 386 -82 361 -57 q 411 -140 411 -107 z "},"è":{"ha":654,"x_min":53,"x_max":611,"o":"m 458 775 l 158 918 l 158 943 l 265 982 l 478 801 l 458 775 m 365 -15 q 131 74 210 -15 q 53 338 53 164 q 129 603 53 511 q 350 694 206 694 q 547 631 483 694 q 611 433 611 568 q 608 364 611 417 l 181 364 l 181 319 q 235 128 181 197 q 385 58 289 58 q 486 67 431 58 q 593 89 542 75 l 601 46 q 489 -1 542 13 q 365 -15 436 -15 m 486 426 l 486 458 q 456 585 486 544 q 358 626 425 626 q 229 577 269 626 q 183 413 189 528 l 486 426 z "},"ẻ":{"ha":654,"x_min":53,"x_max":611,"o":"m 53 0 m 365 -15 q 131 74 210 -15 q 53 338 53 164 q 129 603 53 511 q 350 694 206 694 q 547 631 483 694 q 611 433 611 568 q 608 364 611 417 l 181 364 l 181 319 q 235 128 181 197 q 385 58 289 58 q 486 67 431 58 q 593 89 542 75 l 601 46 q 489 -1 542 13 q 365 -15 436 -15 m 486 426 l 486 458 q 456 585 486 544 q 358 626 425 626 q 229 577 269 626 q 183 413 189 528 l 486 426 m 463 878 q 376 807 463 821 l 368 772 l 315 772 l 310 828 q 388 872 388 828 q 375 900 388 890 q 339 910 363 910 l 311 908 l 300 864 l 258 864 l 250 938 q 344 946 301 946 q 431 928 400 946 q 463 878 463 911 z "},"ȇ":{"ha":654,"x_min":53,"x_max":611,"o":"m 53 0 m 365 -15 q 131 74 210 -15 q 53 338 53 164 q 129 603 53 511 q 350 694 206 694 q 547 631 483 694 q 611 433 611 568 q 608 364 611 417 l 181 364 l 181 319 q 235 128 181 197 q 385 58 289 58 q 486 67 431 58 q 593 89 542 75 l 601 46 q 489 -1 542 13 q 365 -15 436 -15 m 486 426 l 486 458 q 456 585 486 544 q 358 626 425 626 q 229 577 269 626 q 183 413 189 528 l 486 426 m 326 978 q 453 934 415 978 q 490 819 490 890 l 443 817 q 419 879 443 856 q 329 903 394 903 q 237 879 263 903 q 211 817 211 856 l 165 819 q 326 978 165 978 z "},"ē":{"ha":654,"x_min":53,"x_max":611,"o":"m 196 846 l 196 918 l 497 918 l 497 846 l 196 846 m 365 -15 q 131 74 210 -15 q 53 338 53 164 q 129 603 53 511 q 350 694 206 694 q 547 631 483 694 q 611 433 611 568 q 608 364 611 417 l 181 364 l 181 319 q 235 128 181 197 q 385 58 289 58 q 486 67 431 58 q 593 89 542 75 l 601 46 q 489 -1 542 13 q 365 -15 436 -15 m 486 426 l 486 458 q 456 585 486 544 q 358 626 425 626 q 229 577 269 626 q 183 413 189 528 l 486 426 z "},"ę":{"ha":654,"x_min":53,"x_max":611,"o":"m 472 -328 q 375 -293 408 -328 q 342 -210 342 -258 q 370 -115 342 -167 q 461 -7 399 -62 q 365 -15 418 -15 q 131 74 210 -15 q 53 338 53 164 q 129 603 53 511 q 350 694 206 694 q 547 631 483 694 q 611 433 611 568 q 608 364 611 417 l 181 364 l 181 319 q 235 128 181 197 q 385 58 289 58 q 486 67 431 58 q 593 89 542 75 l 601 46 q 478 -53 522 7 q 435 -185 435 -112 q 455 -245 435 -224 q 510 -267 475 -267 q 579 -236 550 -267 l 601 -258 q 585 -279 601 -261 q 540 -312 569 -297 q 472 -328 511 -328 m 486 426 l 486 458 q 456 585 486 544 q 358 626 425 626 q 229 577 269 626 q 183 413 189 528 l 486 426 z "},"ẽ":{"ha":654,"x_min":53,"x_max":611,"o":"m 442 808 q 342 836 417 808 q 244 864 267 864 q 217 853 231 864 q 194 830 203 842 q 182 814 185 818 l 140 831 q 190 928 167 896 q 243 961 213 961 q 285 953 258 961 q 340 933 313 944 q 396 914 368 922 q 440 906 424 906 q 467 917 454 906 q 490 939 481 928 q 500 954 499 950 l 543 938 q 494 841 517 874 q 442 808 472 808 m 365 -15 q 131 74 210 -15 q 53 338 53 164 q 129 603 53 511 q 350 694 206 694 q 547 631 483 694 q 611 433 611 568 q 608 364 611 417 l 181 364 l 181 319 q 235 128 181 197 q 385 58 289 58 q 486 67 431 58 q 593 89 542 75 l 601 46 q 489 -1 542 13 q 365 -15 436 -15 m 486 426 l 486 458 q 456 585 486 544 q 358 626 425 626 q 229 577 269 626 q 183 413 189 528 l 486 426 z "},"ə":{"ha":654,"x_min":43,"x_max":601,"o":"m 289 697 q 523 608 444 697 q 601 344 601 518 q 525 79 601 171 q 304 -12 449 -12 q 107 51 171 -12 q 43 249 43 114 q 46 318 43 265 l 474 318 l 474 363 q 419 554 474 485 q 269 624 365 624 q 168 615 224 624 q 61 593 113 607 l 53 636 q 165 683 113 669 q 289 697 218 697 m 168 256 l 168 224 q 199 97 168 138 q 296 56 229 56 q 425 105 385 56 q 471 269 465 154 l 168 256 z "},"f":{"ha":496,"x_min":43,"x_max":572,"o":"m 43 39 l 167 74 l 167 613 l 57 613 l 57 653 l 167 681 q 201 856 167 782 q 298 970 236 931 q 438 1010 360 1010 q 512 1002 472 1010 q 572 983 551 994 l 554 825 l 504 825 l 486 914 q 413 929 454 929 q 313 882 340 929 q 285 736 285 835 l 285 682 l 493 682 l 493 600 l 283 613 l 283 74 l 443 39 l 443 0 l 43 0 l 43 39 z "},"g":{"ha":708,"x_min":44,"x_max":683,"o":"m 286 -246 q 93 -210 142 -246 q 44 -111 44 -174 q 63 -37 44 -76 q 125 39 82 3 q 82 115 82 61 q 104 179 82 144 q 168 258 126 214 q 82 458 82 318 q 110 574 82 521 q 196 661 139 628 q 335 694 253 694 q 417 685 382 694 q 486 658 453 676 l 683 710 l 683 613 l 526 613 q 571 544 556 586 q 586 458 586 503 q 523 294 586 360 q 319 228 460 228 q 253 233 285 228 q 222 239 222 238 q 193 194 201 211 q 185 161 185 176 q 197 131 185 144 q 228 117 208 117 l 457 117 q 610 88 558 117 q 661 -21 661 60 q 622 -128 661 -76 q 497 -212 582 -179 q 286 -246 413 -246 m 338 293 q 440 335 411 293 q 469 458 469 378 q 437 583 469 538 q 333 629 404 629 q 230 585 260 629 q 200 458 200 540 q 231 335 200 378 q 338 293 263 293 m 297 -176 q 498 -140 435 -176 q 561 -42 561 -104 q 538 13 561 -1 q 464 28 515 28 l 192 28 q 146 -82 146 -29 q 178 -155 146 -133 q 297 -176 210 -176 z "},"ǵ":{"ha":708,"x_min":44,"x_max":683,"o":"m 44 0 m 286 -246 q 93 -210 142 -246 q 44 -111 44 -174 q 63 -37 44 -76 q 125 39 82 3 q 82 115 82 61 q 104 179 82 144 q 168 258 126 214 q 82 458 82 318 q 110 574 82 521 q 196 661 139 628 q 335 694 253 694 q 417 685 382 694 q 486 658 453 676 l 683 710 l 683 613 l 526 613 q 571 544 556 586 q 586 458 586 503 q 523 294 586 360 q 319 228 460 228 q 253 233 285 228 q 222 239 222 238 q 193 194 201 211 q 185 161 185 176 q 197 131 185 144 q 228 117 208 117 l 457 117 q 610 88 558 117 q 661 -21 661 60 q 622 -128 661 -76 q 497 -212 582 -179 q 286 -246 413 -246 m 338 293 q 440 335 411 293 q 469 458 469 378 q 437 583 469 538 q 333 629 404 629 q 230 585 260 629 q 200 458 200 540 q 231 335 200 378 q 338 293 263 293 m 297 -176 q 498 -140 435 -176 q 561 -42 561 -104 q 538 13 561 -1 q 464 28 515 28 l 192 28 q 146 -82 146 -29 q 178 -155 146 -133 q 297 -176 210 -176 m 251 775 l 229 801 l 443 982 l 549 943 l 549 918 l 251 775 z "},"ğ":{"ha":733,"x_min":57,"x_max":696,"o":"m 357 803 q 231 847 268 803 q 193 961 193 890 l 240 964 q 265 901 240 925 q 354 878 289 878 q 447 901 421 878 q 472 964 472 925 l 518 961 q 357 803 518 803 m 299 -246 q 106 -210 154 -246 q 57 -111 57 -174 q 76 -37 57 -76 q 138 39 94 3 q 94 115 94 61 q 117 179 94 144 q 181 258 139 214 q 94 458 94 318 q 123 574 94 521 q 208 661 151 628 q 347 694 265 694 q 430 685 394 694 q 499 658 465 676 l 696 710 l 696 613 l 539 613 q 583 544 568 586 q 599 458 599 503 q 535 294 599 360 q 332 228 472 228 q 266 233 297 228 q 235 239 235 238 q 206 194 214 211 q 197 161 197 176 q 209 131 197 144 q 240 117 221 117 l 469 117 q 622 88 571 117 q 674 -21 674 60 q 634 -128 674 -76 q 510 -212 594 -179 q 299 -246 425 -246 m 350 293 q 453 335 424 293 q 482 458 482 378 q 449 583 482 538 q 346 629 417 629 q 242 585 272 629 q 213 458 213 540 q 244 335 213 378 q 350 293 275 293 m 310 -176 q 510 -140 447 -176 q 574 -42 574 -104 q 551 13 574 -1 q 476 28 528 28 l 204 28 q 158 -82 158 -29 q 190 -155 158 -133 q 310 -176 222 -176 z "},"ǧ":{"ha":708,"x_min":44,"x_max":683,"o":"m 44 0 m 286 -246 q 93 -210 142 -246 q 44 -111 44 -174 q 63 -37 44 -76 q 125 39 82 3 q 82 115 82 61 q 104 179 82 144 q 168 258 126 214 q 82 458 82 318 q 110 574 82 521 q 196 661 139 628 q 335 694 253 694 q 417 685 382 694 q 486 658 453 676 l 683 710 l 683 613 l 526 613 q 571 544 556 586 q 586 458 586 503 q 523 294 586 360 q 319 228 460 228 q 253 233 285 228 q 222 239 222 238 q 193 194 201 211 q 185 161 185 176 q 197 131 185 144 q 228 117 208 117 l 457 117 q 610 88 558 117 q 661 -21 661 60 q 622 -128 661 -76 q 497 -212 582 -179 q 286 -246 413 -246 m 338 293 q 440 335 411 293 q 469 458 469 378 q 437 583 469 538 q 333 629 404 629 q 230 585 260 629 q 200 458 200 540 q 231 335 200 378 q 338 293 263 293 m 297 -176 q 498 -140 435 -176 q 561 -42 561 -104 q 538 13 561 -1 q 464 28 515 28 l 192 28 q 146 -82 146 -29 q 178 -155 146 -133 q 297 -176 210 -176 m 206 993 l 356 868 l 504 993 l 533 968 l 397 775 l 314 775 l 175 968 l 206 993 z "},"ĝ":{"ha":708,"x_min":44,"x_max":683,"o":"m 44 0 m 286 -246 q 93 -210 142 -246 q 44 -111 44 -174 q 63 -37 44 -76 q 125 39 82 3 q 82 115 82 61 q 104 179 82 144 q 168 258 126 214 q 82 458 82 318 q 110 574 82 521 q 196 661 139 628 q 335 694 253 694 q 417 685 382 694 q 486 658 453 676 l 683 710 l 683 613 l 526 613 q 571 544 556 586 q 586 458 586 503 q 523 294 586 360 q 319 228 460 228 q 253 233 285 228 q 222 239 222 238 q 193 194 201 211 q 185 161 185 176 q 197 131 185 144 q 228 117 208 117 l 457 117 q 610 88 558 117 q 661 -21 661 60 q 622 -128 661 -76 q 497 -212 582 -179 q 286 -246 413 -246 m 338 293 q 440 335 411 293 q 469 458 469 378 q 437 583 469 538 q 333 629 404 629 q 230 585 260 629 q 200 458 200 540 q 231 335 200 378 q 338 293 263 293 m 297 -176 q 498 -140 435 -176 q 561 -42 561 -104 q 538 13 561 -1 q 464 28 515 28 l 192 28 q 146 -82 146 -29 q 178 -155 146 -133 q 297 -176 210 -176 m 503 767 l 354 892 l 204 767 l 175 792 l 311 985 l 394 985 l 533 792 l 503 767 z "},"ģ":{"ha":733,"x_min":57,"x_max":696,"o":"m 300 760 l 283 779 l 372 1028 l 418 1028 l 400 781 l 300 760 m 299 -246 q 106 -210 154 -246 q 57 -111 57 -174 q 76 -37 57 -76 q 138 39 94 3 q 94 115 94 61 q 117 179 94 144 q 181 258 139 214 q 94 458 94 318 q 123 574 94 521 q 208 661 151 628 q 347 694 265 694 q 430 685 394 694 q 499 658 465 676 l 696 710 l 696 613 l 539 613 q 583 544 568 586 q 599 458 599 503 q 535 294 599 360 q 332 228 472 228 q 266 233 297 228 q 235 239 235 238 q 206 194 214 211 q 197 161 197 176 q 209 131 197 144 q 240 117 221 117 l 469 117 q 622 88 571 117 q 674 -21 674 60 q 634 -128 674 -76 q 510 -212 594 -179 q 299 -246 425 -246 m 350 293 q 453 335 424 293 q 482 458 482 378 q 449 583 482 538 q 346 629 417 629 q 242 585 272 629 q 213 458 213 540 q 244 335 213 378 q 350 293 275 293 m 310 -176 q 510 -140 447 -176 q 574 -42 574 -104 q 551 13 574 -1 q 476 28 528 28 l 204 28 q 158 -82 158 -29 q 190 -155 158 -133 q 310 -176 222 -176 z "},"ġ":{"ha":708,"x_min":44,"x_max":683,"o":"m 44 0 m 286 -246 q 93 -210 142 -246 q 44 -111 44 -174 q 63 -37 44 -76 q 125 39 82 3 q 82 115 82 61 q 104 179 82 144 q 168 258 126 214 q 82 458 82 318 q 110 574 82 521 q 196 661 139 628 q 335 694 253 694 q 417 685 382 694 q 486 658 453 676 l 683 710 l 683 613 l 526 613 q 571 544 556 586 q 586 458 586 503 q 523 294 586 360 q 319 228 460 228 q 253 233 285 228 q 222 239 222 238 q 193 194 201 211 q 185 161 185 176 q 197 131 185 144 q 228 117 208 117 l 457 117 q 610 88 558 117 q 661 -21 661 60 q 622 -128 661 -76 q 497 -212 582 -179 q 286 -246 413 -246 m 338 293 q 440 335 411 293 q 469 458 469 378 q 437 583 469 538 q 333 629 404 629 q 230 585 260 629 q 200 458 200 540 q 231 335 200 378 q 338 293 263 293 m 297 -176 q 498 -140 435 -176 q 561 -42 561 -104 q 538 13 561 -1 q 464 28 515 28 l 192 28 q 146 -82 146 -29 q 178 -155 146 -133 q 297 -176 210 -176 m 438 885 q 413 828 438 851 q 354 806 388 806 q 296 828 321 806 q 271 885 271 851 q 296 944 271 919 q 354 968 321 968 q 413 943 388 968 q 438 885 438 918 z "},"h":{"ha":857,"x_min":31,"x_max":828,"o":"m 472 0 l 472 44 l 588 74 l 588 519 q 576 576 588 557 q 535 603 564 596 q 449 611 506 611 q 355 605 403 611 q 272 589 307 599 l 272 74 l 388 44 l 388 0 l 31 0 l 31 44 l 156 74 l 156 911 l 32 925 l 32 957 l 238 1010 l 272 1010 l 272 639 q 390 678 324 661 q 518 694 457 694 q 652 658 600 694 q 704 543 704 622 l 704 74 l 828 44 l 828 0 l 472 0 z "},"ħ":{"ha":857,"x_min":31,"x_max":828,"o":"m 828 44 l 828 0 l 472 0 l 472 44 l 588 74 l 588 519 q 576 576 588 557 q 535 603 564 596 q 449 611 506 611 q 355 605 403 611 q 272 589 307 599 l 272 74 l 388 44 l 388 0 l 31 0 l 31 44 l 156 74 l 156 811 l 32 811 l 32 875 l 156 875 l 156 929 l 32 958 l 32 989 l 238 1010 l 272 1010 l 272 875 l 439 875 l 439 811 l 272 811 l 272 639 q 390 678 324 661 q 518 694 457 694 q 652 658 600 694 q 704 543 704 622 l 704 74 l 828 44 z "},"ĥ":{"ha":857,"x_min":31,"x_max":828,"o":"m 31 0 m 472 0 l 472 44 l 588 74 l 588 519 q 576 576 588 557 q 535 603 564 596 q 449 611 506 611 q 355 605 403 611 q 272 589 307 599 l 272 74 l 388 44 l 388 0 l 31 0 l 31 44 l 156 74 l 156 911 l 32 925 l 32 957 l 238 1010 l 272 1010 l 272 639 q 390 678 324 661 q 518 694 457 694 q 652 658 600 694 q 704 543 704 622 l 704 74 l 828 44 l 828 0 l 472 0 m 371 1029 l 210 1143 l 56 1029 l 32 1054 l 171 1236 l 254 1236 l 396 1054 l 371 1029 z "},"ḥ":{"ha":857,"x_min":31,"x_max":828,"o":"m 31 0 m 472 0 l 472 44 l 588 74 l 588 519 q 576 576 588 557 q 535 603 564 596 q 449 611 506 611 q 355 605 403 611 q 272 589 307 599 l 272 74 l 388 44 l 388 0 l 31 0 l 31 44 l 156 74 l 156 911 l 32 925 l 32 957 l 238 1010 l 272 1010 l 272 639 q 390 678 324 661 q 518 694 457 694 q 652 658 600 694 q 704 543 704 622 l 704 74 l 828 44 l 828 0 l 472 0 m 513 -140 q 488 -197 513 -174 q 429 -219 463 -219 q 371 -197 396 -219 q 346 -140 346 -174 q 371 -81 346 -106 q 429 -57 396 -57 q 488 -82 463 -57 q 513 -140 513 -107 z "},"i":{"ha":432,"x_min":42,"x_max":404,"o":"m 222 806 q 164 828 189 806 q 139 885 139 851 q 164 944 139 919 q 222 968 189 968 q 281 943 256 968 q 306 885 306 918 q 281 828 306 851 q 222 806 256 806 m 42 0 l 42 44 l 165 74 l 165 597 l 42 611 l 42 643 l 246 694 l 281 694 l 281 74 l 404 44 l 404 0 l 42 0 z "},"ı":{"ha":436,"x_min":42,"x_max":404,"o":"m 404 44 l 404 0 l 42 0 l 42 44 l 165 74 l 165 597 l 42 611 l 42 643 l 246 694 l 281 694 l 281 74 l 404 44 z "},"í":{"ha":436,"x_min":42,"x_max":404,"o":"m 75 775 l 53 801 l 267 982 l 372 943 l 372 918 l 75 775 m 404 44 l 404 0 l 42 0 l 42 44 l 165 74 l 165 597 l 42 611 l 42 643 l 246 694 l 281 694 l 281 74 l 404 44 z "},"ĭ":{"ha":436,"x_min":42,"x_max":404,"o":"m 42 0 m 404 44 l 404 0 l 42 0 l 42 44 l 165 74 l 165 597 l 42 611 l 42 643 l 246 694 l 281 694 l 281 74 l 404 44 m 219 803 q 93 847 131 803 q 56 961 56 890 l 103 964 q 127 901 103 925 q 217 878 151 878 q 309 901 283 878 q 335 964 335 925 l 381 961 q 219 803 381 803 z "},"ǐ":{"ha":436,"x_min":39,"x_max":404,"o":"m 39 0 m 404 44 l 404 0 l 42 0 l 42 44 l 165 74 l 165 597 l 42 611 l 42 643 l 246 694 l 281 694 l 281 74 l 404 44 m 69 993 l 219 868 l 368 993 l 397 968 l 261 775 l 178 775 l 39 968 l 69 993 z "},"î":{"ha":436,"x_min":11,"x_max":404,"o":"m 339 767 l 190 892 l 40 767 l 11 792 l 147 985 l 231 985 l 369 792 l 339 767 m 404 44 l 404 0 l 42 0 l 42 44 l 165 74 l 165 597 l 42 611 l 42 643 l 246 694 l 281 694 l 281 74 l 404 44 z "},"ȉ":{"ha":436,"x_min":-64,"x_max":404,"o":"m 0 0 m 404 44 l 404 0 l 42 0 l 42 44 l 165 74 l 165 597 l 42 611 l 42 643 l 246 694 l 281 694 l 281 74 l 404 44 m 139 756 l -64 968 l -64 992 l 40 992 l 165 771 l 139 756 m 363 756 l 160 968 l 160 992 l 264 992 l 389 771 l 363 756 z "},"ï":{"ha":436,"x_min":-15,"x_max":414,"o":"m 143 882 q 119 828 143 851 q 64 806 96 806 q 8 828 32 806 q -15 882 -15 851 q 8 939 -15 915 q 64 963 32 963 q 119 939 96 963 q 143 882 143 915 m 414 882 q 390 828 414 851 q 333 806 365 806 q 278 828 301 806 q 254 882 254 851 q 278 939 254 915 q 333 963 301 963 q 390 939 365 963 q 414 882 414 915 m 404 44 l 404 0 l 42 0 l 42 44 l 165 74 l 165 597 l 42 611 l 42 643 l 246 694 l 281 694 l 281 74 l 404 44 z "},"ị":{"ha":432,"x_min":42,"x_max":404,"o":"m 42 0 m 222 806 q 164 828 189 806 q 139 885 139 851 q 164 944 139 919 q 222 968 189 968 q 281 943 256 968 q 306 885 306 918 q 281 828 306 851 q 222 806 256 806 m 42 0 l 42 44 l 165 74 l 165 597 l 42 611 l 42 643 l 246 694 l 281 694 l 281 74 l 404 44 l 404 0 l 42 0 m 301 -140 q 276 -197 301 -174 q 218 -219 251 -219 q 160 -197 185 -219 q 135 -140 135 -174 q 160 -81 135 -106 q 218 -57 185 -57 q 276 -82 251 -57 q 301 -140 301 -107 z "},"ì":{"ha":436,"x_min":-7,"x_max":404,"o":"m 293 775 l -7 918 l -7 943 l 100 982 l 313 801 l 293 775 m 404 44 l 404 0 l 42 0 l 42 44 l 165 74 l 165 597 l 42 611 l 42 643 l 246 694 l 281 694 l 281 74 l 404 44 z "},"ỉ":{"ha":436,"x_min":42,"x_max":404,"o":"m 42 0 m 404 44 l 404 0 l 42 0 l 42 44 l 165 74 l 165 597 l 42 611 l 42 643 l 246 694 l 281 694 l 281 74 l 404 44 m 353 878 q 267 807 353 821 l 258 772 l 206 772 l 200 828 q 278 872 278 828 q 265 900 278 890 q 229 910 253 910 l 201 908 l 190 864 l 149 864 l 140 938 q 235 946 192 946 q 322 928 290 946 q 353 878 353 911 z "},"ȋ":{"ha":436,"x_min":42,"x_max":404,"o":"m 42 0 m 404 44 l 404 0 l 42 0 l 42 44 l 165 74 l 165 597 l 42 611 l 42 643 l 246 694 l 281 694 l 281 74 l 404 44 m 217 978 q 343 934 306 978 q 381 819 381 890 l 333 817 q 309 879 333 856 q 219 903 285 903 q 127 879 153 903 q 101 817 101 856 l 56 819 q 217 978 56 978 z "},"ĳ":{"ha":846,"x_min":42,"x_max":736,"o":"m 42 0 m 222 806 q 164 828 189 806 q 139 885 139 851 q 164 944 139 919 q 222 968 189 968 q 281 943 256 968 q 306 885 306 918 q 281 828 306 851 q 222 806 256 806 m 42 0 l 42 44 l 165 74 l 165 597 l 42 611 l 42 643 l 246 694 l 281 694 l 281 74 l 404 44 l 404 0 l 42 0 m 736 885 q 712 830 736 853 q 654 807 688 807 q 599 830 622 807 q 575 885 575 853 q 599 943 575 918 q 654 968 622 968 q 712 943 688 968 q 736 885 736 918 m 672 694 l 710 694 l 710 79 q 666 -160 710 -89 q 539 -232 622 -232 q 489 -224 519 -232 q 426 -200 458 -217 l 433 -157 l 497 -157 q 570 -117 547 -157 q 593 -28 593 -78 l 593 597 l 469 611 l 469 643 l 672 694 z "},"ī":{"ha":436,"x_min":28,"x_max":404,"o":"m 28 918 l 329 918 l 329 846 l 28 846 l 28 918 m 404 44 l 404 0 l 42 0 l 42 44 l 165 74 l 165 597 l 42 611 l 42 643 l 246 694 l 281 694 l 281 74 l 404 44 z "},"į":{"ha":436,"x_min":42,"x_max":404,"o":"m 222 806 q 164 828 189 806 q 139 885 139 851 q 164 944 139 919 q 222 968 189 968 q 281 943 256 968 q 306 885 306 918 q 281 828 306 851 q 222 806 256 806 m 274 -328 q 175 -294 208 -328 q 142 -210 142 -260 q 183 -94 142 -151 q 296 0 225 -37 l 42 0 l 42 44 l 165 74 l 165 597 l 42 611 l 42 643 l 246 694 l 281 694 l 281 74 l 404 44 l 404 0 q 276 -74 315 -24 q 236 -185 236 -124 q 256 -245 236 -224 q 311 -267 276 -267 q 381 -236 351 -267 l 404 -258 q 388 -279 404 -261 q 342 -312 371 -297 q 274 -328 313 -328 z "},"ĩ":{"ha":436,"x_min":-11,"x_max":404,"o":"m 392 938 q 343 841 365 874 q 290 808 321 808 q 190 836 265 808 q 93 864 115 864 q 65 853 79 864 q 42 830 51 842 q 31 814 33 818 l -11 831 q 38 928 15 896 q 92 961 61 961 q 134 953 107 961 q 189 933 161 944 q 244 914 217 922 q 289 906 272 906 q 316 917 303 906 q 338 939 329 928 q 349 954 347 950 l 392 938 m 404 44 l 404 0 l 42 0 l 42 44 l 165 74 l 165 597 l 42 611 l 42 643 l 246 694 l 281 694 l 281 74 l 404 44 z "},"j":{"ha":414,"x_min":-6,"x_max":304,"o":"m 304 885 q 280 830 304 853 q 222 807 256 807 q 167 830 190 807 q 143 885 143 853 q 167 943 143 918 q 222 968 190 968 q 280 943 256 968 q 304 885 304 918 m 240 694 l 278 694 l 278 79 q 234 -160 278 -89 q 107 -232 190 -232 q 57 -224 88 -232 q -6 -200 26 -217 l 1 -157 l 65 -157 q 138 -117 115 -157 q 161 -28 161 -78 l 161 597 l 38 611 l 38 643 l 240 694 z "},"ȷ":{"ha":414,"x_min":-6,"x_max":278,"o":"m 240 694 l 278 694 l 278 79 q 234 -160 278 -89 q 107 -232 190 -232 q 57 -224 88 -232 q -6 -200 26 -217 l 1 -157 l 65 -157 q 138 -117 115 -157 q 161 -28 161 -78 l 161 597 l 38 611 l 38 643 l 240 694 z "},"ĵ":{"ha":414,"x_min":-6,"x_max":386,"o":"m 0 0 m 240 694 l 278 694 l 278 79 q 234 -160 278 -89 q 107 -232 190 -232 q 57 -224 88 -232 q -6 -200 26 -217 l 1 -157 l 65 -157 q 138 -117 115 -157 q 161 -28 161 -78 l 161 597 l 38 611 l 38 643 l 240 694 m 356 767 l 207 892 l 57 767 l 28 792 l 164 985 l 247 985 l 386 792 l 356 767 z "},"k":{"ha":765,"x_min":31,"x_max":779,"o":"m 358 0 l 31 0 l 31 44 l 157 74 l 157 911 l 31 925 l 31 957 l 239 1010 l 274 1010 l 274 74 l 358 44 l 358 0 m 779 0 l 468 0 l 468 44 l 529 68 l 296 358 l 501 613 l 381 642 l 381 682 l 738 682 l 738 642 l 606 613 l 414 383 l 669 71 l 779 43 l 779 0 z "},"ķ":{"ha":793,"x_min":31,"x_max":779,"o":"m 31 0 l 31 44 l 157 74 l 157 911 l 31 925 l 31 957 l 239 1010 l 274 1010 l 274 74 l 358 44 l 358 0 l 31 0 m 468 0 l 468 44 l 529 68 l 296 358 l 501 613 l 381 642 l 381 682 l 738 682 l 738 642 l 606 613 l 414 383 l 669 71 l 779 43 l 779 0 l 468 0 m 343 -307 l 361 -60 l 458 -39 l 476 -58 l 389 -307 l 343 -307 z "},"ĸ":{"ha":775,"x_min":40,"x_max":789,"o":"m 368 0 l 40 0 l 40 44 l 167 74 l 167 597 l 43 611 l 43 642 l 249 694 l 283 694 l 283 74 l 368 44 l 368 0 m 789 0 l 478 0 l 478 44 l 539 68 l 306 358 l 511 613 l 390 642 l 390 682 l 747 682 l 747 642 l 615 613 l 424 383 l 679 71 l 789 43 l 789 0 z "},"l":{"ha":413,"x_min":24,"x_max":389,"o":"m 24 0 l 24 46 l 149 74 l 149 911 l 24 925 l 24 957 l 226 1010 l 264 1010 l 264 74 l 389 46 l 389 0 l 24 0 z "},"ĺ":{"ha":413,"x_min":15,"x_max":389,"o":"m 38 1011 l 15 1038 l 229 1218 l 335 1179 l 335 1154 l 38 1011 m 24 0 l 24 46 l 149 74 l 149 911 l 24 925 l 24 957 l 226 1010 l 264 1010 l 264 74 l 389 46 l 389 0 l 24 0 z "},"ľ":{"ha":435,"x_min":24,"x_max":457,"o":"m 24 0 l 24 46 l 149 74 l 149 911 l 24 925 l 24 957 l 226 1010 l 264 1010 l 264 74 l 389 46 l 389 0 l 24 0 m 381 713 l 342 1008 l 379 1008 l 457 983 l 413 713 l 381 713 z "},"ļ":{"ha":413,"x_min":24,"x_max":389,"o":"m 24 0 l 24 46 l 149 74 l 149 911 l 24 925 l 24 957 l 226 1010 l 264 1010 l 264 74 l 389 46 l 389 0 l 24 0 m 140 -307 l 158 -60 l 258 -39 l 275 -58 l 186 -307 l 140 -307 z "},"ŀ":{"ha":413,"x_min":24,"x_max":489,"o":"m 24 0 m 24 0 l 24 46 l 149 74 l 149 911 l 24 925 l 24 957 l 226 1010 l 264 1010 l 264 74 l 389 46 l 389 0 l 24 0 m 489 603 q 466 546 489 569 q 408 522 443 522 q 353 546 376 522 q 331 603 331 569 q 353 660 331 638 q 408 682 375 682 q 467 660 444 682 q 489 603 489 638 z "},"ǉ":{"ha":826,"x_min":24,"x_max":717,"o":"m 24 0 m 24 0 l 24 46 l 149 74 l 149 911 l 24 925 l 24 957 l 226 1010 l 264 1010 l 264 74 l 389 46 l 389 0 l 24 0 m 717 885 q 692 830 717 853 q 635 807 668 807 q 579 830 603 807 q 556 885 556 853 q 579 943 556 918 q 635 968 603 968 q 692 943 668 968 q 717 885 717 918 m 653 694 l 690 694 l 690 79 q 647 -160 690 -89 q 519 -232 603 -232 q 469 -224 500 -232 q 407 -200 439 -217 l 414 -157 l 478 -157 q 551 -117 528 -157 q 574 -28 574 -78 l 574 597 l 450 611 l 450 643 l 653 694 z "},"ł":{"ha":421,"x_min":4,"x_max":418,"o":"m 28 0 l 28 46 l 153 74 l 153 411 l 35 344 l 4 396 l 153 481 l 153 911 l 28 925 l 28 957 l 231 1010 l 268 1010 l 268 547 l 385 614 l 418 560 l 268 475 l 268 74 l 393 46 l 393 0 l 28 0 z "},"m":{"ha":1251,"x_min":39,"x_max":1222,"o":"m 39 39 l 163 74 l 163 597 l 39 611 l 39 643 l 242 694 l 279 694 l 279 639 q 390 678 326 661 q 513 694 454 694 q 596 681 557 694 q 657 639 635 667 q 783 678 713 661 q 921 694 853 694 q 1051 656 1007 694 q 1096 543 1096 618 l 1096 74 l 1222 39 l 1222 0 l 876 0 l 876 39 l 981 74 l 981 519 q 969 575 981 556 q 927 603 957 594 q 839 611 897 611 q 756 605 800 611 q 681 589 713 599 q 686 543 686 574 l 686 74 l 790 39 l 790 0 l 468 0 l 468 39 l 571 74 l 571 519 q 559 576 571 557 q 517 603 547 596 q 428 611 486 611 q 350 605 392 611 q 279 589 308 599 l 279 74 l 381 39 l 381 0 l 39 0 l 39 39 z "},"n":{"ha":867,"x_min":43,"x_max":840,"o":"m 282 639 q 399 677 331 660 q 531 694 468 694 q 664 658 613 694 q 715 543 715 622 l 715 74 l 840 39 l 840 0 l 486 0 l 486 39 l 600 74 l 600 519 q 588 576 600 557 q 547 603 576 596 q 461 611 518 611 q 368 605 417 611 q 282 589 319 599 l 282 74 l 396 39 l 396 0 l 43 0 l 43 39 l 167 74 l 167 597 l 43 611 l 43 643 l 244 694 l 282 694 l 282 639 z "},"ń":{"ha":867,"x_min":39,"x_max":836,"o":"m 306 775 l 283 801 l 497 982 l 603 943 l 603 918 l 306 775 m 278 639 q 395 677 326 660 q 526 694 464 694 q 660 658 608 694 q 711 543 711 622 l 711 74 l 836 39 l 836 0 l 482 0 l 482 39 l 596 74 l 596 519 q 584 576 596 557 q 543 603 572 596 q 457 611 514 611 q 364 605 413 611 q 278 589 315 599 l 278 74 l 392 39 l 392 0 l 39 0 l 39 39 l 163 74 l 163 597 l 39 611 l 39 643 l 240 694 l 278 694 l 278 639 z "},"ŉ":{"ha":833,"x_min":43,"x_max":840,"o":"m 43 0 m 158 713 l 119 1008 l 157 1008 l 235 983 l 190 713 l 158 713 m 282 639 q 399 677 331 660 q 531 694 468 694 q 664 658 613 694 q 715 543 715 622 l 715 74 l 840 39 l 840 0 l 486 0 l 486 39 l 600 74 l 600 519 q 588 576 600 557 q 547 603 576 596 q 461 611 518 611 q 368 605 417 611 q 282 589 319 599 l 282 74 l 396 39 l 396 0 l 43 0 l 43 39 l 167 74 l 167 597 l 43 611 l 43 643 l 244 694 l 282 694 l 282 639 z "},"ň":{"ha":867,"x_min":39,"x_max":836,"o":"m 283 993 l 433 868 l 582 993 l 611 968 l 475 775 l 392 775 l 253 968 l 283 993 m 278 639 q 395 677 326 660 q 526 694 464 694 q 660 658 608 694 q 711 543 711 622 l 711 74 l 836 39 l 836 0 l 482 0 l 482 39 l 596 74 l 596 519 q 584 576 596 557 q 543 603 572 596 q 457 611 514 611 q 364 605 413 611 q 278 589 315 599 l 278 74 l 392 39 l 392 0 l 39 0 l 39 39 l 163 74 l 163 597 l 39 611 l 39 643 l 240 694 l 278 694 l 278 639 z "},"ņ":{"ha":867,"x_min":39,"x_max":836,"o":"m 39 39 l 163 74 l 163 597 l 39 611 l 39 643 l 240 694 l 278 694 l 278 639 q 395 677 326 660 q 526 694 464 694 q 660 658 608 694 q 711 543 711 622 l 711 74 l 836 39 l 836 0 l 482 0 l 482 39 l 596 74 l 596 519 q 584 576 596 557 q 543 603 572 596 q 457 611 514 611 q 364 605 413 611 q 278 589 315 599 l 278 74 l 392 39 l 392 0 l 39 0 l 39 39 m 365 -307 l 385 -60 l 482 -39 l 500 -58 l 413 -307 l 365 -307 z "},"ṅ":{"ha":867,"x_min":43,"x_max":840,"o":"m 43 0 m 282 639 q 399 677 331 660 q 531 694 468 694 q 664 658 613 694 q 715 543 715 622 l 715 74 l 840 39 l 840 0 l 486 0 l 486 39 l 600 74 l 600 519 q 588 576 600 557 q 547 603 576 596 q 461 611 518 611 q 368 605 417 611 q 282 589 319 599 l 282 74 l 396 39 l 396 0 l 43 0 l 43 39 l 167 74 l 167 597 l 43 611 l 43 643 l 244 694 l 282 694 l 282 639 m 517 885 q 492 828 517 851 q 433 806 467 806 q 375 828 400 806 q 350 885 350 851 q 375 944 350 919 q 433 968 400 968 q 492 943 467 968 q 517 885 517 918 z "},"ŋ":{"ha":825,"x_min":43,"x_max":715,"o":"m 531 694 q 664 658 613 694 q 715 543 715 622 l 715 79 q 672 -160 715 -89 q 546 -232 628 -232 q 496 -224 526 -232 q 433 -200 465 -217 l 440 -157 l 504 -157 q 577 -117 554 -157 q 600 -28 600 -78 l 600 519 q 588 576 600 557 q 547 603 576 596 q 461 611 518 611 q 368 605 417 611 q 282 589 319 599 l 282 74 l 396 39 l 396 0 l 43 0 l 43 39 l 167 74 l 167 597 l 43 611 l 43 643 l 244 694 l 282 694 l 282 639 q 399 677 331 660 q 531 694 468 694 z "},"ɲ":{"ha":867,"x_min":0,"x_max":840,"o":"m 840 39 l 840 0 l 486 0 l 486 39 l 600 74 l 600 519 q 588 576 600 557 q 547 603 576 596 q 461 611 518 611 q 369 605 417 611 q 283 589 321 599 l 283 79 q 240 -160 283 -89 q 113 -232 196 -232 q 63 -224 93 -232 q 0 -200 32 -217 l 7 -157 l 71 -157 q 144 -117 121 -157 q 167 -28 167 -78 l 167 597 l 43 611 l 43 643 l 244 694 l 282 694 l 282 639 q 399 677 331 660 q 531 694 468 694 q 664 658 613 694 q 715 543 715 622 l 715 74 l 840 39 z "},"ǌ":{"ha":1281,"x_min":43,"x_max":1171,"o":"m 43 0 m 282 639 q 399 677 331 660 q 531 694 468 694 q 664 658 613 694 q 715 543 715 622 l 715 74 l 840 39 l 840 0 l 486 0 l 486 39 l 600 74 l 600 519 q 588 576 600 557 q 547 603 576 596 q 461 611 518 611 q 368 605 417 611 q 282 589 319 599 l 282 74 l 396 39 l 396 0 l 43 0 l 43 39 l 167 74 l 167 597 l 43 611 l 43 643 l 244 694 l 282 694 l 282 639 m 1171 885 q 1147 830 1171 853 q 1089 807 1122 807 q 1033 830 1057 807 q 1010 885 1010 853 q 1033 943 1010 918 q 1089 968 1057 968 q 1147 943 1122 968 q 1171 885 1171 918 m 1107 694 l 1144 694 l 1144 79 q 1101 -160 1144 -89 q 974 -232 1057 -232 q 924 -224 954 -232 q 861 -200 893 -217 l 868 -157 l 932 -157 q 1005 -117 982 -157 q 1028 -28 1028 -78 l 1028 597 l 904 611 l 904 643 l 1107 694 z "},"ñ":{"ha":867,"x_min":39,"x_max":836,"o":"m 632 938 q 583 841 606 874 q 531 808 561 808 q 431 836 506 808 q 333 864 356 864 q 306 853 319 864 q 283 830 292 842 q 271 814 274 818 l 229 831 q 278 928 256 896 q 332 961 301 961 q 374 953 347 961 q 429 933 401 944 q 485 914 457 922 q 529 906 513 906 q 556 917 543 906 q 578 939 569 928 q 589 954 588 950 l 632 938 m 278 639 q 395 677 326 660 q 526 694 464 694 q 660 658 608 694 q 711 543 711 622 l 711 74 l 836 39 l 836 0 l 482 0 l 482 39 l 596 74 l 596 519 q 584 576 596 557 q 543 603 572 596 q 457 611 514 611 q 364 605 413 611 q 278 589 315 599 l 278 74 l 392 39 l 392 0 l 39 0 l 39 39 l 163 74 l 163 597 l 39 611 l 39 643 l 240 694 l 278 694 l 278 639 z "},"o":{"ha":760,"x_min":57,"x_max":703,"o":"m 381 694 q 625 597 547 694 q 703 338 703 499 q 624 83 703 181 q 381 -14 544 -14 q 137 84 217 -14 q 57 338 57 182 q 136 596 57 497 q 381 694 215 694 m 575 342 q 531 553 575 478 q 376 629 488 629 q 228 553 271 629 q 185 342 185 476 q 229 128 185 204 q 385 53 274 53 q 534 128 493 53 q 575 342 575 203 z "},"ó":{"ha":760,"x_min":57,"x_max":703,"o":"m 57 0 m 381 694 q 625 597 547 694 q 703 338 703 499 q 624 83 703 181 q 381 -14 544 -14 q 137 84 217 -14 q 57 338 57 182 q 136 596 57 497 q 381 694 215 694 m 575 342 q 531 553 575 478 q 376 629 488 629 q 228 553 271 629 q 185 342 185 476 q 229 128 185 204 q 385 53 274 53 q 534 128 493 53 q 575 342 575 203 m 278 775 l 256 801 l 469 982 l 575 943 l 575 918 l 278 775 z "},"ŏ":{"ha":760,"x_min":57,"x_max":703,"o":"m 57 0 m 381 694 q 625 597 547 694 q 703 338 703 499 q 624 83 703 181 q 381 -14 544 -14 q 137 84 217 -14 q 57 338 57 182 q 136 596 57 497 q 381 694 215 694 m 575 342 q 531 553 575 478 q 376 629 488 629 q 228 553 271 629 q 185 342 185 476 q 229 128 185 204 q 385 53 274 53 q 534 128 493 53 q 575 342 575 203 m 382 803 q 256 847 293 803 q 218 961 218 890 l 265 964 q 290 901 265 925 q 379 878 314 878 q 472 901 446 878 q 497 964 497 925 l 543 961 q 382 803 543 803 z "},"ǒ":{"ha":760,"x_min":57,"x_max":703,"o":"m 57 0 m 381 694 q 625 597 547 694 q 703 338 703 499 q 624 83 703 181 q 381 -14 544 -14 q 137 84 217 -14 q 57 338 57 182 q 136 596 57 497 q 381 694 215 694 m 575 342 q 531 553 575 478 q 376 629 488 629 q 228 553 271 629 q 185 342 185 476 q 229 128 185 204 q 385 53 274 53 q 534 128 493 53 q 575 342 575 203 m 232 993 l 382 868 l 531 993 l 560 968 l 424 775 l 340 775 l 201 968 l 232 993 z "},"ô":{"ha":760,"x_min":57,"x_max":703,"o":"m 529 767 l 381 892 l 231 767 l 201 792 l 338 985 l 421 985 l 560 792 l 529 767 m 381 694 q 625 597 547 694 q 703 338 703 499 q 624 83 703 181 q 381 -14 544 -14 q 137 84 217 -14 q 57 338 57 182 q 136 596 57 497 q 381 694 215 694 m 575 342 q 531 553 575 478 q 376 629 488 629 q 228 553 271 629 q 185 342 185 476 q 229 128 185 204 q 385 53 274 53 q 534 128 493 53 q 575 342 575 203 z "},"ố":{"ha":760,"x_min":57,"x_max":801,"o":"m 569 842 l 542 860 l 679 1103 l 793 1103 l 801 1079 l 569 842 m 529 767 l 381 892 l 231 767 l 201 792 l 338 985 l 421 985 l 560 792 l 529 767 m 381 694 q 625 597 547 694 q 703 338 703 499 q 624 83 703 181 q 381 -14 544 -14 q 137 84 217 -14 q 57 338 57 182 q 136 596 57 497 q 381 694 215 694 m 575 342 q 531 553 575 478 q 376 629 488 629 q 228 553 271 629 q 185 342 185 476 q 229 128 185 204 q 385 53 274 53 q 534 128 493 53 q 575 342 575 203 z "},"ộ":{"ha":760,"x_min":57,"x_max":703,"o":"m 57 0 m 381 694 q 625 597 547 694 q 703 338 703 499 q 624 83 703 181 q 381 -14 544 -14 q 137 84 217 -14 q 57 338 57 182 q 136 596 57 497 q 381 694 215 694 m 575 342 q 531 553 575 478 q 376 629 488 629 q 228 553 271 629 q 185 342 185 476 q 229 128 185 204 q 385 53 274 53 q 534 128 493 53 q 575 342 575 203 m 464 -140 q 439 -197 464 -174 q 381 -219 414 -219 q 322 -197 347 -219 q 297 -140 297 -174 q 322 -81 297 -106 q 381 -57 347 -57 q 439 -82 414 -57 q 464 -140 464 -107 m 529 767 l 381 892 l 231 767 l 201 792 l 338 985 l 421 985 l 560 792 l 529 767 z "},"ồ":{"ha":760,"x_min":57,"x_max":703,"o":"m 611 842 l 379 1079 l 388 1103 l 501 1103 l 639 860 l 611 842 m 515 767 l 367 892 l 217 767 l 188 792 l 324 985 l 407 985 l 546 792 l 515 767 m 381 694 q 625 597 547 694 q 703 338 703 499 q 624 83 703 181 q 381 -14 544 -14 q 137 84 217 -14 q 57 338 57 182 q 136 596 57 497 q 381 694 215 694 m 575 342 q 531 553 575 478 q 376 629 488 629 q 228 553 271 629 q 185 342 185 476 q 229 128 185 204 q 385 53 274 53 q 534 128 493 53 q 575 342 575 203 z "},"ổ":{"ha":760,"x_min":57,"x_max":703,"o":"m 57 0 m 381 694 q 625 597 547 694 q 703 338 703 499 q 624 83 703 181 q 381 -14 544 -14 q 137 84 217 -14 q 57 338 57 182 q 136 596 57 497 q 381 694 215 694 m 575 342 q 531 553 575 478 q 376 629 488 629 q 228 553 271 629 q 185 342 185 476 q 229 128 185 204 q 385 53 274 53 q 534 128 493 53 q 575 342 575 203 m 529 767 l 381 892 l 231 767 l 201 792 l 338 985 l 421 985 l 560 792 l 529 767 m 651 1035 q 565 964 651 978 l 557 929 l 504 929 l 499 985 q 576 1029 576 985 q 564 1057 576 1047 q 528 1067 551 1067 l 500 1065 l 489 1021 l 447 1021 l 439 1094 q 533 1103 490 1103 q 620 1085 589 1103 q 651 1035 651 1068 z "},"ỗ":{"ha":760,"x_min":57,"x_max":703,"o":"m 57 0 m 381 694 q 625 597 547 694 q 703 338 703 499 q 624 83 703 181 q 381 -14 544 -14 q 137 84 217 -14 q 57 338 57 182 q 136 596 57 497 q 381 694 215 694 m 575 342 q 531 553 575 478 q 376 629 488 629 q 228 553 271 629 q 185 342 185 476 q 229 128 185 204 q 385 53 274 53 q 534 128 493 53 q 575 342 575 203 m 538 738 l 376 851 l 222 738 l 199 763 l 338 944 l 421 944 l 563 763 l 538 738 m 585 1085 q 536 988 558 1021 q 483 956 514 956 q 383 983 458 956 q 286 1011 308 1011 q 258 1000 272 1011 q 235 977 244 989 q 224 961 226 965 l 182 978 q 231 1076 208 1043 q 285 1108 254 1108 q 327 1100 300 1108 q 382 1081 354 1092 q 438 1061 410 1069 q 482 1053 465 1053 q 509 1064 496 1053 q 531 1086 522 1075 q 542 1101 540 1097 l 585 1085 z "},"ȍ":{"ha":760,"x_min":57,"x_max":703,"o":"m 57 0 m 381 694 q 625 597 547 694 q 703 338 703 499 q 624 83 703 181 q 381 -14 544 -14 q 137 84 217 -14 q 57 338 57 182 q 136 596 57 497 q 381 694 215 694 m 575 342 q 531 553 575 478 q 376 629 488 629 q 228 553 271 629 q 185 342 185 476 q 229 128 185 204 q 385 53 274 53 q 534 128 493 53 q 575 342 575 203 m 301 756 l 99 968 l 99 992 l 203 992 l 328 771 l 301 756 m 525 756 l 322 968 l 322 992 l 426 992 l 551 771 l 525 756 z "},"ö":{"ha":760,"x_min":57,"x_max":703,"o":"m 324 882 q 300 828 324 851 q 244 806 276 806 q 189 828 213 806 q 165 882 165 851 q 189 939 165 915 q 244 963 213 963 q 300 939 276 963 q 324 882 324 915 m 594 882 q 570 828 594 851 q 514 806 546 806 q 458 828 482 806 q 435 882 435 851 q 458 939 435 915 q 514 963 482 963 q 570 939 546 963 q 594 882 594 915 m 381 694 q 625 597 547 694 q 703 338 703 499 q 624 83 703 181 q 381 -14 544 -14 q 137 84 217 -14 q 57 338 57 182 q 136 596 57 497 q 381 694 215 694 m 575 342 q 531 553 575 478 q 376 629 488 629 q 228 553 271 629 q 185 342 185 476 q 229 128 185 204 q 385 53 274 53 q 534 128 493 53 q 575 342 575 203 z "},"ọ":{"ha":760,"x_min":57,"x_max":703,"o":"m 57 0 m 381 694 q 625 597 547 694 q 703 338 703 499 q 624 83 703 181 q 381 -14 544 -14 q 137 84 217 -14 q 57 338 57 182 q 136 596 57 497 q 381 694 215 694 m 575 342 q 531 553 575 478 q 376 629 488 629 q 228 553 271 629 q 185 342 185 476 q 229 128 185 204 q 385 53 274 53 q 534 128 493 53 q 575 342 575 203 m 464 -140 q 439 -197 464 -174 q 381 -219 414 -219 q 322 -197 347 -219 q 297 -140 297 -174 q 322 -81 297 -106 q 381 -57 347 -57 q 439 -82 414 -57 q 464 -140 464 -107 z "},"ò":{"ha":760,"x_min":57,"x_max":703,"o":"m 506 775 l 206 918 l 206 943 l 313 982 l 525 801 l 506 775 m 381 694 q 625 597 547 694 q 703 338 703 499 q 624 83 703 181 q 381 -14 544 -14 q 137 84 217 -14 q 57 338 57 182 q 136 596 57 497 q 381 694 215 694 m 575 342 q 531 553 575 478 q 376 629 488 629 q 228 553 271 629 q 185 342 185 476 q 229 128 185 204 q 385 53 274 53 q 534 128 493 53 q 575 342 575 203 z "},"ỏ":{"ha":760,"x_min":57,"x_max":703,"o":"m 57 0 m 381 694 q 625 597 547 694 q 703 338 703 499 q 624 83 703 181 q 381 -14 544 -14 q 137 84 217 -14 q 57 338 57 182 q 136 596 57 497 q 381 694 215 694 m 575 342 q 531 553 575 478 q 376 629 488 629 q 228 553 271 629 q 185 342 185 476 q 229 128 185 204 q 385 53 274 53 q 534 128 493 53 q 575 342 575 203 m 515 878 q 429 807 515 821 l 421 772 l 368 772 l 363 828 q 440 872 440 828 q 428 900 440 890 q 392 910 415 910 l 364 908 l 353 864 l 311 864 l 303 938 q 397 946 354 946 q 484 928 453 946 q 515 878 515 911 z "},"ơ":{"ha":760,"x_min":57,"x_max":774,"o":"m 774 744 q 730 657 774 693 q 617 606 686 621 q 703 338 703 514 q 624 83 703 181 q 381 -14 544 -14 q 137 84 217 -14 q 57 338 57 182 q 136 596 57 497 q 381 694 215 694 q 553 656 482 694 l 568 656 q 637 671 614 656 q 660 729 660 686 q 653 786 660 756 l 661 804 l 756 824 q 769 783 764 806 q 774 744 774 761 m 385 53 q 534 128 493 53 q 575 342 575 203 q 531 553 575 478 q 376 629 488 629 q 228 553 271 629 q 185 342 185 476 q 229 128 185 204 q 385 53 274 53 z "},"ớ":{"ha":760,"x_min":57,"x_max":774,"o":"m 57 0 m 774 744 q 730 657 774 693 q 617 606 686 621 q 703 338 703 514 q 624 83 703 181 q 381 -14 544 -14 q 137 84 217 -14 q 57 338 57 182 q 136 596 57 497 q 381 694 215 694 q 553 656 482 694 l 568 656 q 637 671 614 656 q 660 729 660 686 q 653 786 660 756 l 661 804 l 756 824 q 769 783 764 806 q 774 744 774 761 m 385 53 q 534 128 493 53 q 575 342 575 203 q 531 553 575 478 q 376 629 488 629 q 228 553 271 629 q 185 342 185 476 q 229 128 185 204 q 385 53 274 53 m 278 775 l 256 801 l 469 982 l 575 943 l 575 918 l 278 775 z "},"ợ":{"ha":760,"x_min":57,"x_max":774,"o":"m 57 0 m 774 744 q 730 657 774 693 q 617 606 686 621 q 703 338 703 514 q 624 83 703 181 q 381 -14 544 -14 q 137 84 217 -14 q 57 338 57 182 q 136 596 57 497 q 381 694 215 694 q 553 656 482 694 l 568 656 q 637 671 614 656 q 660 729 660 686 q 653 786 660 756 l 661 804 l 756 824 q 769 783 764 806 q 774 744 774 761 m 385 53 q 534 128 493 53 q 575 342 575 203 q 531 553 575 478 q 376 629 488 629 q 228 553 271 629 q 185 342 185 476 q 229 128 185 204 q 385 53 274 53 m 464 -140 q 439 -197 464 -174 q 381 -219 414 -219 q 322 -197 347 -219 q 297 -140 297 -174 q 322 -81 297 -106 q 381 -57 347 -57 q 439 -82 414 -57 q 464 -140 464 -107 z "},"ờ":{"ha":760,"x_min":57,"x_max":774,"o":"m 57 0 m 774 744 q 730 657 774 693 q 617 606 686 621 q 703 338 703 514 q 624 83 703 181 q 381 -14 544 -14 q 137 84 217 -14 q 57 338 57 182 q 136 596 57 497 q 381 694 215 694 q 553 656 482 694 l 568 656 q 637 671 614 656 q 660 729 660 686 q 653 786 660 756 l 661 804 l 756 824 q 769 783 764 806 q 774 744 774 761 m 385 53 q 534 128 493 53 q 575 342 575 203 q 531 553 575 478 q 376 629 488 629 q 228 553 271 629 q 185 342 185 476 q 229 128 185 204 q 385 53 274 53 m 465 775 l 165 918 l 165 943 l 272 982 l 485 801 l 465 775 z "},"ở":{"ha":760,"x_min":57,"x_max":774,"o":"m 57 0 m 774 744 q 730 657 774 693 q 617 606 686 621 q 703 338 703 514 q 624 83 703 181 q 381 -14 544 -14 q 137 84 217 -14 q 57 338 57 182 q 136 596 57 497 q 381 694 215 694 q 553 656 482 694 l 568 656 q 637 671 614 656 q 660 729 660 686 q 653 786 660 756 l 661 804 l 756 824 q 769 783 764 806 q 774 744 774 761 m 385 53 q 534 128 493 53 q 575 342 575 203 q 531 553 575 478 q 376 629 488 629 q 228 553 271 629 q 185 342 185 476 q 229 128 185 204 q 385 53 274 53 m 515 878 q 429 807 515 821 l 421 772 l 368 772 l 363 828 q 440 872 440 828 q 428 900 440 890 q 392 910 415 910 l 364 908 l 353 864 l 311 864 l 303 938 q 397 946 354 946 q 484 928 453 946 q 515 878 515 911 z "},"ỡ":{"ha":760,"x_min":57,"x_max":774,"o":"m 57 0 m 774 744 q 730 657 774 693 q 617 606 686 621 q 703 338 703 514 q 624 83 703 181 q 381 -14 544 -14 q 137 84 217 -14 q 57 338 57 182 q 136 596 57 497 q 381 694 215 694 q 553 656 482 694 l 568 656 q 637 671 614 656 q 660 729 660 686 q 653 786 660 756 l 661 804 l 756 824 q 769 783 764 806 q 774 744 774 761 m 385 53 q 534 128 493 53 q 575 342 575 203 q 531 553 575 478 q 376 629 488 629 q 228 553 271 629 q 185 342 185 476 q 229 128 185 204 q 385 53 274 53 m 582 938 q 533 841 556 874 q 481 808 511 808 q 381 836 456 808 q 283 864 306 864 q 256 853 269 864 q 233 830 242 842 q 221 814 224 818 l 179 831 q 228 928 206 896 q 282 961 251 961 q 324 953 297 961 q 379 933 351 944 q 435 914 407 922 q 479 906 463 906 q 506 917 493 906 q 528 939 519 928 q 539 954 538 950 l 582 938 z "},"ő":{"ha":760,"x_min":57,"x_max":703,"o":"m 207 756 l 181 771 l 306 992 l 410 992 l 410 968 l 207 756 m 431 756 l 404 771 l 529 992 l 633 992 l 633 968 l 431 756 m 381 694 q 625 597 547 694 q 703 338 703 499 q 624 83 703 181 q 381 -14 544 -14 q 137 84 217 -14 q 57 338 57 182 q 136 596 57 497 q 381 694 215 694 m 575 342 q 531 553 575 478 q 376 629 488 629 q 228 553 271 629 q 185 342 185 476 q 229 128 185 204 q 385 53 274 53 q 534 128 493 53 q 575 342 575 203 z "},"ȏ":{"ha":760,"x_min":57,"x_max":703,"o":"m 57 0 m 381 694 q 625 597 547 694 q 703 338 703 499 q 624 83 703 181 q 381 -14 544 -14 q 137 84 217 -14 q 57 338 57 182 q 136 596 57 497 q 381 694 215 694 m 575 342 q 531 553 575 478 q 376 629 488 629 q 228 553 271 629 q 185 342 185 476 q 229 128 185 204 q 385 53 274 53 q 534 128 493 53 q 575 342 575 203 m 379 978 q 506 934 468 978 q 543 819 543 890 l 496 817 q 472 879 496 856 q 382 903 447 903 q 290 879 315 903 q 264 817 264 856 l 218 819 q 379 978 218 978 z "},"ō":{"ha":760,"x_min":57,"x_max":703,"o":"m 228 918 l 529 918 l 529 846 l 228 846 l 228 918 m 381 694 q 625 597 547 694 q 703 338 703 499 q 624 83 703 181 q 381 -14 544 -14 q 137 84 217 -14 q 57 338 57 182 q 136 596 57 497 q 381 694 215 694 m 575 342 q 531 553 575 478 q 376 629 488 629 q 228 553 271 629 q 185 342 185 476 q 229 128 185 204 q 385 53 274 53 q 534 128 493 53 q 575 342 575 203 z "},"ǫ":{"ha":760,"x_min":57,"x_max":703,"o":"m 582 -215 q 651 -185 621 -215 l 674 -207 q 657 -228 674 -210 q 611 -261 640 -246 q 543 -276 582 -276 q 445 -242 478 -276 q 413 -158 413 -208 q 431 -83 413 -124 q 486 -1 449 -43 q 381 -14 440 -14 q 137 84 217 -14 q 57 338 57 182 q 136 596 57 497 q 381 694 215 694 q 625 597 547 694 q 703 338 703 499 q 676 174 703 247 q 594 54 650 101 q 533 -32 560 21 q 506 -133 506 -85 q 526 -194 506 -172 q 582 -215 546 -215 m 185 342 q 229 128 185 204 q 385 53 274 53 q 534 128 493 53 q 575 342 575 203 q 531 553 575 478 q 376 629 488 629 q 228 553 271 629 q 185 342 185 476 z "},"ø":{"ha":760,"x_min":57,"x_max":703,"o":"m 228 17 q 99 140 142 56 q 57 338 57 225 q 136 596 57 497 q 381 694 215 694 q 446 690 414 694 l 485 811 l 568 811 l 522 669 q 659 545 615 632 q 703 338 703 458 q 624 83 703 181 q 381 -14 544 -14 q 300 -7 342 -14 l 261 -128 l 181 -128 l 228 17 m 425 625 q 376 629 401 629 q 228 553 271 629 q 185 342 185 476 q 254 99 185 164 l 425 625 m 385 53 q 534 128 493 53 q 575 342 575 203 q 557 494 575 431 q 496 592 539 557 l 322 61 q 385 53 351 53 z "},"ǿ":{"ha":760,"x_min":57,"x_max":703,"o":"m 57 0 m 228 17 q 99 140 142 56 q 57 338 57 225 q 136 596 57 497 q 381 694 215 694 q 446 690 414 694 l 485 811 l 568 811 l 522 669 q 659 545 615 632 q 703 338 703 458 q 624 83 703 181 q 381 -14 544 -14 q 300 -7 342 -14 l 261 -128 l 181 -128 l 228 17 m 425 625 q 376 629 401 629 q 228 553 271 629 q 185 342 185 476 q 254 99 185 164 l 425 625 m 385 53 q 534 128 493 53 q 575 342 575 203 q 557 494 575 431 q 496 592 539 557 l 322 61 q 385 53 351 53 m 278 775 l 256 801 l 469 982 l 575 943 l 575 918 l 278 775 z "},"õ":{"ha":760,"x_min":57,"x_max":703,"o":"m 583 938 q 535 841 557 874 q 482 808 513 808 q 382 836 457 808 q 285 864 307 864 q 257 853 271 864 q 234 830 243 842 q 222 814 225 818 l 181 831 q 230 928 207 896 q 283 961 253 961 q 326 953 299 961 q 381 933 353 944 q 436 914 408 922 q 481 906 464 906 q 508 917 494 906 q 530 939 521 928 q 540 954 539 950 l 583 938 m 381 694 q 625 597 547 694 q 703 338 703 499 q 624 83 703 181 q 381 -14 544 -14 q 137 84 217 -14 q 57 338 57 182 q 136 596 57 497 q 381 694 215 694 m 575 342 q 531 553 575 478 q 376 629 488 629 q 228 553 271 629 q 185 342 185 476 q 229 128 185 204 q 385 53 274 53 q 534 128 493 53 q 575 342 575 203 z "},"œ":{"ha":1183,"x_min":57,"x_max":1140,"o":"m 381 -14 q 137 83 217 -14 q 57 338 57 181 q 136 597 57 499 q 381 694 215 694 q 643 569 560 694 q 883 694 721 694 q 1070 627 1000 694 q 1140 428 1140 560 q 1138 364 1140 397 l 707 364 l 707 343 q 750 148 707 236 q 921 60 793 60 q 1024 68 965 60 q 1122 89 1082 76 l 1129 47 q 1021 1 1075 17 q 899 -14 967 -14 q 642 108 717 -14 q 381 -14 560 -14 m 383 53 q 535 127 496 53 q 574 343 574 201 q 531 556 574 482 q 375 629 489 629 q 225 555 267 629 q 183 343 183 481 q 227 129 183 206 q 383 53 271 53 m 1014 426 l 1014 458 q 982 581 1014 535 q 890 626 950 626 q 755 569 797 626 q 710 413 713 513 l 1014 426 z "},"p":{"ha":801,"x_min":24,"x_max":743,"o":"m 24 -193 l 147 -157 l 147 597 l 24 611 l 24 643 q 207 679 106 664 q 383 694 308 694 q 661 599 579 694 q 743 338 743 503 q 665 92 743 185 q 444 0 588 0 q 331 15 382 0 l 347 67 q 394 64 372 64 q 570 140 525 64 q 615 343 615 217 q 601 484 615 424 q 538 585 586 544 q 394 626 489 626 q 263 603 336 626 l 263 -156 l 403 -192 l 403 -232 l 24 -232 l 24 -193 z "},"þ":{"ha":804,"x_min":26,"x_max":746,"o":"m 28 -193 l 151 -157 l 151 911 l 26 925 l 26 957 l 231 1010 l 265 1010 l 265 686 q 403 694 333 694 q 665 597 585 694 q 746 338 746 500 q 668 92 746 185 q 447 0 590 0 q 333 15 393 0 l 350 67 q 397 64 375 64 q 572 140 528 64 q 617 343 617 215 q 603 485 617 426 q 539 585 589 544 q 390 626 489 626 q 321 620 356 626 q 265 603 286 614 l 265 -156 l 406 -192 l 406 -232 l 28 -232 l 28 -193 z "},"q":{"ha":778,"x_min":60,"x_max":778,"o":"m 778 -193 l 778 -232 l 418 -232 l 418 -193 l 542 -157 l 542 64 q 434 4 482 22 q 307 -14 386 -14 q 124 85 189 -14 q 60 338 60 183 q 139 595 60 496 q 371 694 218 694 q 581 643 485 694 l 617 686 l 653 686 l 653 -157 l 778 -193 m 538 582 q 374 629 456 629 q 235 555 282 629 q 188 358 188 481 q 232 135 188 203 q 361 68 276 68 q 459 83 413 68 q 538 122 506 97 l 538 582 z "},"r":{"ha":554,"x_min":39,"x_max":525,"o":"m 429 606 q 278 579 354 606 l 278 74 l 435 42 l 435 0 l 39 0 l 39 39 l 163 75 l 163 594 l 39 611 l 39 643 l 225 694 l 274 694 l 274 631 q 380 679 322 661 q 489 697 438 697 q 525 696 513 697 l 504 496 l 458 496 l 429 606 z "},"ŕ":{"ha":554,"x_min":39,"x_max":525,"o":"m 204 775 l 182 801 l 396 982 l 501 943 l 501 918 l 204 775 m 429 606 q 278 579 354 606 l 278 74 l 435 42 l 435 0 l 39 0 l 39 39 l 163 75 l 163 594 l 39 611 l 39 643 l 225 694 l 274 694 l 274 631 q 380 679 322 661 q 489 697 438 697 q 525 696 513 697 l 504 496 l 458 496 l 429 606 z "},"ř":{"ha":554,"x_min":39,"x_max":525,"o":"m 149 993 l 299 868 l 447 993 l 476 968 l 340 775 l 257 775 l 118 968 l 149 993 m 429 606 q 278 579 354 606 l 278 74 l 435 42 l 435 0 l 39 0 l 39 39 l 163 75 l 163 594 l 39 611 l 39 643 l 225 694 l 274 694 l 274 631 q 380 679 322 661 q 489 697 438 697 q 525 696 513 697 l 504 496 l 458 496 l 429 606 z "},"ŗ":{"ha":554,"x_min":39,"x_max":525,"o":"m 39 39 l 163 75 l 163 594 l 39 611 l 39 643 l 225 694 l 274 694 l 274 631 q 380 679 322 661 q 489 697 438 697 q 525 696 513 697 l 504 496 l 458 496 l 429 606 q 278 579 354 606 l 278 74 l 435 42 l 435 0 l 39 0 l 39 39 m 171 -307 l 190 -60 l 289 -39 l 306 -58 l 218 -307 l 171 -307 z "},"ȑ":{"ha":554,"x_min":-4,"x_max":525,"o":"m 0 0 m 429 606 q 278 579 354 606 l 278 74 l 435 42 l 435 0 l 39 0 l 39 39 l 163 75 l 163 594 l 39 611 l 39 643 l 225 694 l 274 694 l 274 631 q 380 679 322 661 q 489 697 438 697 q 525 696 513 697 l 504 496 l 458 496 l 429 606 m 199 756 l -4 968 l -4 992 l 100 992 l 225 771 l 199 756 m 422 756 l 219 968 l 219 992 l 324 992 l 449 771 l 422 756 z "},"ṛ":{"ha":554,"x_min":39,"x_max":525,"o":"m 39 0 m 429 606 q 278 579 354 606 l 278 74 l 435 42 l 435 0 l 39 0 l 39 39 l 163 75 l 163 594 l 39 611 l 39 643 l 225 694 l 274 694 l 274 631 q 380 679 322 661 q 489 697 438 697 q 525 696 513 697 l 504 496 l 458 496 l 429 606 m 304 -140 q 279 -197 304 -174 q 221 -219 254 -219 q 163 -197 188 -219 q 138 -140 138 -174 q 163 -81 138 -106 q 221 -57 188 -57 q 279 -82 254 -57 q 304 -140 304 -107 z "},"ȓ":{"ha":554,"x_min":39,"x_max":525,"o":"m 39 0 m 429 606 q 278 579 354 606 l 278 74 l 435 42 l 435 0 l 39 0 l 39 39 l 163 75 l 163 594 l 39 611 l 39 643 l 225 694 l 274 694 l 274 631 q 380 679 322 661 q 489 697 438 697 q 525 696 513 697 l 504 496 l 458 496 l 429 606 m 276 978 q 403 934 365 978 q 440 819 440 890 l 393 817 q 369 879 393 856 q 279 903 344 903 q 187 879 213 903 q 161 817 161 856 l 115 819 q 276 978 115 978 z "},"s":{"ha":583,"x_min":60,"x_max":522,"o":"m 307 624 q 204 598 240 624 q 168 525 168 572 q 190 458 168 481 q 268 415 211 436 l 368 379 q 490 308 457 349 q 522 197 522 267 q 456 42 522 99 q 265 -14 390 -14 q 160 -4 217 -14 q 60 22 104 6 l 79 183 l 122 183 l 151 69 q 272 53 210 53 q 380 83 342 53 q 418 176 418 114 q 392 237 418 213 q 301 285 367 261 l 214 315 q 105 386 139 343 q 71 499 71 429 q 131 643 71 592 q 311 694 192 694 q 497 650 400 694 l 475 501 l 433 501 l 404 603 q 358 617 386 611 q 307 624 329 624 z "},"ś":{"ha":590,"x_min":60,"x_max":522,"o":"m 174 775 l 151 801 l 365 982 l 471 943 l 471 918 l 174 775 m 307 624 q 204 598 240 624 q 168 525 168 572 q 190 458 168 481 q 268 415 211 436 l 368 379 q 490 308 457 349 q 522 197 522 267 q 456 42 522 99 q 265 -14 390 -14 q 160 -4 217 -14 q 60 22 104 6 l 79 183 l 122 183 l 151 69 q 272 53 210 53 q 380 83 342 53 q 418 176 418 114 q 392 237 418 213 q 301 285 367 261 l 214 315 q 105 386 139 343 q 71 499 71 429 q 131 643 71 592 q 311 694 192 694 q 497 650 400 694 l 475 501 l 433 501 l 404 603 q 358 617 386 611 q 307 624 329 624 z "},"ꞌ":{"ha":211,"x_min":68,"x_max":214,"o":"m 113 492 l 68 500 l 89 950 l 194 975 l 214 953 l 113 492 z "},"š":{"ha":594,"x_min":75,"x_max":538,"o":"m 269 751 l 131 944 l 163 969 l 311 844 l 460 969 l 489 944 l 353 751 l 269 751 m 281 -14 q 176 -4 232 -14 q 75 22 119 6 l 94 183 l 138 183 l 167 69 q 288 53 225 53 q 394 82 354 53 q 433 157 433 111 q 405 231 433 203 q 308 283 376 260 l 222 315 q 113 386 147 343 q 79 499 79 429 q 140 643 79 592 q 319 694 200 694 q 506 650 408 694 l 483 501 l 442 501 l 413 603 q 366 617 394 611 q 315 624 338 624 q 213 598 249 624 q 176 525 176 572 q 198 458 176 481 q 276 415 219 436 l 379 379 q 502 306 467 349 q 538 183 538 264 q 471 40 538 94 q 281 -14 404 -14 z "},"ş":{"ha":590,"x_min":60,"x_max":522,"o":"m 238 -304 q 165 -293 197 -304 l 176 -258 q 225 -267 204 -267 q 304 -239 274 -267 q 335 -172 335 -211 q 309 -124 335 -143 q 228 -106 283 -106 l 224 -93 l 250 -14 q 153 -3 204 -12 q 60 22 101 6 l 79 183 l 122 183 l 151 69 q 272 53 210 53 q 380 83 342 53 q 418 176 418 114 q 392 237 418 213 q 301 285 367 261 l 214 315 q 105 386 139 343 q 71 499 71 429 q 131 643 71 592 q 311 694 192 694 q 497 650 400 694 l 475 501 l 433 501 l 404 603 q 358 617 386 611 q 307 624 329 624 q 204 598 240 624 q 168 525 168 572 q 190 458 168 481 q 268 415 211 436 l 368 379 q 490 308 457 349 q 522 197 522 267 q 464 49 522 104 q 293 -12 406 -7 l 276 -64 q 387 -92 349 -64 q 425 -161 425 -119 q 399 -233 425 -200 q 331 -285 374 -265 q 238 -304 288 -304 z "},"ŝ":{"ha":583,"x_min":60,"x_max":522,"o":"m 60 0 m 307 624 q 204 598 240 624 q 168 525 168 572 q 190 458 168 481 q 268 415 211 436 l 368 379 q 490 308 457 349 q 522 197 522 267 q 456 42 522 99 q 265 -14 390 -14 q 160 -4 217 -14 q 60 22 104 6 l 79 183 l 122 183 l 151 69 q 272 53 210 53 q 380 83 342 53 q 418 176 418 114 q 392 237 418 213 q 301 285 367 261 l 214 315 q 105 386 139 343 q 71 499 71 429 q 131 643 71 592 q 311 694 192 694 q 497 650 400 694 l 475 501 l 433 501 l 404 603 q 358 617 386 611 q 307 624 329 624 m 440 767 l 292 892 l 142 767 l 113 792 l 249 985 l 332 985 l 471 792 l 440 767 z "},"ș":{"ha":590,"x_min":60,"x_max":522,"o":"m 307 624 q 204 598 240 624 q 168 525 168 572 q 190 458 168 481 q 268 415 211 436 l 368 379 q 490 308 457 349 q 522 197 522 267 q 456 42 522 99 q 265 -14 390 -14 q 160 -4 217 -14 q 60 22 104 6 l 79 183 l 122 183 l 151 69 q 272 53 210 53 q 380 83 342 53 q 418 176 418 114 q 392 237 418 213 q 301 285 367 261 l 214 315 q 105 386 139 343 q 71 499 71 429 q 131 643 71 592 q 311 694 192 694 q 497 650 400 694 l 475 501 l 433 501 l 404 603 q 358 617 386 611 q 307 624 329 624 m 274 -307 l 228 -307 l 246 -60 l 343 -39 l 361 -58 l 274 -307 z "},"ṣ":{"ha":583,"x_min":60,"x_max":522,"o":"m 60 0 m 307 624 q 204 598 240 624 q 168 525 168 572 q 190 458 168 481 q 268 415 211 436 l 368 379 q 490 308 457 349 q 522 197 522 267 q 456 42 522 99 q 265 -14 390 -14 q 160 -4 217 -14 q 60 22 104 6 l 79 183 l 122 183 l 151 69 q 272 53 210 53 q 380 83 342 53 q 418 176 418 114 q 392 237 418 213 q 301 285 367 261 l 214 315 q 105 386 139 343 q 71 499 71 429 q 131 643 71 592 q 311 694 192 694 q 497 650 400 694 l 475 501 l 433 501 l 404 603 q 358 617 386 611 q 307 624 329 624 m 375 -140 q 350 -197 375 -174 q 292 -219 325 -219 q 233 -197 258 -219 q 208 -140 208 -174 q 233 -81 208 -106 q 292 -57 258 -57 q 350 -82 325 -57 q 375 -140 375 -107 z "},"ß":{"ha":832,"x_min":39,"x_max":807,"o":"m 583 -14 q 411 22 501 -14 l 428 181 l 472 181 l 501 67 q 594 50 544 50 q 672 76 646 50 q 697 144 697 103 q 678 213 697 182 q 631 267 658 243 q 554 328 604 290 q 447 417 483 378 q 411 508 411 457 q 427 563 411 539 q 475 618 443 586 q 534 690 514 658 q 554 767 554 722 q 521 865 554 826 q 415 904 488 904 q 306 859 332 904 q 279 721 279 814 l 279 74 l 386 50 l 386 0 l 39 0 l 39 39 l 163 74 l 163 613 l 53 613 l 53 653 l 163 681 q 422 972 163 972 q 550 944 492 972 q 642 872 608 917 q 675 779 675 828 q 654 708 675 736 q 593 644 633 679 q 539 590 557 614 q 521 533 521 565 q 546 484 521 508 q 622 422 571 460 q 717 344 681 378 q 780 265 753 311 q 807 165 807 219 q 748 34 807 82 q 583 -14 689 -14 z "},"ſ":{"ha":496,"x_min":43,"x_max":572,"o":"m 43 39 l 167 74 l 167 613 l 57 613 l 57 653 l 167 681 q 201 856 167 782 q 298 970 236 931 q 438 1010 360 1010 q 512 1002 472 1010 q 572 983 551 994 l 554 825 l 504 825 l 486 914 q 413 929 454 929 q 313 882 340 929 q 285 736 285 835 l 283 74 l 443 39 l 443 0 l 43 0 l 43 39 z "},"t":{"ha":492,"x_min":32,"x_max":476,"o":"m 457 15 q 346 -4 418 4 q 242 -12 274 -12 q 158 20 183 -12 q 133 101 133 53 l 133 611 l 32 611 l 32 661 l 144 696 l 196 835 l 247 835 l 247 682 l 476 682 l 476 600 l 247 611 l 247 81 l 457 53 l 457 15 z "},"ŧ":{"ha":492,"x_min":32,"x_max":476,"o":"m 247 611 l 247 433 l 449 433 l 449 369 l 247 369 l 247 81 l 457 53 l 457 15 q 346 -4 418 4 q 242 -12 274 -12 q 158 20 183 -12 q 133 101 133 53 l 133 369 l 44 369 l 44 433 l 133 433 l 133 611 l 32 611 l 32 661 l 144 696 l 196 835 l 247 835 l 247 682 l 476 682 l 476 600 l 247 611 z "},"ť":{"ha":492,"x_min":32,"x_max":476,"o":"m 357 1008 l 396 1008 l 472 983 l 429 713 l 397 713 l 357 1008 m 457 15 q 346 -4 418 4 q 242 -12 274 -12 q 158 20 183 -12 q 133 101 133 53 l 133 611 l 32 611 l 32 661 l 144 696 l 196 835 l 247 835 l 247 682 l 476 682 l 476 600 l 247 611 l 247 81 l 457 53 l 457 15 z "},"ţ":{"ha":492,"x_min":32,"x_max":476,"o":"m 213 -304 q 140 -293 172 -304 l 151 -258 q 200 -267 179 -267 q 279 -239 249 -267 q 310 -172 310 -211 q 284 -124 310 -143 q 203 -106 258 -106 l 199 -93 l 226 -12 q 155 24 176 -8 q 133 101 133 56 l 133 611 l 32 611 l 32 661 l 144 696 l 196 835 l 247 835 l 247 682 l 476 682 l 476 600 l 247 611 l 247 81 l 457 53 l 457 15 q 367 -1 424 7 q 268 -11 310 -8 l 251 -64 q 362 -92 324 -64 q 400 -161 400 -119 q 374 -233 400 -200 q 306 -285 349 -265 q 213 -304 263 -304 z "},"ț":{"ha":492,"x_min":32,"x_max":476,"o":"m 242 -12 q 158 20 183 -12 q 133 101 133 53 l 133 611 l 32 611 l 32 661 l 144 696 l 196 835 l 247 835 l 247 682 l 476 682 l 476 600 l 247 611 l 247 81 l 457 53 l 457 15 q 346 -4 418 4 q 242 -12 274 -12 m 204 -307 l 224 -60 l 321 -39 l 339 -58 l 250 -307 l 204 -307 z "},"ṭ":{"ha":492,"x_min":32,"x_max":476,"o":"m 32 0 m 457 15 q 346 -4 418 4 q 242 -12 274 -12 q 158 20 183 -12 q 133 101 133 53 l 133 611 l 32 611 l 32 661 l 144 696 l 196 835 l 247 835 l 247 682 l 476 682 l 476 600 l 247 611 l 247 81 l 457 53 l 457 15 m 329 -140 q 304 -197 329 -174 q 246 -219 279 -219 q 188 -197 213 -219 q 163 -140 163 -174 q 188 -81 163 -106 q 246 -57 213 -57 q 304 -82 279 -57 q 329 -140 329 -107 z "},"u":{"ha":829,"x_min":19,"x_max":804,"o":"m 804 17 q 657 -6 728 -6 q 601 13 628 -6 q 568 64 574 32 l 535 50 q 410 3 464 19 q 301 -14 357 -14 q 181 33 218 -14 q 143 151 143 81 l 143 597 l 19 611 l 19 643 l 224 694 l 260 694 l 260 167 q 282 94 260 117 q 372 72 304 72 q 461 85 407 72 q 561 115 515 99 l 561 597 l 436 611 l 436 643 l 640 694 l 678 694 l 678 81 l 804 56 l 804 17 z "},"ú":{"ha":836,"x_min":18,"x_max":803,"o":"m 281 775 l 258 801 l 472 982 l 578 943 l 578 918 l 281 775 m 803 17 q 656 -6 726 -6 q 599 13 626 -6 q 567 64 572 32 l 533 50 q 409 3 463 19 q 300 -14 356 -14 q 179 33 217 -14 q 142 151 142 81 l 142 597 l 18 611 l 18 643 l 222 694 l 258 694 l 258 167 q 281 94 258 117 q 371 72 303 72 q 460 85 406 72 q 560 115 514 99 l 560 597 l 435 611 l 435 643 l 639 694 l 676 694 l 676 81 l 803 56 l 803 17 z "},"ŭ":{"ha":829,"x_min":19,"x_max":804,"o":"m 19 0 m 804 17 q 657 -6 728 -6 q 601 13 628 -6 q 568 64 574 32 l 535 50 q 410 3 464 19 q 301 -14 357 -14 q 181 33 218 -14 q 143 151 143 81 l 143 597 l 19 611 l 19 643 l 224 694 l 260 694 l 260 167 q 282 94 260 117 q 372 72 304 72 q 461 85 407 72 q 561 115 515 99 l 561 597 l 436 611 l 436 643 l 640 694 l 678 694 l 678 81 l 804 56 l 804 17 m 417 803 q 290 847 328 803 q 253 961 253 890 l 300 964 q 324 901 300 925 q 414 878 349 878 q 506 901 481 878 q 532 964 532 925 l 578 961 q 417 803 578 803 z "},"ǔ":{"ha":829,"x_min":19,"x_max":804,"o":"m 19 0 m 804 17 q 657 -6 728 -6 q 601 13 628 -6 q 568 64 574 32 l 535 50 q 410 3 464 19 q 301 -14 357 -14 q 181 33 218 -14 q 143 151 143 81 l 143 597 l 19 611 l 19 643 l 224 694 l 260 694 l 260 167 q 282 94 260 117 q 372 72 304 72 q 461 85 407 72 q 561 115 515 99 l 561 597 l 436 611 l 436 643 l 640 694 l 678 694 l 678 81 l 804 56 l 804 17 m 267 993 l 417 868 l 565 993 l 594 968 l 458 775 l 375 775 l 236 968 l 267 993 z "},"û":{"ha":836,"x_min":18,"x_max":803,"o":"m 544 767 l 396 892 l 246 767 l 217 792 l 353 985 l 436 985 l 575 792 l 544 767 m 803 17 q 656 -6 726 -6 q 599 13 626 -6 q 567 64 572 32 l 533 50 q 409 3 463 19 q 300 -14 356 -14 q 179 33 217 -14 q 142 151 142 81 l 142 597 l 18 611 l 18 643 l 222 694 l 258 694 l 258 167 q 281 94 258 117 q 371 72 303 72 q 460 85 406 72 q 560 115 514 99 l 560 597 l 435 611 l 435 643 l 639 694 l 676 694 l 676 81 l 803 56 l 803 17 z "},"ȕ":{"ha":829,"x_min":19,"x_max":804,"o":"m 19 0 m 804 17 q 657 -6 728 -6 q 601 13 628 -6 q 568 64 574 32 l 535 50 q 410 3 464 19 q 301 -14 357 -14 q 181 33 218 -14 q 143 151 143 81 l 143 597 l 19 611 l 19 643 l 224 694 l 260 694 l 260 167 q 282 94 260 117 q 372 72 304 72 q 461 85 407 72 q 561 115 515 99 l 561 597 l 436 611 l 436 643 l 640 694 l 678 694 l 678 81 l 804 56 l 804 17 m 336 756 l 133 968 l 133 992 l 238 992 l 363 771 l 336 756 m 560 756 l 357 968 l 357 992 l 461 992 l 586 771 l 560 756 z "},"ü":{"ha":836,"x_min":18,"x_max":803,"o":"m 346 882 q 322 828 346 851 q 267 806 299 806 q 211 828 235 806 q 188 882 188 851 q 211 939 188 915 q 267 963 235 963 q 322 939 299 963 q 346 882 346 915 m 617 882 q 592 828 617 851 q 536 806 568 806 q 481 828 504 806 q 457 882 457 851 q 481 939 457 915 q 536 963 504 963 q 592 939 568 963 q 617 882 617 915 m 803 17 q 656 -6 726 -6 q 599 13 626 -6 q 567 64 572 32 l 533 50 q 409 3 463 19 q 300 -14 356 -14 q 179 33 217 -14 q 142 151 142 81 l 142 597 l 18 611 l 18 643 l 222 694 l 258 694 l 258 167 q 281 94 258 117 q 371 72 303 72 q 460 85 406 72 q 560 115 514 99 l 560 597 l 435 611 l 435 643 l 639 694 l 676 694 l 676 81 l 803 56 l 803 17 z "},"ǘ":{"ha":829,"x_min":19,"x_max":804,"o":"m 19 0 m 804 17 q 657 -6 728 -6 q 601 13 628 -6 q 568 64 574 32 l 535 50 q 410 3 464 19 q 301 -14 357 -14 q 181 33 218 -14 q 143 151 143 81 l 143 597 l 19 611 l 19 643 l 224 694 l 260 694 l 260 167 q 282 94 260 117 q 372 72 304 72 q 461 85 407 72 q 561 115 515 99 l 561 597 l 436 611 l 436 643 l 640 694 l 678 694 l 678 81 l 804 56 l 804 17 m 358 836 q 335 783 358 806 q 279 760 311 760 q 224 783 247 760 q 200 836 200 806 q 224 893 200 869 q 279 917 247 917 q 335 893 311 917 q 358 836 358 869 m 629 836 q 605 783 629 806 q 549 760 581 760 q 493 783 517 760 q 469 836 469 806 q 493 893 469 869 q 549 917 517 917 q 605 893 581 917 q 629 836 629 869 m 354 971 l 332 997 l 546 1178 l 651 1139 l 651 1114 l 354 971 z "},"ǚ":{"ha":829,"x_min":19,"x_max":804,"o":"m 19 0 m 804 17 q 657 -6 728 -6 q 601 13 628 -6 q 568 64 574 32 l 535 50 q 410 3 464 19 q 301 -14 357 -14 q 181 33 218 -14 q 143 151 143 81 l 143 597 l 19 611 l 19 643 l 224 694 l 260 694 l 260 167 q 282 94 260 117 q 372 72 304 72 q 461 85 407 72 q 561 115 515 99 l 561 597 l 436 611 l 436 643 l 640 694 l 678 694 l 678 81 l 804 56 l 804 17 m 358 836 q 335 783 358 806 q 279 760 311 760 q 224 783 247 760 q 200 836 200 806 q 224 893 200 869 q 279 917 247 917 q 335 893 311 917 q 358 836 358 869 m 629 836 q 605 783 629 806 q 549 760 581 760 q 493 783 517 760 q 469 836 469 806 q 493 893 469 869 q 549 917 517 917 q 605 893 581 917 q 629 836 629 869 m 378 972 l 236 1154 l 260 1179 l 421 1065 l 575 1179 l 600 1154 l 461 972 l 378 972 z "},"ǜ":{"ha":829,"x_min":19,"x_max":804,"o":"m 19 0 m 804 17 q 657 -6 728 -6 q 601 13 628 -6 q 568 64 574 32 l 535 50 q 410 3 464 19 q 301 -14 357 -14 q 181 33 218 -14 q 143 151 143 81 l 143 597 l 19 611 l 19 643 l 224 694 l 260 694 l 260 167 q 282 94 260 117 q 372 72 304 72 q 461 85 407 72 q 561 115 515 99 l 561 597 l 436 611 l 436 643 l 640 694 l 678 694 l 678 81 l 804 56 l 804 17 m 358 836 q 335 783 358 806 q 279 760 311 760 q 224 783 247 760 q 200 836 200 806 q 224 893 200 869 q 279 917 247 917 q 335 893 311 917 q 358 836 358 869 m 629 836 q 605 783 629 806 q 549 760 581 760 q 493 783 517 760 q 469 836 469 806 q 493 893 469 869 q 549 917 517 917 q 605 893 581 917 q 629 836 629 869 m 489 971 l 189 1114 l 189 1139 l 296 1178 l 508 997 l 489 971 z "},"ǖ":{"ha":829,"x_min":19,"x_max":804,"o":"m 19 0 m 804 17 q 657 -6 728 -6 q 601 13 628 -6 q 568 64 574 32 l 535 50 q 410 3 464 19 q 301 -14 357 -14 q 181 33 218 -14 q 143 151 143 81 l 143 597 l 19 611 l 19 643 l 224 694 l 260 694 l 260 167 q 282 94 260 117 q 372 72 304 72 q 461 85 407 72 q 561 115 515 99 l 561 597 l 436 611 l 436 643 l 640 694 l 678 694 l 678 81 l 804 56 l 804 17 m 358 836 q 335 783 358 806 q 279 760 311 760 q 224 783 247 760 q 200 836 200 806 q 224 893 200 869 q 279 917 247 917 q 335 893 311 917 q 358 836 358 869 m 629 836 q 605 783 629 806 q 549 760 581 760 q 493 783 517 760 q 469 836 469 806 q 493 893 469 869 q 549 917 517 917 q 605 893 581 917 q 629 836 629 869 m 267 1108 l 568 1108 l 568 1036 l 267 1036 l 267 1108 z "},"ụ":{"ha":829,"x_min":19,"x_max":804,"o":"m 19 0 m 804 17 q 657 -6 728 -6 q 601 13 628 -6 q 568 64 574 32 l 535 50 q 410 3 464 19 q 301 -14 357 -14 q 181 33 218 -14 q 143 151 143 81 l 143 597 l 19 611 l 19 643 l 224 694 l 260 694 l 260 167 q 282 94 260 117 q 372 72 304 72 q 461 85 407 72 q 561 115 515 99 l 561 597 l 436 611 l 436 643 l 640 694 l 678 694 l 678 81 l 804 56 l 804 17 m 499 -140 q 474 -197 499 -174 q 415 -219 449 -219 q 357 -197 382 -219 q 332 -140 332 -174 q 357 -81 332 -106 q 415 -57 382 -57 q 474 -82 449 -57 q 499 -140 499 -107 z "}}}
